<?xml version="1.0" encoding="UTF-8"?>
<svg width="99px" height="85px" viewBox="0 0 99 85" version="1.1" xmlns="http://www.w3.org/2000/svg" xmlns:xlink="http://www.w3.org/1999/xlink">
    <!-- Generator: Sketch 56.2 (81672) - https://sketch.com -->
    <title>Móvil</title>
    <desc>Created with Sketch.</desc>
    <defs>
        <path d="M4.8,0 L295.2,0 C297.850967,-4.86974701e-16 300,2.1490332 300,4.8 L300,154.2 C300,156.850967 297.850967,159 295.2,159 L4.8,159 C2.1490332,159 1.18709693e-14,156.850967 0,154.2 L0,4.8 C-3.24649801e-16,2.1490332 2.1490332,-2.17756056e-15 4.8,0 Z" id="path-1"></path>
        <filter x="-3.8%" y="-7.1%" width="108.9%" height="116.7%" filterUnits="objectBoundingBox" id="filter-3">
            <feMorphology radius="0.3" operator="dilate" in="SourceAlpha" result="shadowSpreadOuter1"></feMorphology>
            <feOffset dx="2" dy="2" in="shadowSpreadOuter1" result="shadowOffsetOuter1"></feOffset>
            <feGaussianBlur stdDeviation="4" in="shadowOffsetOuter1" result="shadowBlurOuter1"></feGaussianBlur>
            <feComposite in="shadowBlurOuter1" in2="SourceAlpha" operator="out" result="shadowBlurOuter1"></feComposite>
            <feColorMatrix values="0 0 0 0 0.714022871   0 0 0 0 0.714022871   0 0 0 0 0.714022871  0 0 0 0.5 0" type="matrix" in="shadowBlurOuter1"></feColorMatrix>
        </filter>
    </defs>
    <g id="Page-1" stroke="none" stroke-width="1" fill="none" fill-rule="evenodd">
        <g id="Móvil" transform="translate(-204.000000, -105.000000)">
            <g id="banner-registro" transform="translate(10.000000, 32.000000)">
                <mask id="mask-2" fill="white">
                    <use xlink:href="#path-1"></use>
                </mask>
                <g id="Rectangle">
                    <use fill="black" fill-opacity="1" filter="url(#filter-3)" xlink:href="#path-1"></use>
                    <use stroke="#E0DED9" stroke-width="0.6" fill="#FFFFFF" fill-rule="evenodd" xlink:href="#path-1"></use>
                </g>
                <text id="Regístrate-ahora-par" mask="url(#mask-2)" font-family="Repsol" font-size="16" font-weight="normal" fill="#212121">
                    <tspan x="10" y="24">Regístrate ahora para crear </tspan>
                    <tspan x="10" y="44">tus rutas y guardarlas en favoritos. </tspan>
                    <tspan x="10" y="64">¡Podrás consultarlas y compartirlas </tspan>
                    <tspan x="10" y="84">con quien quieras!</tspan>
                </text>
                <g id="Characters-standing-/-Woman-standing-/-4" mask="url(#mask-2)">
                    <g transform="translate(119.000000, 60.000000)" id="Woman">
                        <g transform="translate(70.780328, 14.060915)">
                            <path d="M46.1298228,244.549648 C46.8150254,244.549648 47.3704918,245.105114 47.3704918,245.790317 C47.3704918,246.475519 46.8150254,247.030986 46.1298228,247.030986 L1.24066901,247.030986 C0.555466438,247.030986 0,246.475519 0,245.790317 C0,245.105114 0.555466438,244.549648 1.24066901,244.549648 L46.1298228,244.549648 Z M133.711475,247.030986 L105.481967,247.030986 C104.820984,247.030986 104.242623,246.553806 104.242623,245.981189 L104.242623,245.599445 C104.242623,245.026828 104.793443,244.549648 105.481967,244.549648 L133.711475,244.549648 C134.372459,244.549648 134.95082,245.026828 134.95082,245.599445 L134.95082,245.981189 C134.95082,246.553806 134.4,247.030986 133.711475,247.030986 Z" id="Base" fill="#3ABF7C" fill-rule="nonzero"></path>
                            <path d="M46.2759513,244.558163 C46.2280238,244.55254 46.179261,244.549648 46.1298228,244.549648 L1.43439148,244.549648 C1.40477651,244.398673 1.38975848,244.208424 1.39405849,243.962076 C1.42495987,243.769594 1.42880513,243.549064 1.48772396,243.329497 C1.84123693,242.012092 2.26966977,241.13719 3.52276431,240.359423 C4.77585886,239.581655 6.05504822,238.887067 7.38786919,238.27614 C12.3036979,235.963046 13.9834421,235.992397 17.2156815,233.870481 C18.553309,232.983892 19.7831926,231.957547 20.9319079,230.84706 C21.6977181,230.106735 23.3530369,228.903993 25.8978643,227.238834 L46.4440766,227.238834 L46.2759513,244.558163 Z M133.861905,244.557899 C133.812397,244.552456 133.762179,244.549648 133.711475,244.549648 L105.576674,244.549648 L107.802836,230.48508 L127.52218,227.810749 L133.861905,244.557899 Z" id="Shoes" fill="#474961" fill-rule="nonzero"></path>
                            <path d="M75.7108545,135.6725 C69.4459116,156.420538 65.5341595,170.727796 58.9359482,192.388002 C57.5706139,196.263628 57.0669411,199.202907 57.4249298,201.205838 C57.9619129,204.210235 60.6096498,209.597171 61.899962,215.471447 C63.1902742,221.345723 49.9577132,214.90012 38.7049163,212.736906 C27.4521194,210.573693 15.8606789,208.366155 16.1618003,206.678841 C16.890672,202.667785 28.3213807,197.422377 29.2252256,192.388002 C30.1290705,187.353627 30.8135328,181.871479 30.9397599,180.969239 C36.7298777,146.537659 42.163243,120.081379 45.1075692,105.691127 C46.3496854,99.5202823 48.7357872,87.8696722 57.4249298,75.9434768 C57.9902246,75.1890842 58.4482563,74.6020136 58.7173756,74.238841 C59.5157617,73.3934517 60.4096234,72.7560343 61.3232014,72.2764709 C61.3028199,72.1062174 61.2824887,71.936417 61.2622042,71.7670912 C63.4647762,70.1293171 64.9590905,68.9450996 73.8718679,68.2656087 C74.0921622,68.2617634 74.3395121,68.2298713 74.5598064,68.226026 C83.2010653,67.7718715 90.5366456,70.9284937 96.0706471,77.7371321 C99.6024452,82.9995374 102.369843,89.4722715 104.37284,97.1553342 C106.211723,104.208894 113.219154,135.833509 125.39513,192.02918 C125.941361,193.641518 126.470606,194.825407 126.982864,195.580849 C128.695792,198.10695 133.749551,201.553728 137.318335,206.395079 C140.887118,211.23643 126.175303,210.729201 115.014507,213.32882 C103.853711,215.92844 92.3654925,218.625271 91.9541203,216.961503 C91.1888432,213.823983 96.2448313,207.247613 97.7710574,202.180914 C93.1377263,189.564761 88.5868617,176.458471 84.173164,162.914925 C81.1741355,153.685615 78.3580924,144.599907 75.7108545,135.6725 Z" id="Legs" fill="#013C5C" fill-rule="nonzero"></path>
                            <path d="M75.6269292,135.734791 C69.3920066,156.390785 65.4836357,170.678912 58.9035228,192.279706 C57.5381885,196.155332 57.0345157,199.094611 57.3925044,201.097542 C57.9294875,204.101939 60.5772244,209.488876 61.8675366,215.363151 C63.1578488,221.237427 49.9252878,214.791824 38.6724909,212.62861 C27.419694,210.465397 15.8282535,208.257859 16.1293749,206.570546 C16.8582466,202.559489 28.2889553,197.314081 29.1928002,192.279706 C30.0966451,187.245332 30.7811074,181.763184 30.9073345,180.860943 C36.6974523,146.429364 42.1308176,119.973084 45.0751438,105.582832 C46.31726,99.4119866 48.7033618,87.7613765 57.3925044,75.8351811 C57.9577992,75.0807885 58.4158309,74.4937179 58.6849502,74.1305453 C59.4667912,73.3026751 60.3401916,72.6742466 61.2340053,72.1981933 C62.256547,80.7380694 63.4017713,90.4393161 65.0671627,98.0919754 C66.7523101,105.835416 68.9973382,113.175707 71.3354901,120.883363 C72.7146608,125.782419 74.1443093,130.733757 75.6269292,135.734791 Z" id="Shadow-T-shirt" fill="#444444" fill-rule="nonzero" opacity="0.176985679"></path>
                            <path d="M86.2759702,29.3174594 C87.7924724,29.7570562 89.2284645,30.3990515 90.4734359,31.1967507 C95.8129902,34.6180008 98.9567804,41.1387528 96.5166026,47.5589789 C96.0082371,48.8965132 94.3011257,50.5159083 91.3952683,52.4171641 C91.1595141,52.4436486 90.9256392,52.4668933 90.6936437,52.4868981 L89.7799224,62.3656363 C89.7523814,62.668911 89.7248404,62.9446152 89.7248404,63.2478898 C89.6972994,64.626411 89.4494306,66.6666222 88.2651683,68.155425 C86.6127093,70.2507772 84.1615617,73.2835236 73.9163158,73.3938053 C62.8999224,73.504087 60.2559879,70.4713405 58.548447,68.3208476 C57.3641847,66.8596152 57.0612338,65.0951081 57.0336929,63.6614462 C57.0336929,63.3581715 57.0061519,63.0824673 56.9786109,62.7791926 L56.0062522,52.4110285 C50.8406001,51.5450281 50.0517145,48.1185233 49.1994019,45.4669803 C47.4630051,40.0650526 51.1721632,33.7133231 55.7779099,30.6756158 C59.0586066,28.5118414 63.0825809,27.6034014 66.826851,28.3779749 C68.547358,27.8700047 70.4073971,27.584547 72.3740207,27.5717631 L73.9438568,27.5717631 C78.6990652,27.5433434 83.037265,27.961673 86.2759702,29.3174594 Z" id="T-shirt" fill="#007E95" fill-rule="nonzero"></path>
                            <path d="M55.9964096,52.3060782 C50.935665,51.4082623 50.1522903,48.0136077 49.306448,45.3821937 C47.5700512,39.980266 51.2792092,33.6285365 55.884956,30.5908291 C59.1971226,28.4062989 63.2668949,27.501302 67.0415691,28.3159434 C61.2310673,29.9578699 56.9755379,34.1274394 55.5189388,38.9307772 C55.078283,40.3644391 54.9956601,41.9083828 55.160906,43.3971856 L55.9964096,52.3060782 Z" id="Shadow-T-shirt" fill="#444444" fill-rule="nonzero" opacity="0.176985679"></path>
                            <path d="M64.9147691,23.5406089 C64.8423408,23.5587665 64.7687344,23.5770842 64.6939329,23.5955601 C62.2773853,24.200255 62.4185971,24.1548645 62.2499114,24.1983317 C60.4646859,24.4602916 58.9907014,24.2189217 58.7198047,24.144683 C56.4606042,23.6825202 54.3208923,19.1383353 53.9250945,12.9474114 C53.8772538,12.446583 53.9118347,11.9515243 53.9189417,11.4545423 L54.3452514,6.53722802 C54.4220978,5.43709752 54.799236,4.38562566 55.4140334,3.48897905 C55.4766659,3.38281243 55.5373771,3.30414907 55.5980884,3.22548572 C55.8096173,2.9639156 56.0211462,2.70234549 56.2288327,2.4957819 C57.0321051,1.66760432 57.9554565,1.09657218 58.8928336,0.71998609 C61.0972746,-0.0101075007 63.5207408,0.0766256723 64.8535136,0.363386066 C65.0439097,0.404351837 65.6425719,0.529172364 66.486578,0.698805093 C67.2698728,0.947101177 68.0314572,1.11096426 68.826279,1.19424077 C69.2639402,1.25251548 69.5667307,1.66063974 69.5359921,2.10069194 L68.7694357,9.12229495 C68.7506218,9.29057615 70.8254721,7.70268905 72.9729323,8.27112676 C73.665396,8.45442353 74.6206511,9.42825953 75.8386975,11.1926348 C75.4045902,12.5226106 75.1771802,13.206566 75.1564673,13.2445008 C74.2557061,14.8942083 73.5951506,15.9314265 73.1748008,16.3561555 L73.007561,20.7780842 L73.2906613,27.5717631 L72.3740207,27.5717631 C69.7537339,27.5887961 67.3226594,28.0898884 65.1587275,28.9563943 L64.9147691,23.5406089 Z M124.352445,211.670592 L127.5242,227.815837 L107.856809,230.584732 L105.767743,215.38328 C108.732611,214.730747 111.933363,213.98352 115.10763,213.244157 C118.074988,212.552987 121.293362,212.081437 124.352445,211.670592 Z M30.9064476,211.114924 C33.447579,211.624847 36.1323115,212.139789 38.7980397,212.652242 C42.291429,213.323804 45.9756218,214.408089 49.3568617,215.40836 L46.4478689,227.538697 L25.6131148,227.538697 L30.9064476,211.114924 Z M54.9945835,68.5615001 C51.8418671,71.0670804 48.6435563,72.196903 45.3996509,71.9509678 C36.0516489,71.2422535 26.4320974,62.0181971 16.5409964,44.2787986 L16.5427909,44.2777939 L16.5417486,44.2775997 L6.75814548,25.5429528 C9.19981699,23.5009039 11.4549104,23.5803552 13.5234258,25.7813068 C15.4292903,28.2860755 16.5266965,29.7808036 16.8156444,30.2654909 C21.1424948,37.5234419 24.6270647,36.2373486 28.8603309,41.5713723 L42.0599596,52.9486611 L46.8853969,47.9644918 C46.2779048,45.6625029 45.6930237,43.2226904 45.1307536,40.6450544 C43.6665175,39.6553019 41.40933,37.8540747 37.7289843,34.76764 C37.3838473,34.478199 35.6850655,34.0931912 32.6326389,33.6126166 C28.0963268,34.2072938 26.0460071,32.9271803 26.4816798,29.7722763 C39.8089618,32.8857252 47.3096822,35.4094527 51.1194082,37.2036576 C53.3073765,35.8805827 54.1685625,35.1437495 53.7029662,34.993158 L66.0955606,53.5938826 L72.1674275,43.7314571 C73.9427981,46.9231181 76.5822008,48.3678948 80.2192712,50.4268894 C83.2074346,52.1185289 86.8052263,52.7592087 91.0126463,52.3489288 C82.9026018,68.4206808 74.9468177,76.5699058 67.145294,76.7966038 C62.6231557,76.9280088 58.5729189,74.1829742 54.9945835,68.5615001 Z" id="Skin" fill="#ED9474" fill-rule="nonzero"></path>
                            <path d="M55.1674542,68.5250255 C51.9999234,71.0561124 48.7863558,72.1980932 45.5267514,71.9509678 C36.1787493,71.2422535 26.5591978,62.0181971 16.6680968,44.2787986 L16.6698913,44.2777939 L16.6688491,44.2775997 L6.8852459,25.5429528 C9.32691741,23.5009039 11.5820108,23.5803552 13.6505262,25.7813068 C15.5563907,28.2860755 16.6537969,29.7808036 16.9427448,30.2654909 C21.2695952,37.5234419 24.7541651,36.2373486 28.9874313,41.5713723 L42.18706,52.9486611 L47.0405574,47.9355086 C49.4068918,56.8871638 52.1158574,63.7503361 55.1674542,68.5250255 Z" id="Shadow-Arm" fill="#8C2A00" fill-rule="nonzero" opacity="0.2"></path>
                            <polygon id="Shadow" fill="#482D1F" fill-rule="nonzero" transform="translate(66.517179, 24.262955) rotate(4.000000) translate(-66.517179, -24.262955) " points="65.1362243 25.9659576 68.1593098 22.559952 64.8750477 23.6512738"></polygon>
                            <path d="M78.4873705,14.2195862 C78.1265493,15.5312152 78.2300903,16.535095 78.7979935,17.2312257 C81.6451995,20.721306 82.9388075,21.2314533 82.2268188,22.5088759 C81.4136335,23.9678615 78.3838429,24.3520702 73.1374469,23.6615021 C69.6416055,21.2949071 70.4262931,17.0264262 70.4309143,16.6543137 C70.4294602,16.6511627 70.4280056,16.6480109 70.4265503,16.6448585 C70.7911525,16.5873494 71.9272192,16.500228 72.8684458,15.6553628 C73.8090876,14.8368013 74.4329132,13.4156695 74.0657574,11.9528052 C73.7497071,10.5487938 72.5097277,9.32884573 71.1890596,9.26403465 C70.4453433,9.23961109 69.8159425,9.55484276 69.7296785,9.60407964 C68.7239054,10.1693421 68.2228459,11.0186751 68.2228459,11.0186751 L67.9084128,11.6139661 C67.821041,11.4558513 67.7379249,11.3082101 67.6599199,11.1727336 C65.8865978,8.89285406 64.1113547,6.64047778 62.3105587,4.35867502 C59.1266937,3.38958035 56.1341182,3.45647286 55.6587997,3.14682236 C55.8703286,2.88525225 56.0818574,2.62368213 56.289544,2.41711854 C57.0928164,1.58894096 58.0161677,1.01790882 58.9535449,0.641322733 C61.1579859,-0.0887708569 63.5814521,-0.00203768387 64.9142249,0.28472271 C65.104621,0.325688481 65.7032832,0.450509008 66.5472893,0.620141736 C66.7926332,0.664953938 67.0379771,0.709766139 67.3382687,0.758424772 C68.0487477,0.863434898 68.5943833,0.956905732 68.9221488,1.00748758 C73.0789693,1.57484895 74.7325889,1.2207632 76.7399161,2.5220646 C77.1091813,2.76901571 77.9518439,3.35312059 78.6263984,4.36766159 C80.5734037,7.32300516 79.6975166,10.7716855 79.459669,11.8052702 C79.2219041,12.7297826 78.8745249,13.5307151 78.4873705,14.2195862 Z M53.6390952,9.55273364 C53.372451,9.46440392 53.3033851,9.12258496 53.5182298,8.95455046 C53.7911022,8.76587103 54.2347017,8.5426217 54.7847721,8.58245657 C55.9122485,8.6654863 57.0618012,9.47344382 55.8120409,9.70871313 C55.0130774,9.8882826 54.1484042,9.69866819 53.6390952,9.55273364 Z M58.9422205,10.2045716 C58.6755763,10.1162418 58.6065103,9.77442288 58.8486907,9.60974838 C59.1215632,9.42106895 59.5651627,9.19781962 60.1425687,9.24101448 C61.2700451,9.3240442 62.4162415,10.1593666 61.1698376,10.367271 C60.3435383,10.5434805 59.4788652,10.3538661 58.9422205,10.2045716 Z" id="Hair" fill="#482D1F" fill-rule="nonzero"></path>
                            <path d="M9.52092528,15.2247455 L9.52092528,15.2247455 C10.2921174,14.811121 11.1183511,14.8386145 11.3661785,15.3072849 L23.1518496,36.5076738 C23.399677,36.9763442 23.0140337,37.6932052 22.242839,38.1343999 L22.242839,38.1343999 C21.4716468,38.5480245 20.6454132,38.520531 20.3975858,38.0518606 L8.61191463,16.8514716 C8.33654857,16.3552336 8.74973313,15.6383701 9.52092528,15.2247455 Z" id="Phone" fill="#474961" fill-rule="nonzero" transform="translate(15.876502, 26.679573) rotate(-5.000000) translate(-15.876502, -26.679573) "></path>
                            <path d="M55.4308296,11.9118314 C55.4284421,12.383755 55.41647,13.1600526 55.1028362,13.4548317 C54.6870569,13.9037204 53.9940448,12.5407745 54.2927995,11.6886171 C54.4217962,11.3155883 54.6265717,11.2296485 54.8452573,11.2565284 C55.1732856,11.2968483 55.416435,11.5767325 55.4308296,11.9118314 Z M60.3167221,12.34572 C60.3416704,12.8210036 60.3023625,13.5939412 59.9887287,13.8887203 C59.5729494,14.337609 58.8799373,12.9746631 59.178692,12.1225057 C59.3076887,11.7494769 59.5124642,11.6635371 59.7311498,11.690417 C60.0591782,11.7307369 60.3023275,12.010621 60.3167221,12.34572 Z" id="Eyes" fill="#482D1F" fill-rule="nonzero"></path>
                            <path d="M58.3146538,17.6430879 C58.5074366,17.5879728 58.9756194,17.4226135 59.0582045,17.1193543 C59.0581974,17.0642143 59.0857281,16.981508 59.0581796,16.9263644 C58.9479925,16.7609303 58.5899647,16.8435939 58.0942263,16.8986698 C57.2129115,16.9812658 56.4968239,16.8984633 56.4968239,16.8984633 C56.4968239,16.8984633 56.7172265,17.4498915 56.8549514,17.5877592 C57.1304226,18.0289146 58.0117089,17.7257587 58.3146538,17.6430879 Z" id="Mouth" fill="#482D1F" fill-rule="nonzero" transform="translate(57.783626, 17.325112) rotate(7.000000) translate(-57.783626, -17.325112) "></path>
                            <path d="M56.3870676,15.309127 L56.3853518,15.3398545 C56.3853518,15.6407452 56.5910416,15.920194 56.8908944,15.9702229 C56.9459157,15.975539 56.9766419,15.9777225 57.0074185,15.9797268 C57.2987023,15.9986962 57.5078028,16.0015446 58.2581387,16.0015446 C58.4102434,16.0015446 58.5335485,15.8781076 58.5335485,15.7258404 C58.5335485,15.5735731 58.4102434,15.4501362 58.2581387,15.4501362 C57.5210702,15.4501362 57.3178246,15.4473675 57.0431758,15.4294815 C57.0145633,15.4276181 56.986,15.4255883 56.9572945,15.4233778 C56.9634871,15.423408 56.940432,15.3914107 56.9366804,15.3507236 L57.2649475,12.4205467 L57.2665052,12.3804787 L57.2114232,10.7538238 C57.2062701,10.601644 57.0788583,10.4824597 56.9268409,10.4876184 C56.7748236,10.492777 56.6557666,10.620325 56.6609198,10.7725049 L56.7153214,12.3790689 L56.3870676,15.309127 Z" id="Nose" fill="#482D1F" fill-rule="nonzero" transform="translate(57.459450, 13.244499) rotate(7.000000) translate(-57.459450, -13.244499) "></path>
                            <path d="M25.8885246,19.1828165 L25.8885246,19.2992958 C25.8424001,19.2800209 25.7964985,19.2607246 25.7508197,19.2414067 C25.7051409,19.2607246 25.6592392,19.2800209 25.6131148,19.2992958 L25.6131148,19.1828165 C20.0113441,16.7848469 17.827734,14.0572502 19.0622844,11.0000263 C20.299322,7.93664336 22.5288338,7.4524086 25.7508197,9.54732201 C28.9728056,7.4524086 31.2023173,7.93664336 32.4393549,11.0000263 C33.6739054,14.0572502 31.4902953,16.7848469 25.8885246,19.1828165 Z" id="Heart" fill="#E50229" fill-rule="nonzero"></path>
                            <path d="M72.4067486,43.8174875 C72.1341166,39.8857872 72.7846315,36.9540542 74.335503,35.0093285 C74.4778497,34.8308319 74.4486989,34.5706137 74.2703929,34.4281148 C74.0920869,34.285616 73.8321466,34.3147979 73.6897999,34.4932945 C71.9916117,36.622749 71.2967761,39.7542258 71.5825026,43.8747646 C71.5983024,44.1026172 71.7956244,44.2745063 72.0232336,44.2586896 C72.2508429,44.242873 72.4225484,44.0453401 72.4067486,43.8174875 Z" id="Shadow" fill="#482D1F" fill-rule="nonzero"></path>
                        </g>
                    </g>
                </g>
            </g>
        </g>
    </g>
</svg>