<?xml version="1.0" encoding="UTF-8"?>
<svg width="278px" height="207px" viewBox="0 0 278 207" version="1.1" xmlns="http://www.w3.org/2000/svg" xmlns:xlink="http://www.w3.org/1999/xlink">
    <!-- Generator: Sketch 56.2 (81672) - https://sketch.com -->
    <title>Escritorio</title>
    <desc>Created with Sketch.</desc>
    <defs>
        <polygon id="path-1" points="0 3.64933778e-14 1200 3.64933778e-14 1200 218 3.30464822e-14 218"></polygon>
        <filter x="-1.6%" y="-8.9%" width="103.9%" height="121.6%" filterUnits="objectBoundingBox" id="filter-3">
            <feMorphology radius="0.5" operator="dilate" in="SourceAlpha" result="shadowSpreadOuter1"></feMorphology>
            <feOffset dx="4" dy="4" in="shadowSpreadOuter1" result="shadowOffsetOuter1"></feOffset>
            <feGaussianBlur stdDeviation="7" in="shadowOffsetOuter1" result="shadowBlurOuter1"></feGaussianBlur>
            <feComposite in="shadowBlurOuter1" in2="SourceAlpha" operator="out" result="shadowBlurOuter1"></feComposite>
            <feColorMatrix values="0 0 0 0 0.714022871   0 0 0 0 0.714022871   0 0 0 0 0.714022871  0 0 0 0.5 0" type="matrix" in="shadowBlurOuter1"></feColorMatrix>
        </filter>
    </defs>
    <g id="Page-1" stroke="none" stroke-width="1" fill="none" fill-rule="evenodd">
        <g id="Escritorio" transform="translate(-84.000000, -110.000000)">
            <g id="banner-registro" transform="translate(83.000000, 100.000000)">
                <mask id="mask-2" fill="white">
                    <use xlink:href="#path-1"></use>
                </mask>
                <g id="Rectangle">
                    <use fill="black" fill-opacity="1" filter="url(#filter-3)" xlink:href="#path-1"></use>
                    <use stroke="#E0DED9" stroke-width="1" fill="#FFFFFF" fill-rule="evenodd" xlink:href="#path-1"></use>
                </g>
                <g id="ilustración" mask="url(#mask-2)">
                    <g transform="translate(-83.000000, 18.000000)">
                        <g id="-------------------" fill="none" transform="translate(0.000000, 42.000000)" fill-rule="evenodd" stroke-width="1">
                            <g id="Woman" transform="translate(-0.211809, 14.298619)">
                                <path d="M64.3695606,412.735123 L109.349283,412.735123 C110.444535,412.735123 111.332412,413.623001 111.332412,414.718252 C111.332412,415.813504 110.444535,416.701381 109.349283,416.701381 L64.3695606,416.701381 C63.2743088,416.701381 62.3864318,415.813504 62.3864318,414.718252 C62.3864318,413.623001 63.2743088,412.735123 64.3695606,412.735123 Z M203.711269,412.735123 L278.675916,412.735123 C279.771168,412.735123 280.659045,413.623001 280.659045,414.718252 C280.659045,415.813504 279.771168,416.701381 278.675916,416.701381 L203.711269,416.701381 C202.616017,416.701381 201.72814,415.813504 201.72814,414.718252 C201.72814,413.623001 202.616017,412.735123 203.711269,412.735123 Z" id="Base" fill="#FFB81E" fill-rule="nonzero"></path>
                                <path d="M278.901422,412.747804 C278.827411,412.739427 278.752166,412.735123 278.675916,412.735123 L203.711269,412.735123 C203.582625,412.735123 203.456843,412.747373 203.335023,412.770768 L206.876907,384.534928 L240.03705,384.534928 L247.930141,390.352106 C249.738055,392.158957 251.722352,393.78953 253.838935,395.243824 C258.998105,398.681247 261.68793,398.637178 269.536925,402.427157 C271.653508,403.440757 273.681899,404.542495 275.710291,405.820511 C276.680392,406.701902 278.400116,408.464683 278.929261,410.58002 C279.017452,410.932577 279.017452,411.285133 279.061548,411.59362 C279.061548,412.005006 279.000916,412.391144 278.901422,412.747804 Z M109.91419,412.816742 C109.735157,412.763635 109.54555,412.735123 109.349283,412.735123 L64.3695606,412.735123 C64.2529396,412.735123 64.1386697,412.74519 64.0275725,412.764501 L74.67901,385.439148 L106.251372,389.713893 L109.91419,412.816742 Z" id="Shoes" fill="#474961" fill-rule="nonzero"></path>
                                <path d="M95.5079093,267.850183 C95.318603,267.809188 95.1291153,267.76803 94.9394459,267.726711 C105.125547,208.358212 112.891193,172.780055 118.236385,160.992239 C123.581576,149.204423 129.881183,140.857091 137.135206,135.950242 C144.057335,128.067839 156.265972,128.507128 173.154756,128.012798 C173.583766,127.99293 174.070976,127.997422 174.499975,127.976937 C191.961783,127.682241 189.057626,128.349202 193.667863,129.774776 C215.790627,135.680237 234.142566,172.975461 248.723682,241.660446 L253.357944,264.158299 C253.292154,263.974056 253.224053,263.792671 253.153642,263.614144 C253.279695,264.195399 253.340928,264.785093 253.337342,265.383225 C253.804092,274.995287 246.339851,282.528542 230.944618,287.982991 C221.538934,291.315375 203.13033,300.486809 172.865782,303.379821 C160.017453,304.608004 136.040159,304.341613 100.933899,302.580648 C95.1323175,292.840788 92.6497526,285.044222 93.4862044,279.19095 C93.9445991,275.983224 94.6185008,272.202968 95.5079093,267.850183 Z" id="Skirt" fill="#007E95" fill-rule="nonzero"></path>
                                <path d="M95.4843177,267.965754 C147.058137,279.146177 185.166717,278.282655 209.810059,265.375188 C233.972351,252.71968 248.410951,252.091502 253.125857,263.490654 C253.270688,264.111834 253.341182,264.742691 253.337342,265.383225 C253.804092,274.995287 246.339851,282.528542 230.944618,287.982991 C221.538934,291.315375 203.13033,300.486809 172.865782,303.379821 C160.017453,304.608004 136.040159,304.341613 100.933899,302.580648 C95.1323175,292.840788 92.6497526,285.044222 93.4862044,279.19095 C93.9405374,276.011646 94.6065752,272.269914 95.4843177,267.965754 Z" id="Shadow-Skirt" fill="#444444" fill-rule="nonzero" opacity="0.176985679"></path>
                                <path d="M142.433598,93.8349854 C137.49673,93.0752838 133.536396,92.2652872 130.552597,91.4049955 C128.107281,91.0615311 124.369679,90.0915281 122.903906,87.215491 C120.768033,83.0882643 124.677707,77.4515448 129.041039,71.1220006 C134.293276,63.5377289 137.511061,60.8021403 142.572889,57.2242267 C151.190246,51.133116 156.511764,50.896858 160.372237,54.8158267 C160.760741,55.2102173 161.147423,55.8627885 161.532284,56.7735402 C162.63314,56.6133309 163.759259,56.5382709 164.904107,56.5548532 L174.605112,56.7311313 C186.90775,56.8633399 196.696946,67.3959575 196.520564,80.1320515 L196.520564,80.9253031 L196.255991,105.472031 C195.959952,119.771332 184.28341,131.208636 169.981045,131.208636 L168.870842,131.208636 C168.772534,131.208636 168.674227,131.208091 168.575926,131.206999 C153.910493,131.044121 142.15385,119.023401 142.316727,104.357969 L142.433598,93.8349854 Z" id="T-shirt" fill="#FFB81E" fill-rule="nonzero"></path>
                                <path d="M3.08844171,106.724002 C3.08861158,101.20398 7.57187428,96.7289797 13.0981657,96.7288097 L335.259686,96.7189018 C340.787734,96.7187318 345.268965,101.190376 345.268795,106.713478 L345.26583,203.067456 C345.26566,208.587478 340.782397,213.062478 335.256106,213.062648 L13.0945855,213.072556 C7.56653746,213.072726 3.08530668,208.601082 3.08547664,203.077979 L3.08844171,106.724002 Z" id="Placeholder" fill="#EFECE7" fill-rule="nonzero" transform="translate(174.177136, 154.895729) rotate(3.000000) translate(-174.177136, -154.895729) "></path>
                                <path d="M21.4367457,131.738536 C21.4368136,129.533521 23.2347419,127.745948 25.4294502,127.74588 L229.102237,127.739616 C231.307279,127.739549 233.094764,129.534224 233.094696,131.732026 L233.094182,148.425937 C233.094114,150.630952 231.296186,152.418525 229.101478,152.418593 L25.4286908,152.424857 C23.2236488,152.424925 21.4361644,150.630249 21.436232,148.432447 L21.4367457,131.738536 Z" id="Input-Field" fill="#FFFFFF" transform="translate(127.265464, 140.082237) rotate(3.000000) translate(-127.265464, -140.082237) "></path>
                                <path d="M178.105734,50.6351147 L177.591465,57.1781266 C177.524342,58.0321272 176.920804,58.748554 176.090598,58.9596955 C174.451669,59.3765606 172.852203,59.5153578 171.292201,59.3760869 C169.593567,59.2244395 167.168528,58.657778 164.017085,57.6761025 C163.029042,57.3683268 162.438966,56.3576495 162.656637,55.3459309 L165.365039,42.75722 L165.536415,42.805791 C163.932708,39.5682793 162.917039,37.7570303 162.489408,37.3720439 C160.862469,35.8147627 159.57771,26.2016291 166.828362,26.7810779 C167.626951,26.7858168 168.404732,27.0143027 169.152487,27.3788795 L169.200951,27.4181011 C169.443266,27.6142091 169.754853,27.6257916 170.06644,27.637374 C170.811956,27.5590632 171.3706,26.9686346 171.336097,26.2189501 L170.527773,14.7383542 C170.449416,13.9932763 170.964206,13.4074542 171.709723,13.3291433 C173.332318,13.1587021 174.90184,12.9052111 176.487561,12.384145 C176.706831,12.3611124 176.877637,12.2988582 177.053053,12.2804321 C178.613357,11.9392849 187.021852,10.5242892 192.24178,16.3126311 C192.700995,16.884766 193.160209,17.4569009 193.531716,18.0382488 C194.487019,19.5331435 195.022219,21.2494158 195.084245,23.1040161 L195.440733,31.1314042 C195.435991,31.9295233 195.431249,32.7276423 195.343409,33.5788025 C194.275498,43.6612408 190.521439,50.9682913 186.773048,51.5835926 C184.848085,51.8301076 182.895466,51.8136539 180.949828,51.4419689 C180.702733,51.3493186 180.861644,51.4256595 178.105734,50.6351147 Z M139.743218,274.906445 L106.251372,389.713893 L74.67901,385.439148 L94.9394459,267.726711 L95.0396391,267.732778 C95.0321224,267.776577 95.0246044,267.82039 95.0170851,267.864216 C111.256676,271.402026 126.165389,273.749436 139.743225,274.906446 Z M198.678454,270.084665 C202.65245,268.750491 206.362985,267.180665 209.810059,265.375188 C233.543457,252.944322 247.8953,252.117593 252.865589,262.894999 C255.707903,271.948844 256.520847,280.210827 255.30442,287.680947 C251.652764,310.105911 246.56364,342.390571 240.03705,384.534928 L206.876907,384.534928 L207.450642,289.918853 L198.678454,270.084665 Z M124.560665,89.0549988 C126.341503,90.516521 128.861419,91.1145722 130.672482,91.3689507 C136.15795,92.9505256 144.943886,94.3621144 157.030291,95.6037173 L150.770393,120.132079 L190.48049,134.341004 C190.669154,134.38129 191.548122,134.731698 193.117395,135.392226 C210.425236,140.312515 221.949096,144.770873 227.688975,148.7673 C233.601958,152.884316 230.036135,158.694877 185.732543,155.380097 L185.719884,155.403249 C185.368364,155.369019 185.018278,155.334408 184.669626,155.299416 C183.690485,155.224044 182.691907,155.144301 181.673561,155.060077 C181.674624,155.035331 181.675685,155.010582 181.676743,154.98583 C149.511817,151.470268 130.147578,144.550368 123.584024,134.226132 C117.529772,124.703008 117.855319,109.645964 124.560664,89.0550008 Z M223.917122,99.3103907 C234.532177,88.3974885 244.247591,86.6420648 253.063364,94.0441195 C261.879137,101.446174 252.163723,103.201598 223.917122,99.3103907 Z" id="Skin" fill="#ED9474" fill-rule="nonzero"></path>
                                <path d="M153.136015,32.6358366 C151.799262,33.1648596 150.477413,33.3683639 149.170469,33.2463495 C140.522612,32.4389976 134.661111,24.84591 132.346099,17.4236313 C130.031086,10.0013526 134.098387,6.19351471 140.60561,2.04058303 C147.112833,-2.11234864 154.561988,0.848604473 160.772022,4.05870604 C164.401688,5.93495905 166.530997,9.18948341 167.159949,13.8222791 C168.142147,13.7333518 169.226374,13.6210765 170.437959,13.4627324 C171.841284,13.3153238 173.406003,12.9344384 176.009582,12.3950785 C176.228852,12.3720459 177.462771,12.0674899 177.638187,12.0490639 C179.198491,11.7079167 187.070316,10.5635108 192.290243,16.3518527 C192.260217,16.4879436 190.910464,16.3518527 186.960154,18.9732147 C182.461106,21.9587107 178.028092,35.0431466 174.060564,34.8395333 C174.017067,34.8386797 173.927747,34.882527 173.792603,34.9710753 L173.968247,34.8049183 L171.538639,29.8312814 C170.989478,28.8254719 170.156386,28.0710486 169.20556,27.4619292 C168.457805,27.0973524 167.680024,26.8688665 166.881435,26.8641276 C164.75801,26.9099282 162.648147,28.7711074 161.996921,31.0108153 C161.389549,33.2459166 162.037742,35.6150041 163.74778,37.1192442 C164.827797,38.1136035 166.221772,38.7204858 167.696607,38.8314393 L169.489565,38.6088518 C169.41713,38.6735987 169.343841,38.7391797 169.269696,38.8055948 C166.212608,43.6251257 164.684064,46.0348912 164.684064,46.0348912 C164.684064,46.0348912 163.360187,45.678659 160.712434,44.9661947 C157.458487,43.8404 154.933014,39.7302806 153.136015,32.6358366 Z M189.013041,29.4580336 C188.159009,29.7693046 186.778729,30.1358538 185.518555,29.9580396 C183.411329,29.7362649 185.211842,28.3063909 187.088342,28.0206543 C187.960812,27.8846958 188.699348,28.1616163 189.174761,28.466176 C189.514003,28.7407272 189.442362,29.3243122 189.013041,29.4580336 Z M196.44977,28.4996127 C195.604956,28.8985399 194.282359,29.391967 192.992158,29.3502436 C190.811051,29.2691663 192.505421,27.6731929 194.324239,27.2605784 C195.275197,27.0277507 195.965271,27.2654496 196.479929,27.5215747 C196.902269,27.7430847 196.874481,28.3220632 196.44977,28.4996127 Z" id="Hair" fill="#482D1F" fill-rule="nonzero"></path>
                                <path d="M186.554056,35.1667413 C186.060206,34.6868692 186.106563,33.4412559 186.159768,32.6823585 C186.143702,32.1079865 186.633078,31.7021129 187.115468,31.6514116 C187.427055,31.6629941 187.840177,31.7968479 187.992414,32.4012284 C188.451496,33.8153105 187.216342,35.9834188 186.554056,35.1667413 Z M193.785343,34.3628374 C193.379201,33.8737522 193.33785,32.637352 193.391055,31.8784545 C193.374989,31.3040826 193.864365,30.8982089 194.346755,30.8475077 C194.658342,30.8590902 195.071464,30.9929439 195.223701,31.5973245 C195.682783,33.0114065 194.403775,35.1841214 193.785343,34.3628374 Z" id="Eyes" fill="#482D1F" fill-rule="nonzero"></path>
                                <path d="M193.406521,31.2762108 C193.439243,31.0350286 193.270137,30.813001 193.028813,30.7802983 C192.787489,30.7475956 192.56533,30.9166017 192.532609,31.157784 L192.179845,33.7578862 L192.175865,33.8129812 L192.132193,38.4832252 C192.11549,38.5354931 192.073914,38.5701216 192.016449,38.5757878 C191.490132,38.5175027 190.813416,38.4464806 189.986083,38.362694 C189.743791,38.3381564 189.527471,38.5145655 189.502919,38.7567147 C189.478367,38.998864 189.65488,39.2150564 189.897172,39.239594 C190.738617,39.3248097 191.423227,39.3967227 191.950769,39.455304 L191.999464,39.4579994 C192.514481,39.4579994 192.926439,39.0920299 193.007661,38.6049892 L193.013641,38.5366578 L193.057478,33.8488905 L193.406521,31.2762108 Z" id="Path" fill="#482D1F" fill-rule="nonzero" transform="translate(191.455605, 35.117125) rotate(-6.000000) translate(-191.455605, -35.117125) "></path>
                                <path d="M190.288903,42.9481668 C189.980234,42.9040781 189.186509,42.7277503 189.010099,42.2429715 C189.010094,42.1548319 188.921895,42.0226171 188.965985,41.9344801 C189.098257,41.7141392 190.465208,41.7142228 190.465208,41.7142228 C192.273114,41.7584032 192.71406,41.6702905 192.846359,41.8906477 C192.890463,42.0228598 192.890473,42.1991391 192.581831,42.5957485 C192.18502,43.3449111 190.773955,43.0363361 190.288903,42.9481668 Z" id="Path" fill="#482D1F" fill-rule="nonzero" transform="translate(190.910440, 42.400199) rotate(-6.000000) translate(-190.910440, -42.400199) "></path>
                                <path d="M262.849584,136.231191 L315.779283,136.229564 C322.593984,136.229354 328.118561,141.753591 328.118771,148.568293 C328.118771,148.568419 328.118771,148.568546 328.118771,148.568672 C328.118771,155.383645 322.594255,160.90833 315.779283,160.90854 L262.849584,160.910168 C256.034883,160.910377 250.510306,155.38614 250.510096,148.571439 C250.510096,148.571312 250.510096,148.571186 250.510096,148.571059 C250.510096,141.756087 256.034612,136.231401 262.849584,136.231191 Z" id="Button" fill="#FE8102" fill-rule="nonzero" transform="translate(289.314434, 148.569866) rotate(3.000000) translate(-289.314434, -148.569866) "></path>
                                <rect id="Title" fill="#F2F6FB" fill-rule="nonzero" transform="translate(131.402205, 180.805356) rotate(3.000000) translate(-131.402205, -180.805356) " x="66.8023308" y="173.754231" width="129.199749" height="14.1022495" rx="2"></rect>
                                <rect id="Title" fill="#F2F6FB" fill-rule="nonzero" transform="translate(241.309223, 186.876287) rotate(3.000000) translate(-241.309223, -186.876287) " x="204.269022" y="179.825162" width="74.080402" height="14.1022495" rx="2"></rect>
                                <path d="M214.811294,149.913052 C214.89365,149.557367 215.248922,149.33575 215.604816,149.418058 C215.96071,149.500365 216.182457,149.855428 216.100102,150.211113 C215.582835,152.445129 215.125509,154.168306 214.064726,157.994817 C213.008926,161.803352 212.554945,163.513926 212.043318,165.723587 C211.960962,166.079272 211.60569,166.300889 211.249796,166.218581 C210.893901,166.136274 210.672154,165.781211 210.75451,165.425526 C211.271777,163.19151 211.729102,161.468333 212.789886,157.641822 C213.845685,153.833287 214.299666,152.122713 214.811294,149.913052 Z M222.463453,147.232436 C222.567685,146.882529 222.936004,146.683321 223.286117,146.787491 C223.63623,146.891662 223.835556,147.259765 223.731324,147.609671 C223.017304,150.006634 222.505925,151.876923 221.39972,156.051629 C220.290127,160.239116 219.776286,162.118409 219.057203,164.532371 C218.952971,164.882277 218.584652,165.081486 218.234539,164.977315 C217.884426,164.873144 217.685101,164.505042 217.789333,164.155135 C218.503352,161.758173 219.014731,159.887883 220.120937,155.713178 C221.230529,151.52569 221.74437,149.646397 222.463453,147.232436 Z" id="Fingers" fill="#482D1F" fill-rule="nonzero" transform="translate(217.248164, 156.497792) scale(-1, 1) rotate(-125.000000) translate(-217.248164, -156.497792) "></path>
                                <path d="M163.104183,94.3466216 C166.429939,85.279897 168.361964,78.7779927 168.902399,74.8110114 C168.951681,74.4492651 168.698206,74.1160843 168.336247,74.0668313 C167.974287,74.0175784 167.640911,74.2709043 167.591629,74.6326507 C167.067572,78.4794035 165.157031,84.9090084 161.862148,93.8915679 C161.736414,94.2343447 161.912526,94.6140875 162.255505,94.7397471 C162.598483,94.8654067 162.97845,94.6893984 163.104183,94.3466216 Z" id="Shadow" fill="#482D1F" fill-rule="nonzero"></path>
                            </g>
                        </g>
                        <path d="M275,114.577521 L275,115 C274.832524,114.930089 274.665858,114.860099 274.5,114.790032 C274.334142,114.860099 274.167476,114.930089 274,115 L274,114.577521 C253.660237,105.879904 245.731653,95.9867055 250.214247,84.8979242 C254.705872,73.7868035 262.801123,72.0304475 274.5,79.6288563 C286.198877,72.0304475 294.294128,73.7868035 298.785753,84.8979242 C303.268347,95.9867055 295.339763,105.879904 275,114.577521 Z" id="Heart" fill="#E50229" fill-rule="nonzero" transform="translate(274.500000, 95.000000) rotate(14.000000) translate(-274.500000, -95.000000) "></path>
                        <path d="M233.859899,28.8315386 L233.859899,29.8589706 C220.888102,24.3593924 215.803845,18.0881266 218.607128,11.0451733 C221.31815,4.23401671 226.162475,3.04729444 233.140101,7.48500647 L233.140101,7.23967909 C240.505331,2.25509435 245.589588,3.28427866 248.392872,10.327232 C251.143708,17.2384164 246.299384,23.4065186 233.859899,28.8315386 Z" id="Heart-Copy" fill="#E50229" fill-rule="nonzero" transform="translate(233.500000, 17.000000) rotate(-15.000000) translate(-233.500000, -17.000000) "></path>
                        <path d="M288.748068,30.404484 L288.748068,31.9136126 C280.640695,28.3938825 277.463034,24.3802724 279.215086,19.8727822 C280.781652,15.8424909 283.487952,14.8892175 287.333987,17.0129621 C291.892982,13.8873673 295.043291,14.564899 296.784914,19.0455571 C298.424827,23.2645484 295.745878,27.0508574 288.748068,30.404484 Z" id="Heart-Copy-2" fill="#E50229" fill-rule="nonzero" transform="translate(288.000000, 23.500000) rotate(4.000000) translate(-288.000000, -23.500000) "></path>
                    </g>
                </g>
            </g>
        </g>
    </g>
</svg>