<?xml version="1.0" encoding="UTF-8"?>
<svg width="278px" height="207px" viewBox="0 0 278 207" version="1.1" xmlns="http://www.w3.org/2000/svg" xmlns:xlink="http://www.w3.org/1999/xlink">
    <!-- Generator: Sketch 56.2 (81672) - https://sketch.com -->
    <title>Escritorio</title>
    <desc>Created with Sketch.</desc>
    <defs>
        <polygon id="path-1" points="0 3.64933778e-14 1200 3.64933778e-14 1200 218 3.30464822e-14 218"></polygon>
        <filter x="-1.6%" y="-8.9%" width="103.9%" height="121.6%" filterUnits="objectBoundingBox" id="filter-3">
            <feMorphology radius="0.5" operator="dilate" in="SourceAlpha" result="shadowSpreadOuter1"></feMorphology>
            <feOffset dx="4" dy="4" in="shadowSpreadOuter1" result="shadowOffsetOuter1"></feOffset>
            <feGaussianBlur stdDeviation="7" in="shadowOffsetOuter1" result="shadowBlurOuter1"></feGaussianBlur>
            <feComposite in="shadowBlurOuter1" in2="SourceAlpha" operator="out" result="shadowBlurOuter1"></feComposite>
            <feColorMatrix values="0 0 0 0 0.714022871   0 0 0 0 0.714022871   0 0 0 0 0.714022871  0 0 0 0.5 0" type="matrix" in="shadowBlurOuter1"></feColorMatrix>
        </filter>
    </defs>
    <g id="Page-1" stroke="none" stroke-width="1" fill="none" fill-rule="evenodd">
        <g id="Escritorio" transform="translate(-1004.000000, -110.000000)">
            <g id="banner-registro" transform="translate(83.000000, 100.000000)">
                <mask id="mask-2" fill="white">
                    <use xlink:href="#path-1"></use>
                </mask>
                <g id="Rectangle">
                    <use fill="black" fill-opacity="1" filter="url(#filter-3)" xlink:href="#path-1"></use>
                    <use stroke="#E0DED9" stroke-width="1" fill="#FFFFFF" fill-rule="evenodd" xlink:href="#path-1"></use>
                </g>
                <g id="Characters-standing-/-Woman-standing-/-4" mask="url(#mask-2)">
                    <g transform="translate(767.000000, -12.000000)" id="Woman">
                        <g transform="translate(161.889764, 32.151003)">
                            <path d="M105.509603,559.17529 C107.076354,559.17529 108.346457,560.445393 108.346457,562.012144 C108.346457,563.578894 107.076354,564.848997 105.509603,564.848997 L2.83685322,564.848997 C1.27010245,564.848997 0,563.578894 0,562.012144 C0,560.445393 1.27010245,559.17529 2.83685322,559.17529 L105.509603,559.17529 Z M305.826772,564.848997 L241.259843,564.848997 C239.748031,564.848997 238.425197,563.757899 238.425197,562.448583 L238.425197,561.575705 C238.425197,560.266388 239.685039,559.17529 241.259843,559.17529 L305.826772,559.17529 C307.338583,559.17529 308.661417,560.266388 308.661417,561.575705 L308.661417,562.448583 C308.661417,563.757899 307.401575,564.848997 305.826772,564.848997 Z" id="Base" fill="#3ABF7C" fill-rule="nonzero"></path>
                            <path d="M105.843009,559.194675 C105.733653,559.181873 105.622397,559.17529 105.509603,559.17529 L3.28076548,559.17529 C3.21302903,558.830079 3.17867804,558.395064 3.18851023,557.831778 C3.25918832,557.391657 3.26798323,556.887405 3.40274321,556.385352 C4.21130307,553.373039 5.1912207,551.372532 8.0573162,549.594126 C10.9234117,547.81572 13.8491916,546.227509 16.8976386,544.830593 C28.1411914,539.541585 31.9831259,539.608698 39.3759493,534.756829 C42.4353899,532.729597 45.2483971,530.382807 47.8757549,527.843621 C49.6273267,526.15083 53.4133952,523.400699 59.2339604,519.593228 L106.227547,519.593228 L105.843009,559.194675 Z M306.170836,559.194158 C306.057601,559.181711 305.942742,559.17529 305.826772,559.17529 L241.476458,559.17529 L246.568166,527.015935 L291.670528,520.90094 L306.170836,559.194158 Z" id="Shoes" fill="#474961" fill-rule="nonzero"></path>
                            <path d="M173.166935,310.222113 C158.837669,357.663565 149.890654,390.377844 134.799132,439.905017 C131.67632,448.766834 130.524312,455.487645 131.343109,460.067449 C132.571304,466.937157 138.627245,479.254663 141.578466,492.686495 C144.529686,506.118327 114.263986,491.380126 88.5264302,486.433828 C62.7888745,481.487529 36.2767684,476.439882 36.9654975,472.581752 C38.6325832,463.410267 64.7770612,451.416372 66.844348,439.905017 C68.9116349,428.393661 70.4771466,415.858449 70.7658551,413.79543 C84.0090941,335.065861 96.4363638,274.572222 103.170668,241.668174 C106.011654,227.558221 111.46918,200.918504 131.343109,173.648648 C132.636059,171.923691 133.683676,170.581324 134.299209,169.750911 C136.1255,167.817662 138.170215,166.360061 140.260015,165.263471 C140.213433,164.874455 140.166965,164.486464 140.120604,164.099558 C145.158376,160.354677 148.576206,157.646886 168.961642,156.093092 C169.465503,156.084297 170.031245,156.011371 170.535106,156.002576 C190.299518,154.964029 207.077523,162.181723 219.734889,177.74996 C227.812806,189.78268 234.142361,204.582887 238.723555,222.150582 C242.929194,238.278121 258.954997,310.583245 286.800964,439.065953 C288.05117,442.758844 289.262569,445.469887 290.435162,447.199083 C294.351955,452.975085 305.909085,460.855448 314.069614,471.925252 C322.230142,482.995056 288.583805,481.839465 263.057877,487.787352 C237.531949,493.735238 211.257165,499.905517 210.316828,496.101054 C208.567597,488.926906 220.131788,473.887958 223.624302,462.301537 C213.026459,433.452727 202.617253,403.483071 192.521815,372.513499 C185.662471,351.410146 179.221656,330.635147 173.166935,310.222113 Z" id="Legs" fill="#013C5C" fill-rule="nonzero"></path>
                            <path d="M172.974981,310.364542 C158.714377,357.595534 149.775095,390.266069 134.724968,439.657393 C131.602156,448.51921 130.450148,455.240021 131.268945,459.819826 C132.49714,466.689533 138.553082,479.00704 141.504302,492.438872 C144.455522,505.870704 114.189822,491.132502 88.4522664,486.186204 C62.7147106,481.239906 36.2026045,476.192258 36.8913337,472.334129 C38.5584193,463.162643 64.7028973,451.168749 66.7701842,439.657393 C68.8374711,428.146037 70.4029828,415.610825 70.6916913,413.547807 C83.9349303,334.818237 96.3622,274.324598 103.096504,241.42055 C105.93749,227.310597 111.395016,200.670881 131.268945,173.401024 C132.561896,171.676067 133.609512,170.3337 134.225045,169.503287 C136.013495,167.610096 138.01141,166.173046 140.056006,165.084479 C142.394704,184.611535 145.013984,206.794292 148.823055,224.292714 C152.677258,241.998469 157.812032,258.782396 163.159797,276.406321 C166.314173,287.608156 169.583999,298.929533 172.974981,310.364542 Z" id="Shadow-T-shirt" fill="#444444" fill-rule="nonzero" opacity="0.176985679"></path>
                            <path d="M197.331615,67.0358719 C200.800181,68.0410326 204.084602,69.5089875 206.932118,71.3329677 C219.144822,79.1558313 226.335343,94.0658646 220.754134,108.74604 C219.591393,111.804381 215.686864,115.507211 209.040546,119.854529 C208.501326,119.915087 207.966404,119.968238 207.43578,120.01398 L205.345904,142.60222 C205.282912,143.295673 205.21992,143.926085 205.21992,144.619538 C205.156928,147.771597 204.589999,152.436645 201.881337,155.840869 C198.10181,160.631999 192.49551,167.566529 169.06244,167.818693 C143.865589,168.070858 137.818345,161.136328 133.912833,156.219116 C131.204172,152.877933 130.511259,148.843298 130.448266,145.565156 C130.448266,144.871703 130.385274,144.241291 130.322282,143.547838 L128.09829,119.8405 C116.283337,117.860346 114.478987,110.025467 112.529566,103.962578 C108.558055,91.610794 117.041693,77.0872394 127.576022,70.141366 C135.079678,65.1937852 144.283368,63.1165907 152.847316,64.8876925 C156.782484,63.7261927 161.036791,63.073479 165.534881,63.0442479 L169.125432,63.0442479 C180.001611,62.9792649 189.924003,63.935797 197.331615,67.0358719 Z" id="T-shirt" fill="#007E95" fill-rule="nonzero"></path>
                            <path d="M128.075778,119.600526 C116.500771,117.547624 114.709025,109.785572 112.774403,103.768709 C108.802892,91.416925 117.28653,76.8933704 127.820859,69.947497 C135.396493,64.9524568 144.704934,62.883135 153.338422,64.7458543 C140.04856,68.5002032 130.315253,78.0341376 126.983699,89.0172151 C125.975825,92.2953566 125.786849,95.8256629 126.164802,99.2298867 L128.075778,119.600526 Z" id="Shadow-T-shirt" fill="#444444" fill-rule="nonzero" opacity="0.176985679"></path>
                            <path d="M148.473975,53.8268075 C148.308316,53.8683257 148.139962,53.9102101 147.968875,53.9524563 C142.441714,55.335122 142.764695,55.2313344 142.378875,55.3307244 C138.295682,55.9297091 134.924364,55.3778044 134.304765,55.2080538 C129.13749,54.151295 124.243511,43.7607836 123.338236,29.604919 C123.228814,28.4597493 123.307908,27.3277721 123.324164,26.1913975 L124.299225,14.9477066 C124.474989,12.4322019 125.337585,10.0279576 126.743758,7.97772922 C126.887012,7.73497382 127.025872,7.55510602 127.164732,7.37523823 C127.648543,6.77714477 128.132355,6.17905131 128.607379,5.70673309 C130.444635,3.81306265 132.556537,2.50736843 134.700519,1.64628506 C139.742548,-0.0231113177 145.285534,0.175208523 148.333871,0.830900845 C148.769347,0.924571177 150.138616,1.2099797 152.069039,1.59785362 C153.860601,2.16559533 155.602508,2.54027666 157.420436,2.73069266 C158.421461,2.86394077 159.114007,3.79713778 159.043701,4.80333966 L157.290423,20.8585944 C157.247392,21.243378 161.993018,17.6125929 166.904719,18.9123548 C168.488532,19.3314722 170.673405,21.5581981 173.459338,25.5925324 C172.466442,28.6335904 171.946306,30.1974893 171.898932,30.2842292 C169.838698,34.0563698 168.327866,36.4280224 167.366436,37.399187 L166.983923,47.5101534 L167.631434,63.0442479 L165.534881,63.0442479 C159.541724,63.0831948 153.981336,64.2289681 149.03196,66.2102781 L148.473975,53.8268075 Z M284.419953,483.992023 L291.675149,520.912575 L246.691614,527.243795 L241.913783,492.487161 C248.69356,490.994348 256.01249,489.285065 263.27087,487.593764 C270.059271,486.011975 277.421987,484.932578 284.419953,483.992023 Z M70.6896627,482.725082 C76.5017742,483.891048 82.6423323,485.068488 88.7394234,486.24024 C96.7295526,487.7758 105.15609,490.255073 112.88971,492.542244 L106.23622,520.278881 L58.5826772,520.278881 L70.6896627,482.725082 Z M125.78337,156.770188 C118.572761,162.498761 111.257879,165.081888 103.838722,164.519572 C82.4578396,162.89906 60.4558658,141.807783 37.8328002,101.24574 L37.8369045,101.243443 L37.8345207,101.242999 L15.4573256,58.4052693 C21.0419511,53.7360199 26.1998326,53.9176894 30.93097,58.9502779 C35.2900903,64.6775599 37.8000933,68.0953321 38.4609789,69.2035945 C48.3574122,85.7992711 56.3273696,82.8585527 66.0097556,95.0550711 L96.2001326,121.069824 L107.237007,109.673197 C105.847814,104.409941 104.510338,98.8315872 103.22458,92.9381356 C99.8756376,90.6751097 94.713107,86.556654 86.2956078,79.4995942 C85.506228,78.8377943 81.6207891,77.9575686 74.6392912,76.858917 C64.2637661,78.2189936 59.574349,75.2920807 60.57104,68.0781782 L100.510277,65.4631687 C108.37882,64.9479796 115.921322,68.6834219 120.28043,75.2543863 C122.099689,77.996756 123.49746,80.4048294 124.473741,82.4786065 L151.174538,122.544943 L165.062378,99.9942521 C169.12303,107.292123 175.159903,110.595676 183.478648,115.303664 C190.31291,119.171511 198.541398,120.6365 208.16411,119.698632 C189.614012,156.446826 171.417275,175.080363 153.573897,175.599249 C143.230862,175.900025 133.967353,169.623671 125.78337,156.770188 Z" id="Skin" fill="#ED9474" fill-rule="nonzero"></path>
                            <path d="M126.178762,156.686791 C118.93427,162.473683 111.584492,165.08461 104.129428,164.519572 C82.7485455,162.89906 60.7465716,141.807783 38.1235061,101.24574 L38.1276103,101.243443 L38.1252266,101.242999 L15.7480315,58.4052693 C21.332657,53.7360199 26.4905385,53.9176894 31.2216759,58.9502779 C35.5807962,64.6775599 38.0907992,68.0953321 38.7516848,69.2035945 C48.648118,85.7992711 56.6180755,82.8585527 66.3004615,95.0550711 L96.4908384,121.069824 L107.591889,109.60693 C113.003665,130.0759 119.199289,145.769187 126.178762,156.686791 Z" id="Shadow-Arm" fill="#8C2A00" fill-rule="nonzero" opacity="0.2"></path>
                            <polygon id="Shadow" fill="#482D1F" fill-rule="nonzero" transform="translate(152.139083, 55.478486) rotate(4.000000) translate(-152.139083, -55.478486) " points="148.980417 59.3725644 155.895008 51.5844078 148.383157 54.079926"></polygon>
                            <path d="M179.51742,32.5138119 C178.692145,35.5129186 178.928966,37.8083412 180.227882,39.4000798 C186.740051,47.380327 189.69881,48.5468051 188.070339,51.4676973 C186.21041,54.8037425 179.280631,55.6822554 167.281,54.1032359 C159.285262,48.6918954 161.08001,38.9317952 161.09058,38.080941 C161.087254,38.073736 161.083927,38.0665294 161.080599,38.0593212 C161.914522,37.9278237 164.51295,37.7286161 166.665737,35.7967886 C168.817186,33.9251058 170.244008,30.6756151 169.404245,27.330701 C168.68137,24.1203572 165.845272,21.3308834 162.824621,21.1826895 C161.123582,21.1268438 159.684008,21.8476372 159.486704,21.9602198 C157.186285,23.2527214 156.040255,25.1947647 156.040255,25.1947647 L155.321079,26.5559282 C155.121241,26.1943906 154.931137,25.8568014 154.752723,25.5470274 C150.696755,20.3339661 146.636394,15.1837924 142.517588,9.96633358 C135.235407,7.750449 128.390746,7.90340217 127.303591,7.19537044 C127.787403,6.59727698 128.271215,5.99918352 128.746239,5.52686529 C130.583494,3.63319486 132.695397,2.32750064 134.839379,1.46641726 C139.881407,-0.202979109 145.424394,-0.0046592685 148.47273,0.651033054 C148.908207,0.744703386 150.277476,1.03011191 152.207898,1.41798583 C152.769052,1.52045122 153.330206,1.62291662 154.017038,1.73417707 C155.642055,1.9742881 156.89004,2.18801395 157.639711,2.30367193 C167.147249,3.60097276 170.929431,2.79133757 175.520618,5.76682983 C176.365207,6.3314962 178.292556,7.66708191 179.835407,9.98688185 C184.288625,16.7444262 182.285283,24.6300104 181.741275,26.9933547 C181.197456,29.1072997 180.402925,30.9386727 179.51742,32.5138119 Z M122.684095,21.8428146 C122.074222,21.6408441 121.916254,20.8592576 122.40765,20.4750381 C123.031767,20.0436129 124.046374,19.5331419 125.304503,19.6242264 C127.883283,19.8140781 130.512556,21.6615143 127.654087,22.1994696 C125.826686,22.6100644 123.848994,22.1765014 122.684095,21.8428146 Z M134.813478,23.3332753 C134.203605,23.1313049 134.045637,22.3497183 134.599555,21.9731817 C135.223673,21.5417565 136.23828,21.0312855 137.558931,21.1300527 C140.137711,21.3199044 142.759307,23.229912 139.908515,23.705296 C138.018592,24.108208 136.040899,23.6746449 134.813478,23.3332753 Z" id="Hair" fill="#482D1F" fill-rule="nonzero"></path>
                            <path d="M21.7757673,34.8117367 L21.7757673,34.8117367 C23.5396211,33.8660053 25.4293918,33.9289183 25.9962519,35.0005737 L52.9537659,83.4771337 C53.520626,84.5487891 52.6386203,86.1879098 50.8747621,87.196682 L50.8747621,87.196682 C49.1109083,88.1424134 47.2211376,88.0795004 46.6542775,87.007845 L19.6967635,38.531285 C19.0669152,37.396593 20.0119134,35.7574681 21.7757673,34.8117367 Z" id="Phone" fill="#474961" fill-rule="nonzero" transform="translate(36.312959, 61.004209) rotate(-5.000000) translate(-36.312959, -61.004209) "></path>
                            <path d="M126.782175,27.2370124 C126.776714,28.3160898 126.749331,30.0911341 126.031984,30.7651616 C125.081008,31.7915685 123.49594,28.6751231 124.179256,26.7266215 C124.4743,25.8736719 124.942659,25.6772134 125.442846,25.7386286 C126.193117,25.830822 126.749251,26.4707915 126.782175,27.2370124 Z M137.957257,28.2291209 C138.014319,29.3158811 137.924414,31.0832426 137.207066,31.7572701 C136.25609,32.783677 134.671023,29.6672315 135.354339,27.71873 C135.649382,26.8657804 136.117741,26.6693219 136.617928,26.7307371 C137.368199,26.8229305 137.924334,27.4628999 137.957257,28.2291209 Z" id="Eyes" fill="#482D1F" fill-rule="nonzero"></path>
                            <path d="M133.37807,40.3417882 C133.819008,40.2157488 134.889851,39.837607 135.078765,39.1441798 C135.078753,39.0180989 135.141728,38.8289835 135.078723,38.7028966 C134.826716,38.3246302 134.007827,38.5136744 132.873967,38.6396485 C130.858214,38.82858 129.220382,38.6393043 129.220382,38.6393043 C129.220382,38.6393043 129.724443,39.9001609 130.039437,40.2153928 C130.669461,41.2240994 132.685167,40.5308443 133.37807,40.3417882 Z" id="Mouth" fill="#482D1F" fill-rule="nonzero" transform="translate(132.163558, 39.614736) rotate(7.000000) translate(-132.163558, -39.614736) "></path>
                            <path d="M128.969296,35.0051027 L128.965371,35.0753626 C128.965371,35.7633647 129.435828,36.4023388 130.121655,36.5167323 C130.247501,36.5288879 130.317778,36.5338806 130.388171,36.5384635 C131.054399,36.5818379 131.532657,36.588351 133.248836,36.588351 C133.596732,36.588351 133.878757,36.306106 133.878757,35.9579391 C133.878757,35.6097723 133.596732,35.3275273 133.248836,35.3275273 C131.563002,35.3275273 131.098136,35.3211966 130.469956,35.2802993 C130.404513,35.2760387 130.339182,35.2713974 130.273526,35.266343 C130.28769,35.266412 130.234958,35.1932486 130.226378,35.1002155 L130.977195,28.400216 L130.980758,28.3085984 L130.854773,24.5891686 C130.842987,24.2412017 130.551569,23.9686808 130.203873,23.9804763 C129.856177,23.9922718 129.583868,24.2839169 129.595654,24.6318839 L129.720082,28.3053749 L128.969296,35.0051027 Z" id="Nose" fill="#482D1F" fill-rule="nonzero" transform="translate(131.422064, 30.284229) rotate(7.000000) translate(-131.422064, -30.284229) "></path>
                            <path d="M59.2125984,43.862492 L59.2125984,44.1288279 C59.1071019,44.0847549 59.002115,44.0406328 58.8976378,43.9964616 C58.7931606,44.0406328 58.6881737,44.0847549 58.5826772,44.1288279 L58.5826772,43.862492 C45.7702283,38.3794118 40.7758445,32.1426222 43.5995257,25.1521233 C46.4288955,18.1475414 51.5282662,17.0403138 58.8976378,21.8304406 C66.2670094,17.0403138 71.3663801,18.1475414 74.1957499,25.1521233 C77.0194311,32.1426222 72.0250473,38.3794118 59.2125984,43.862492 Z" id="Heart" fill="#E50229" fill-rule="nonzero"></path>
                            <path d="M165.609736,100.190929 C164.986168,91.2008945 166.474035,84.497337 170.02121,80.050622 C170.346788,79.6424804 170.280114,79.0474781 169.87229,78.7216472 C169.464466,78.3958163 168.869927,78.4625423 168.544349,78.8706839 C164.660229,83.7397907 163.070991,90.9000726 163.724509,100.321896 C163.760647,100.842892 164.211964,101.235925 164.732555,101.19976 C165.253146,101.163594 165.645874,100.711925 165.609736,100.190929 Z" id="Shadow" fill="#482D1F" fill-rule="nonzero"></path>
                        </g>
                    </g>
                </g>
            </g>
        </g>
    </g>
</svg>