<?xml version="1.0" standalone="no"?>
<!DOCTYPE svg PUBLIC "-//W3C//DTD SVG 1.1//EN" "http://www.w3.org/Graphics/SVG/1.1/DTD/svg11.dtd" >
<svg xmlns="http://www.w3.org/2000/svg" xmlns:xlink="http://www.w3.org/1999/xlink" version="1.1">
<metadata>
Created by FontForge 20170924 at Wed Jan  7 16:22:31 2015
 By www-data
Copyright \(c\) 2015 by Fontsmith Ltd. All rights reserved.
</metadata>
<defs>
<font id="Repsol-SemiBold" horiz-adv-x="509" >
  <font-face 
    font-family="Repsol SemiBold"
    font-weight="600"
    font-stretch="normal"
    units-per-em="1000"
    panose-1="2 0 5 6 3 0 0 2 0 4"
    ascent="750"
    descent="-250"
    x-height="495"
    cap-height="620"
    bbox="-71 -241 1177 1076"
    underline-thickness="50"
    underline-position="-100"
    stemh="94"
    stemv="102"
    unicode-range="U+000D-FB04"
  />
<missing-glyph horiz-adv-x="643" 
d="M100 0v620h443v-620h-443zM323 350l149 226h-302zM349 310l150 -226v452zM170 45h302l-149 226zM145 536v-452l149 226z" />
    <glyph glyph-name="fi" unicode="fi" horiz-adv-x="580" 
d="M516 495v-495h-102v408h-222v-408h-102v408h-74v87h74v37c0 52 13 90 38 116c27 28 70 43 128 43h89v-90h-82c-27 0 -45 -4 -56 -15c-10 -10 -15 -27 -15 -54v-37h324zM402 625c0 35 28 63 63 63s63 -28 63 -63s-28 -63 -63 -63s-63 28 -63 63z" />
    <glyph glyph-name="fl" unicode="fl" horiz-adv-x="649" 
d="M597 79h29v-85h-38c-58 0 -104 18 -131 46c-25 26 -38 64 -38 116v445h-156c-27 0 -45 -4 -56 -15c-10 -10 -15 -27 -15 -54v-37h141v-87h-141v-408h-102v408h-74v87h74v37c0 52 13 90 38 116c27 28 70 43 128 43h265v-531c0 -21 3 -48 18 -63c11 -11 31 -18 58 -18z" />
    <glyph glyph-name="f_f" unicode="ff" horiz-adv-x="673" 
d="M16 408v87h74v37c0 52 13 90 38 116c27 28 70 43 128 43h89v-90h-82c-27 0 -45 -4 -56 -15c-10 -10 -15 -27 -15 -54v-37h222v37c0 52 13 90 38 116c27 28 70 43 128 43h89v-90h-82c-27 0 -45 -4 -56 -15c-10 -10 -15 -27 -15 -54v-37h141v-87h-141v-408h-102v408h-222
v-408h-102v408h-74z" />
    <glyph glyph-name="f_f_i" unicode="ffi" horiz-adv-x="904" 
d="M414 495v34c0 52 13 90 38 116c27 28 70 43 128 43h89v-87h-82c-27 0 -45 -4 -56 -15c-10 -10 -15 -27 -15 -54v-37h324v-495h-102v408h-222v-408h-102v408h-222v-408h-102v408h-74v87h74v34c0 52 13 90 38 116c27 28 70 43 128 43h89v-87h-82c-27 0 -45 -4 -56 -15
c-10 -10 -15 -27 -15 -54v-37h222zM726 625c0 35 28 63 63 63s63 -28 63 -63s-28 -63 -63 -63s-63 28 -63 63z" />
    <glyph glyph-name="f_f_l" unicode="ffl" horiz-adv-x="973" 
d="M414 495v37c0 52 13 90 38 116c27 28 70 43 128 43h265v-531c0 -21 3 -48 18 -63c11 -11 31 -18 58 -18h29v-85h-38c-58 0 -104 18 -131 46c-25 26 -38 64 -38 116v445h-156c-27 0 -45 -4 -56 -15c-10 -10 -15 -27 -15 -54v-37h141v-87h-141v-408h-102v408h-222v-408
h-102v408h-74v87h74v37c0 52 13 90 38 116c27 28 70 43 128 43h89v-90h-82c-27 0 -45 -4 -56 -15c-10 -10 -15 -27 -15 -54v-37h222z" />
    <glyph glyph-name=".notdef" horiz-adv-x="643" 
d="M100 0v620h443v-620h-443zM323 350l149 226h-302zM349 310l150 -226v452zM170 45h302l-149 226zM145 536v-452l149 226z" />
    <glyph glyph-name=".null" horiz-adv-x="0" 
 />
    <glyph glyph-name=".null" horiz-adv-x="0" 
 />
    <glyph glyph-name="CR" unicode="&#xd;" horiz-adv-x="240" 
 />
    <glyph glyph-name="nbspace" unicode="&#xa0;" horiz-adv-x="240" 
 />
    <glyph glyph-name="space" unicode=" " horiz-adv-x="240" 
 />
    <glyph glyph-name="A" unicode="A" horiz-adv-x="615" 
d="M409 233l-85 284c-3 10 -5 13 -14 13h-8c-9 0 -11 -3 -14 -13l-86 -284h207zM410 580l182 -580h-113l-43 141h-260l-43 -141h-110l181 580c11 35 28 46 75 46h56c47 0 64 -11 75 -46z" />
    <glyph glyph-name="B" unicode="B" horiz-adv-x="566" 
d="M396 402v52c0 26 -7 46 -17 56c-12 12 -31 18 -61 18h-146v-174h174c13 0 17 2 24 9l15 15c9 9 11 13 11 24zM172 91h165c30 0 49 6 61 18c10 10 17 30 17 56v53c0 11 -2 15 -11 24l-17 17c-7 7 -11 9 -24 9h-191v-177zM346 0h-252c-20 0 -30 10 -30 29v562
c0 19 10 29 30 29h231c61 0 105 -15 137 -47c25 -25 40 -66 40 -121v-27c0 -47 -6 -60 -29 -84l-20 -20l40 -40c25 -25 30 -38 30 -80v-33c0 -55 -15 -96 -40 -121c-32 -32 -76 -47 -137 -47z" />
    <glyph glyph-name="C" unicode="C" horiz-adv-x="538" 
d="M333 -6h-108c-61 0 -105 15 -137 47c-25 25 -40 66 -40 121v296c0 55 15 96 40 121c32 32 76 47 137 47h97c75 0 130 -19 174 -64l-47 -79c-33 27 -73 43 -133 43h-82c-30 0 -49 -6 -61 -18c-10 -10 -17 -30 -17 -56v-284c0 -26 7 -46 17 -56c12 -12 31 -18 61 -18h88
c60 0 100 15 133 42l46 -77c-42 -46 -94 -65 -168 -65z" />
    <glyph glyph-name="D" unicode="D" horiz-adv-x="596" 
d="M172 94h190c30 0 49 6 61 18c10 10 17 30 17 56v283c0 26 -7 46 -17 56c-12 12 -31 18 -61 18h-190v-431zM371 0h-277c-20 0 -30 10 -30 29v562c0 19 10 29 30 29h277c61 0 105 -15 137 -47c25 -25 40 -66 40 -121v-284c0 -55 -15 -96 -40 -121c-32 -32 -76 -47 -137 -47
z" />
    <glyph glyph-name="E" unicode="E" horiz-adv-x="517" 
d="M64 29v562c0 19 10 29 30 29h368v-94h-290v-168h239v-94h-239v-170h297v-94h-375c-20 0 -30 10 -30 29z" />
    <glyph glyph-name="F" unicode="F" horiz-adv-x="484" 
d="M172 264v-264h-108v591c0 19 10 29 30 29h367v-94h-289v-168h239v-94h-239z" />
    <glyph glyph-name="G" unicode="G" horiz-adv-x="586" 
d="M375 -6h-150c-61 0 -105 15 -137 47c-25 25 -40 66 -40 121v296c0 55 15 96 40 121c32 32 76 47 137 47h122c75 0 130 -19 174 -64l-47 -79c-33 27 -73 43 -133 43h-107c-30 0 -49 -6 -61 -18c-10 -10 -17 -30 -17 -56v-285c0 -26 7 -46 17 -56c12 -12 31 -18 61 -18h142
c11 0 14 0 23 5l25 15c7 4 7 6 7 14v136h-92v87h171c18 0 28 -8 28 -27v-228c0 -32 -6 -38 -37 -56l-53 -31c-21 -12 -39 -14 -73 -14z" />
    <glyph glyph-name="H" unicode="H" horiz-adv-x="611" 
d="M547 620v-620h-108v263h-267v-263h-108v620h108v-260h267v260h108z" />
    <glyph glyph-name="I" unicode="I" horiz-adv-x="244" 
d="M68 0v620h108v-620h-108z" />
    <glyph glyph-name="J" unicode="J" horiz-adv-x="488" 
d="M251 -6h-49c-70 0 -119 15 -168 60l43 78c38 -26 74 -39 132 -39h33c30 0 49 6 61 18c10 10 17 30 17 56v453h108v-458c0 -55 -15 -96 -40 -121c-32 -32 -76 -47 -137 -47z" />
    <glyph glyph-name="K" unicode="K" horiz-adv-x="592" 
d="M364 297l210 -297h-127l-164 238c-13 19 -15 19 -32 19h-79v-257h-108v620h108v-269h81c18 0 20 3 30 19l152 250h118l-189 -307c-5 -8 -5 -9 0 -16z" />
    <glyph glyph-name="L" unicode="L" horiz-adv-x="478" 
d="M64 29v591h108v-526h281v-94h-359c-20 0 -30 10 -30 29z" />
    <glyph glyph-name="M" unicode="M" horiz-adv-x="723" 
d="M364 317c17 33 35 67 61 109l99 161c16 26 29 33 56 33h41c27 0 38 -5 38 -29v-591h-104v317c0 57 1 118 4 166c-21 -47 -60 -114 -99 -177l-51 -83c-7 -11 -12 -13 -24 -13h-45c-11 0 -16 3 -23 13l-55 83c-33 50 -85 137 -99 177c3 -46 4 -115 4 -166v-317h-103v591
c0 24 11 29 38 29h44c29 0 39 -6 56 -33l99 -161c26 -42 46 -76 63 -109z" />
    <glyph glyph-name="N" unicode="N" horiz-adv-x="628" 
d="M444 28l-230 344c-25 37 -42 66 -52 88v-460h-98v591c0 24 11 29 38 29h25c28 0 41 -6 57 -30l229 -344c24 -37 43 -68 53 -90v464h98v-592c0 -24 -11 -29 -38 -29h-26c-28 0 -40 5 -56 29z" />
    <glyph glyph-name="O" unicode="O" horiz-adv-x="596" 
d="M234 94h128c30 0 49 6 61 18c10 10 17 30 17 56v284c0 26 -7 46 -17 56c-12 12 -31 18 -61 18h-128c-30 0 -49 -6 -61 -18c-10 -10 -17 -30 -17 -56v-284c0 -26 7 -46 17 -56c12 -12 31 -18 61 -18zM371 -6h-146c-61 0 -105 15 -137 47c-25 25 -40 66 -40 121v296
c0 55 15 96 40 121c32 32 76 47 137 47h146c61 0 105 -15 137 -47c25 -25 40 -66 40 -121v-296c0 -55 -15 -96 -40 -121c-32 -32 -76 -47 -137 -47z" />
    <glyph glyph-name="P" unicode="P" horiz-adv-x="563" 
d="M94 620h250c61 0 105 -15 137 -47c25 -25 40 -66 40 -121v-106c0 -48 -5 -60 -34 -89l-34 -34c-25 -26 -45 -33 -89 -33h-192v-190h-108v591c0 19 10 29 30 29zM336 526h-164v-242h181c13 0 18 1 27 10l22 22c9 9 12 15 12 27v109c0 26 -7 46 -17 56
c-12 12 -31 18 -61 18z" />
    <glyph glyph-name="Q" unicode="Q" horiz-adv-x="596" 
d="M295 -71l-32 65h-38c-61 0 -105 15 -137 47c-25 25 -40 66 -40 121v296c0 55 15 96 40 121c32 32 76 47 137 47h146c61 0 105 -15 137 -47c25 -25 40 -66 40 -121v-296c0 -55 -15 -96 -40 -121c-31 -31 -73 -46 -131 -47l15 -29c18 -36 30 -46 80 -46h45v-89h-56
c-103 0 -127 20 -166 99zM234 94h128c30 0 49 6 61 18c10 10 17 30 17 56v284c0 26 -7 46 -17 56c-12 12 -31 18 -61 18h-128c-30 0 -49 -6 -61 -18c-10 -10 -17 -30 -17 -56v-284c0 -26 7 -46 17 -56c12 -12 31 -18 61 -18z" />
    <glyph glyph-name="R" unicode="R" horiz-adv-x="580" 
d="M524 452v-94c0 -48 -5 -60 -34 -89l-29 -29c-9 -9 -16 -14 -23 -17l90 -223h-115l-77 203h-164v-203h-108v591c0 19 10 29 30 29h253c61 0 105 -15 137 -47c25 -25 40 -66 40 -121zM339 526h-167v-231h184c13 0 18 1 27 10l22 22c9 9 12 15 12 27v98c0 26 -7 46 -17 56
c-12 12 -31 18 -61 18z" />
    <glyph glyph-name="S" unicode="S" horiz-adv-x="538" 
d="M205 91h105c30 0 49 6 61 18c10 10 17 30 17 56v17c0 35 -14 61 -59 67l-110 15c-47 7 -98 13 -128 43c-21 21 -40 55 -40 123v28c0 55 15 96 40 121c32 32 76 47 137 47h69c82 0 134 -15 179 -60l-45 -77c-33 27 -76 40 -130 40h-66c-30 0 -49 -6 -61 -18
c-10 -10 -17 -30 -17 -56v-18c0 -36 13 -62 59 -68l110 -15c67 -9 101 -15 131 -45c21 -21 37 -48 37 -121v-26c0 -55 -15 -96 -40 -121c-32 -32 -76 -47 -137 -47h-88c-84 0 -139 14 -188 63l45 77c30 -26 69 -43 119 -43z" />
    <glyph glyph-name="T" unicode="T" horiz-adv-x="513" 
d="M310 526v-526h-108v526h-178v94h465v-94h-179z" />
    <glyph glyph-name="U" unicode="U" horiz-adv-x="604" 
d="M169 620v-452c0 -26 7 -46 17 -56c12 -12 31 -18 61 -18h132c11 0 14 0 23 5l24 14c7 4 7 6 7 14v493h107v-525c0 -32 -6 -38 -37 -56l-53 -31c-21 -12 -39 -14 -73 -14h-139c-61 0 -105 15 -137 47c-25 25 -40 66 -40 121v458h108z" />
    <glyph glyph-name="V" unicode="V" horiz-adv-x="583" 
d="M565 620l-166 -575c-11 -39 -27 -51 -75 -51h-67c-46 0 -64 12 -75 51l-164 575h117l140 -518c3 -10 5 -12 13 -12h11c7 0 9 2 12 12l139 518h115z" />
    <glyph glyph-name="W" unicode="W" horiz-adv-x="886" 
d="M524 50l-34 156c-25 116 -41 208 -47 266c-7 -58 -23 -154 -47 -266l-33 -156c-10 -46 -32 -56 -84 -56h-45c-50 0 -75 13 -84 56l-123 570h110l105 -515c3 -12 6 -15 17 -15h4c12 0 14 3 17 16l98 485c5 26 15 29 41 29h48c26 0 36 -3 41 -29l99 -486
c3 -12 6 -15 17 -15h4c10 0 14 2 17 15l104 515h110l-123 -570c-10 -44 -32 -56 -84 -56h-45c-51 0 -73 11 -83 56z" />
    <glyph glyph-name="X" unicode="X" horiz-adv-x="580" 
d="M29 0l190 300c6 10 6 12 1 20l-189 300h122l140 -225l135 225h116l-186 -297c-6 -9 -5 -12 0 -20l193 -303h-122l-141 231l-142 -231h-117z" />
    <glyph glyph-name="Y" unicode="Y" horiz-adv-x="555" 
d="M279 308l151 312h116l-207 -400c-7 -13 -7 -17 -7 -30v-190h-108v190c0 13 -1 17 -8 30l-207 400h119z" />
    <glyph glyph-name="Z" unicode="Z" horiz-adv-x="513" 
d="M334 526h-280v94h381c18 0 24 -10 24 -27v-23c0 -29 -6 -43 -30 -80l-150 -233c-50 -78 -83 -128 -110 -163h298v-94h-399c-18 0 -24 9 -24 27v23c0 28 5 40 30 79l150 234c49 79 84 129 110 163z" />
    <glyph glyph-name="a" unicode="a" 
d="M200 82h108c10 0 11 0 18 5l20 15c6 5 6 5 6 12v102c0 6 -2 8 -9 8h-143c-43 0 -59 -24 -59 -68v-6c0 -46 16 -68 59 -68zM352 302v41c0 27 -5 44 -15 54c-11 11 -29 15 -56 15h-50c-58 0 -96 -9 -130 -36l-43 70c44 40 91 55 169 55h61c58 0 101 -15 128 -43
c25 -26 38 -64 38 -116v-250c0 -26 -6 -33 -33 -53l-34 -26c-23 -17 -37 -19 -71 -19h-107c-109 0 -168 46 -168 153v8c0 107 59 153 168 153h24c44 0 81 -3 119 -6z" />
    <glyph glyph-name="b" unicode="b" horiz-adv-x="524" 
d="M160 374v-255c0 -7 0 -7 6 -12l20 -15c7 -5 8 -5 18 -5h98c27 0 45 4 56 15c10 10 15 27 15 54v183c0 27 -5 44 -15 54c-11 11 -29 15 -56 15h-84c-8 0 -11 -1 -17 -4l-35 -19c-5 -3 -6 -4 -6 -11zM160 685v-210l20 11c28 15 31 15 65 15h64c58 0 101 -15 128 -43
c25 -26 38 -64 38 -116v-189c0 -52 -13 -90 -38 -116c-27 -28 -70 -43 -128 -43h-113c-34 0 -48 2 -71 19l-34 26c-27 20 -33 27 -33 53v593h102z" />
    <glyph glyph-name="c" unicode="c" horiz-adv-x="473" 
d="M287 -6h-72c-58 0 -101 15 -128 43c-25 26 -38 64 -38 116v189c0 52 13 90 38 116c27 28 70 43 128 43h63c71 0 121 -21 159 -57l-43 -72c-31 24 -68 36 -116 36h-56c-27 0 -45 -4 -56 -15c-10 -10 -15 -27 -15 -54v-183c0 -27 5 -44 15 -54c11 -11 29 -15 56 -15h64
c48 0 86 12 117 36l43 -71c-38 -37 -88 -58 -159 -58z" />
    <glyph glyph-name="d" unicode="d" horiz-adv-x="524" 
d="M364 119v255c0 7 -1 8 -6 11l-35 19c-6 3 -9 4 -17 4h-84c-27 0 -45 -4 -56 -15c-10 -10 -15 -27 -15 -54v-183c0 -27 5 -44 15 -54c11 -11 29 -15 56 -15h98c10 0 11 0 18 5l20 15c6 5 6 5 6 12zM364 475v210h102v-593c0 -26 -6 -33 -33 -53l-34 -26
c-23 -17 -37 -19 -71 -19h-113c-58 0 -101 15 -128 43c-25 26 -38 64 -38 116v189c0 52 13 90 38 116c27 28 70 43 128 43h64c34 0 37 0 65 -15z" />
    <glyph glyph-name="e" unicode="e" 
d="M418 207h-267v-55c0 -27 5 -44 15 -54c11 -11 29 -15 56 -15h61c58 0 96 9 130 36l43 -70c-44 -40 -91 -55 -169 -55h-72c-58 0 -101 15 -128 43c-25 26 -38 64 -38 116v189c0 52 13 90 38 116c27 28 70 43 128 43h77c58 0 101 -15 128 -43c25 -26 38 -64 38 -116v-95
c0 -28 -13 -40 -40 -40zM151 342v-53h206v53c0 27 -5 44 -15 54c-11 11 -29 15 -56 15h-64c-27 0 -45 -4 -56 -15c-10 -10 -15 -27 -15 -54z" />
    <glyph glyph-name="f" unicode="f" horiz-adv-x="349" 
d="M16 408v87h74v37c0 52 13 90 38 116c27 28 70 43 128 43h89v-90h-82c-27 0 -45 -4 -56 -15c-10 -10 -15 -27 -15 -54v-37h141v-87h-141v-408h-102v408h-74z" />
    <glyph glyph-name="g" unicode="g" horiz-adv-x="524" 
d="M365 20l-21 -11c-28 -15 -31 -15 -65 -15h-64c-58 0 -101 15 -128 43c-25 26 -38 64 -38 116v189c0 52 13 90 38 116c27 28 70 43 128 43h113c34 0 48 -2 71 -19l34 -26c27 -20 33 -27 33 -53v-438c0 -108 -55 -161 -165 -161h-63c-82 0 -125 18 -158 53l42 70
c29 -23 66 -34 115 -34h53c58 0 75 23 75 74v53zM364 121v255c0 7 0 7 -6 12l-20 15c-7 5 -8 5 -18 5h-98c-27 0 -45 -4 -56 -15c-10 -10 -15 -27 -15 -54v-183c0 -27 5 -44 15 -54c11 -11 29 -15 56 -15h84c8 0 11 1 17 4l35 19c5 3 6 4 6 11z" />
    <glyph glyph-name="h" unicode="h" horiz-adv-x="529" 
d="M160 0h-102v685h102v-210l20 11c28 15 31 15 65 15h64c58 0 101 -15 128 -43c25 -26 38 -64 38 -116v-342h-102v339c0 27 -5 44 -15 54c-11 11 -29 15 -56 15h-84c-8 0 -11 -1 -17 -4l-35 -19c-5 -3 -6 -4 -6 -11v-374z" />
    <glyph glyph-name="i" unicode="i" horiz-adv-x="230" 
d="M166 495v-495h-102v495h102zM52 625c0 35 28 63 63 63s63 -28 63 -63s-28 -63 -63 -63s-63 28 -63 63z" />
    <glyph glyph-name="j" unicode="j" horiz-adv-x="243" 
d="M66 625c0 35 28 63 63 63s63 -28 63 -63s-28 -63 -63 -63s-63 28 -63 63zM-60 -111h62c27 0 46 6 58 18c15 15 18 42 18 63v525h102v-529c0 -52 -12 -90 -38 -116c-30 -30 -73 -46 -142 -46h-38z" />
    <glyph glyph-name="k" unicode="k" horiz-adv-x="498" 
d="M332 256l147 -256h-113l-112 199c-6 11 -11 13 -24 13h-70v-212h-102v685h102v-382h69c13 0 17 2 24 13l113 179h108l-142 -218c-6 -9 -6 -11 0 -21z" />
    <glyph glyph-name="l" unicode="l" horiz-adv-x="292" 
d="M240 79h29v-85h-38c-58 0 -104 18 -131 46c-25 26 -38 64 -38 116v529h102v-525c0 -21 3 -48 18 -63c11 -11 31 -18 58 -18z" />
    <glyph glyph-name="m" unicode="m" horiz-adv-x="818" 
d="M295 501c52 0 92 -13 119 -36l22 17c24 19 37 19 71 19h89c58 0 101 -15 128 -43c25 -26 38 -64 38 -116v-342h-102v339c0 27 -5 44 -15 54c-11 11 -29 15 -56 15h-84c-10 0 -11 0 -18 -5l-20 -15c-6 -5 -6 -5 -6 -12v-376h-102v339c0 27 -5 44 -15 54
c-11 11 -29 15 -56 15h-84c-10 0 -11 0 -18 -5l-20 -15c-6 -5 -6 -5 -6 -12v-376h-102v403c0 26 6 33 33 53l34 26c23 17 37 19 71 19h99z" />
    <glyph glyph-name="n" unicode="n" horiz-adv-x="528" 
d="M196 501h110c58 0 101 -15 128 -43c25 -26 38 -64 38 -116v-342h-102v339c0 27 -5 44 -15 54c-11 11 -29 15 -56 15h-95c-10 0 -11 0 -18 -5l-20 -15c-6 -5 -6 -5 -6 -12v-376h-102v403c0 26 6 33 33 53l34 26c23 17 37 19 71 19z" />
    <glyph glyph-name="o" unicode="o" horiz-adv-x="520" 
d="M471 342v-189c0 -52 -13 -90 -38 -116c-27 -28 -70 -43 -128 -43h-90c-58 0 -101 15 -128 43c-25 26 -38 64 -38 116v189c0 52 13 90 38 116c27 28 70 43 128 43h90c58 0 101 -15 128 -43c25 -26 38 -64 38 -116zM369 156v183c0 27 -5 44 -15 54c-11 11 -29 15 -56 15
h-76c-27 0 -45 -4 -56 -15c-10 -10 -15 -27 -15 -54v-183c0 -27 5 -44 15 -54c11 -11 29 -15 56 -15h76c27 0 45 4 56 15c10 10 15 27 15 54z" />
    <glyph glyph-name="p" unicode="p" horiz-adv-x="524" 
d="M160 376v-255c0 -7 1 -8 6 -11l35 -19c6 -3 9 -4 17 -4h84c27 0 45 4 56 15c10 10 15 27 15 54v183c0 27 -5 44 -15 54c-11 11 -29 15 -56 15h-98c-10 0 -11 0 -18 -5l-20 -15c-6 -5 -6 -5 -6 -12zM160 20v-210h-102v593c0 26 6 33 33 53l34 26c23 17 37 19 71 19h113
c58 0 101 -15 128 -43c25 -26 38 -64 38 -116v-189c0 -52 -13 -90 -38 -116c-27 -28 -70 -43 -128 -43h-64c-34 0 -37 0 -65 15z" />
    <glyph glyph-name="q" unicode="q" horiz-adv-x="524" 
d="M364 121v255c0 7 0 7 -6 12l-20 15c-7 5 -8 5 -18 5h-98c-27 0 -45 -4 -56 -15c-10 -10 -15 -27 -15 -54v-183c0 -27 5 -44 15 -54c11 -11 29 -15 56 -15h84c8 0 11 1 17 4l35 19c5 3 6 4 6 11zM364 -190v210l-20 -11c-28 -15 -31 -15 -65 -15h-64c-58 0 -101 15 -128 43
c-25 26 -38 64 -38 116v189c0 52 13 90 38 116c27 28 70 43 128 43h113c34 0 48 -2 71 -19l34 -26c27 -20 33 -27 33 -53v-593h-102z" />
    <glyph glyph-name="r" unicode="r" horiz-adv-x="344" 
d="M316 408h-87c-27 0 -45 -4 -56 -15c-10 -10 -15 -27 -15 -54v-339h-102v342c0 52 13 90 38 116c27 28 70 43 128 43h94v-93z" />
    <glyph glyph-name="s" unicode="s" horiz-adv-x="472" 
d="M213 501h54c62 0 111 -15 153 -51l-43 -70c-30 22 -67 32 -114 32h-43c-53 0 -72 -17 -72 -57v-4c0 -37 19 -47 63 -53l83 -11c51 -7 80 -17 101 -38c28 -28 34 -61 34 -101v-7c0 -49 -16 -83 -39 -106c-29 -29 -74 -41 -126 -41h-67c-75 0 -122 14 -165 53l43 70
c27 -22 63 -35 120 -35h63c49 0 71 15 71 58v5c0 33 -20 47 -60 52l-83 11c-41 5 -80 16 -103 39c-25 25 -35 61 -35 102v5c0 49 16 83 39 106c29 29 74 41 126 41z" />
    <glyph glyph-name="t" unicode="t" horiz-adv-x="381" 
d="M16 408v87h74v131h102v-131h141v-87h-141v-252c0 -27 5 -44 15 -54c11 -11 29 -15 56 -15h76v-93h-83c-58 0 -101 15 -128 43c-25 26 -38 64 -38 116v255h-74z" />
    <glyph glyph-name="u" unicode="u" horiz-adv-x="523" 
d="M327 -6h-105c-58 0 -101 15 -128 43c-25 26 -38 64 -38 116v342h102v-338c0 -27 5 -44 15 -54c11 -11 29 -15 56 -15h90c10 0 11 0 18 5l20 15c6 5 6 5 6 12v375h102v-403c0 -26 -6 -33 -33 -53l-34 -26c-23 -17 -37 -19 -71 -19z" />
    <glyph glyph-name="v" unicode="v" horiz-adv-x="498" 
d="M485 495l-162 -472c-8 -23 -20 -29 -48 -29h-52c-28 0 -40 6 -48 29l-162 472h108l68 -210c23 -72 52 -167 61 -203c14 53 39 136 61 203l68 210h106z" />
    <glyph glyph-name="w" unicode="w" horiz-adv-x="756" 
d="M578 283l54 212h103l-126 -475c-5 -21 -16 -26 -42 -26h-60c-27 0 -37 4 -42 26l-56 233c-13 53 -25 113 -31 152c-6 -40 -18 -97 -31 -152l-55 -233c-5 -21 -15 -26 -42 -26h-60c-28 0 -36 4 -42 26l-127 475h103l52 -212c18 -75 38 -165 45 -204c12 89 37 189 60 282
l27 109c5 20 16 25 40 25h62c23 0 34 -5 39 -25l27 -109c23 -93 46 -191 60 -282c9 64 25 137 42 204z" />
    <glyph glyph-name="x" unicode="x" horiz-adv-x="487" 
d="M307 245l163 -245h-112l-115 177l-115 -177h-111l163 244c5 7 4 11 0 17l-154 234h112l106 -166l106 166h111l-153 -233c-5 -7 -5 -11 -1 -17z" />
    <glyph glyph-name="y" unicode="y" 
d="M321 315l63 180h112l-192 -524c-42 -113 -78 -167 -190 -167h-45l-22 85h45c65 0 85 19 104 74l6 17l-189 515h112l63 -180c31 -88 52 -163 67 -223c13 60 34 130 66 223z" />
    <glyph glyph-name="z" unicode="z" horiz-adv-x="444" 
d="M49 495h333c13 0 16 -4 16 -16v-20c0 -21 -1 -30 -10 -44l-215 -327h233v-88h-346c-13 0 -16 4 -16 15v37c0 11 3 17 10 28l215 328h-220v87z" />
    <glyph glyph-name="ampersand" unicode="&#x26;" horiz-adv-x="650" 
d="M102 309l66 42c-35 41 -52 78 -52 125c0 51 14 83 37 106c34 34 80 44 143 44h49c71 0 130 -16 167 -56l-45 -77c-32 28 -70 38 -118 38h-49c-52 0 -80 -13 -80 -55c0 -29 12 -50 46 -85l157 -160l50 60c16 19 20 25 20 55v39h99v-51c0 -45 -9 -60 -40 -97l-62 -73
c31 -33 56 -73 106 -73h28v-97h-26c-69 0 -93 14 -145 66l-27 27l-11 -12c-58 -64 -77 -81 -146 -81h-58c-57 0 -105 14 -135 44c-24 24 -40 58 -40 124v42c3 49 17 74 66 105zM142 187v-21c0 -23 0 -42 15 -57s34 -18 58 -18h50c33 0 44 8 63 29l31 34l-131 131l-59 -40
c-25 -17 -27 -28 -27 -58z" />
    <glyph glyph-name="at" unicode="@" horiz-adv-x="696" 
d="M407 232v50c0 4 -1 5 -6 5h-73c-27 0 -37 -7 -37 -34v-9c0 -25 8 -34 36 -34h49c9 0 15 1 19 5l7 6c4 4 5 4 5 11zM219 626h264c60 0 100 -13 127 -40c24 -24 36 -65 36 -118v-209c0 -82 -46 -113 -118 -113c-39 0 -71 13 -84 33l-23 -19c-13 -11 -25 -14 -50 -14h-46
c-70 0 -110 29 -110 101v4c0 71 41 99 110 99h29c21 0 39 -3 53 -6v24c0 30 -13 40 -51 40h-18c-31 0 -55 -5 -82 -21l-30 49c25 24 59 37 106 37h30c87 0 122 -34 122 -107v-127c0 -22 13 -32 37 -32c27 0 40 12 40 39v229c0 26 -7 46 -17 56c-12 12 -31 18 -61 18h-263
c-30 0 -49 -6 -61 -18c-10 -10 -17 -30 -17 -56v-324c0 -26 7 -46 17 -56c12 -12 31 -18 61 -18h409v-77h-410c-60 0 -100 13 -127 40c-24 24 -36 65 -36 118v310c0 53 12 94 36 118c27 27 67 40 127 40z" />
    <glyph glyph-name="exclam" unicode="!" horiz-adv-x="268" 
d="M189 598l-8 -381c0 -12 -5 -18 -18 -18h-60c-13 0 -18 6 -18 18l-9 403h91c18 0 22 -8 22 -22zM134 -6c-35 0 -64 25 -64 63s29 64 64 64s64 -26 64 -64s-29 -63 -64 -63z" />
    <glyph glyph-name="exclamdown" unicode="&#xa1;" horiz-adv-x="268" 
d="M79 -113l8 381c0 12 5 18 18 18h60c13 0 18 -6 18 -18l9 -403h-91c-18 0 -22 8 -22 22zM134 491c35 0 64 -25 64 -63s-29 -64 -64 -64s-64 26 -64 64s29 63 64 63z" />
    <glyph glyph-name="question" unicode="?" horiz-adv-x="496" 
d="M227 -6c-35 0 -64 25 -64 63s29 64 64 64s64 -26 64 -64s-29 -63 -64 -63zM259 531h-36c-52 0 -100 -9 -135 -36l-42 75c46 41 95 56 172 56h52c58 0 101 -14 128 -42c25 -26 38 -64 38 -116v-19c0 -65 -11 -92 -37 -118c-12 -12 -39 -29 -68 -43l-39 -20
c-17 -9 -17 -18 -19 -47l-2 -26h-92l-2 70c0 39 15 60 59 82l52 26c35 18 43 37 44 73v16c0 27 -7 44 -17 54c-11 11 -29 15 -56 15z" />
    <glyph glyph-name="questiondown" unicode="&#xbf;" horiz-adv-x="496" 
d="M269 491c35 0 64 -25 64 -63s-29 -64 -64 -64s-64 26 -64 64s29 63 64 63zM237 -46h36c52 0 100 9 135 36l42 -75c-46 -41 -95 -56 -172 -56h-52c-58 0 -101 14 -128 42c-25 26 -38 64 -38 116v19c0 65 11 92 37 118c12 12 39 29 68 43l39 20c17 9 17 18 19 47l2 26h92
l2 -70c0 -39 -15 -60 -59 -82l-52 -26c-35 -18 -43 -37 -44 -73v-16c0 -27 7 -44 17 -54c11 -11 29 -15 56 -15z" />
    <glyph glyph-name="asterisk" unicode="*" horiz-adv-x="462" 
d="M258 222h-54c-11 0 -15 5 -14 14l12 135l-108 -77c-4 -3 -7 -4 -10 -4c-5 0 -9 5 -12 10l-25 42c-3 5 -5 8 -5 11c0 5 4 7 10 10l122 57l-123 59c-6 3 -9 5 -9 9c0 3 1 5 4 10l27 46c3 5 6 7 10 7c3 0 6 -1 10 -4l109 -77l-12 135c-1 10 3 15 14 15h54c11 0 15 -5 14 -15
l-12 -135l109 77c4 3 7 4 10 4c4 0 7 -2 10 -7l27 -46c3 -5 4 -7 4 -10c0 -4 -3 -6 -9 -9l-123 -59l122 -57c6 -3 10 -5 10 -10c0 -3 -2 -6 -5 -11l-25 -42c-3 -5 -7 -10 -12 -10c-3 0 -6 1 -10 4l-108 77l12 -135c1 -9 -3 -14 -14 -14z" />
    <glyph glyph-name="period" unicode="." horiz-adv-x="225" 
d="M112 -6c-35 0 -64 25 -64 63s29 64 64 64s64 -26 64 -64s-29 -63 -64 -63z" />
    <glyph glyph-name="comma" unicode="," horiz-adv-x="226" 
d="M56 -102l15 52c7 23 9 35 9 44c0 29 -30 34 -30 70c0 32 23 56 59 56c38 0 63 -23 63 -61c0 -27 -10 -57 -30 -105l-30 -69c-5 -12 -10 -15 -23 -11l-21 6c-12 3 -15 8 -12 18z" />
    <glyph glyph-name="colon" unicode=":" horiz-adv-x="225" 
d="M112 -6c-35 0 -64 25 -64 63s29 64 64 64s64 -26 64 -64s-29 -63 -64 -63zM112 273c-35 0 -64 25 -64 63s29 64 64 64s64 -26 64 -64s-29 -63 -64 -63z" />
    <glyph glyph-name="semicolon" unicode=";" horiz-adv-x="226" 
d="M115 273c-35 0 -64 25 -64 63s29 64 64 64s64 -26 64 -64s-29 -63 -64 -63zM61 -102l15 52c7 23 9 35 9 44c0 29 -30 34 -30 70c0 32 23 56 59 56c38 0 63 -23 63 -61c0 -27 -10 -57 -30 -105l-30 -69c-5 -12 -10 -15 -23 -11l-21 6c-12 3 -15 8 -12 18z" />
    <glyph glyph-name="ellipsis" unicode="&#x2026;" horiz-adv-x="673" 
d="M112 -6c-35 0 -64 25 -64 63s29 64 64 64s64 -26 64 -64s-29 -63 -64 -63zM336 -6c-35 0 -64 25 -64 63s29 64 64 64s64 -26 64 -64s-29 -63 -64 -63zM560 -6c-35 0 -64 25 -64 63s29 64 64 64s64 -26 64 -64s-29 -63 -64 -63z" />
    <glyph glyph-name="periodcentered" unicode="&#xb7;" horiz-adv-x="225" 
d="M112 246c-35 0 -64 25 -64 63s29 64 64 64s64 -26 64 -64s-29 -63 -64 -63z" />
    <glyph glyph-name="uni22C5" unicode="&#x22c5;" horiz-adv-x="225" 
d="M112 246c-35 0 -64 25 -64 63s29 64 64 64s64 -26 64 -64s-29 -63 -64 -63z" />
    <glyph glyph-name="bullet" unicode="&#x2022;" horiz-adv-x="369" 
d="M185 179c-68 0 -123 48 -123 123c0 73 55 121 123 121s123 -48 123 -121c0 -75 -55 -123 -123 -123z" />
    <glyph glyph-name="slash" unicode="/" horiz-adv-x="357" 
d="M20 0l212 620h105l-212 -620h-105z" />
    <glyph glyph-name="parenleft" unicode="(" horiz-adv-x="314" 
d="M170 588v-586c0 -25 4 -45 15 -56c10 -10 26 -17 63 -17h47v-94h-53c-71 0 -113 16 -141 44c-27 27 -37 70 -37 120v592c0 50 10 93 37 120c28 28 70 44 141 44h53v-94h-47c-37 0 -53 -7 -63 -17c-11 -11 -15 -31 -15 -56z" />
    <glyph glyph-name="brokenbar" unicode="&#xa6;" horiz-adv-x="238" 
d="M169 239v-354h-100v354h100zM169 711v-354h-100v354h100z" />
    <glyph glyph-name="parenright" unicode=")" horiz-adv-x="314" 
d="M144 2v586c0 25 -4 45 -15 56c-10 10 -26 17 -63 17h-47v94h53c71 0 113 -16 141 -44c27 -27 37 -70 37 -120v-592c0 -50 -10 -93 -37 -120c-28 -28 -70 -44 -141 -44h-53v94h47c37 0 53 7 63 17c11 11 15 31 15 56z" />
    <glyph glyph-name="bracketleft" unicode="[" horiz-adv-x="300" 
d="M70 -133v856c0 21 9 32 33 32h178v-94h-105v-733h105v-93h-178c-24 0 -33 10 -33 32z" />
    <glyph glyph-name="backslash" unicode="\" horiz-adv-x="357" 
d="M125 620l212 -620h-105l-212 620h105z" />
    <glyph glyph-name="bracketright" unicode="]" horiz-adv-x="300" 
d="M230 723v-856c0 -22 -9 -32 -33 -32h-178v93h105v733h-105v94h178c24 0 33 -11 33 -32z" />
    <glyph glyph-name="braceleft" unicode="{" horiz-adv-x="347" 
d="M100 409v183c0 55 10 92 39 121c28 28 70 42 140 42h53v-94h-48c-31 0 -49 -5 -61 -17s-17 -28 -17 -56v-187c0 -31 -7 -47 -31 -72l-33 -34l33 -34c24 -25 31 -41 31 -73v-187c0 -28 5 -44 17 -56s30 -17 61 -17h48v-93h-53c-70 0 -112 14 -140 42
c-29 29 -39 66 -39 121v183c0 15 -3 21 -14 32l-26 27c-27 28 -33 39 -33 55s6 26 33 54l26 27c11 12 14 18 14 33z" />
    <glyph glyph-name="bar" unicode="|" horiz-adv-x="238" 
d="M169 711v-826h-100v826h100z" />
    <glyph glyph-name="braceright" unicode="}" horiz-adv-x="347" 
d="M247 592v-183c0 -15 3 -21 14 -33l26 -27c27 -28 33 -38 33 -54s-6 -27 -33 -55l-26 -27c-11 -11 -14 -17 -14 -32v-183c0 -55 -10 -92 -39 -121c-28 -28 -70 -42 -140 -42h-53v93h48c31 0 49 5 61 17s17 28 17 56v187c0 32 7 48 31 73l33 34l-33 34
c-24 25 -31 41 -31 72v187c0 28 -5 44 -17 56s-30 17 -61 17h-48v94h53c70 0 112 -14 140 -42c29 -29 39 -66 39 -121z" />
    <glyph glyph-name="hyphen" unicode="-" horiz-adv-x="364" 
d="M50 196v94h264v-94h-264z" />
    <glyph glyph-name="uni00AD" unicode="&#xad;" horiz-adv-x="364" 
d="M50 196v94h264v-94h-264z" />
    <glyph glyph-name="endash" unicode="&#x2013;" horiz-adv-x="500" 
d="M0 200v90h500v-90h-500z" />
    <glyph glyph-name="emdash" unicode="&#x2014;" horiz-adv-x="1000" 
d="M0 200v90h1000v-90h-1000z" />
    <glyph glyph-name="underscore" unicode="_" horiz-adv-x="495" 
d="M0 -118v91h495v-91h-495z" />
    <glyph glyph-name="dagger" unicode="&#x2020;" horiz-adv-x="445" 
d="M40 358v92h131v261h103v-261h131v-92h-131v-473h-103v473h-131z" />
    <glyph glyph-name="daggerdbl" unicode="&#x2021;" horiz-adv-x="445" 
d="M171 139h-131v92h131v132h-131v92h131v256h103v-256h131v-92h-131v-132h131v-92h-131v-254h-103v254z" />
    <glyph glyph-name="section" unicode="&#xa7;" horiz-adv-x="527" 
d="M292 294l-47 4l-51 -51c-19 -19 -25 -32 -25 -55v-14c0 -59 39 -56 112 -65l49 51c18 19 25 32 25 55v15c0 40 -18 56 -63 60zM455 240v-13c0 -47 -9 -70 -37 -99l-37 -38c54 -23 79 -68 79 -129v-12c0 -111 -55 -161 -174 -161h-60c-71 0 -118 16 -160 55l42 69
c26 -23 67 -35 118 -35h58c52 0 76 13 76 67v12c0 40 -14 56 -49 60l-110 12c-88 10 -131 56 -131 145v11c-1 49 9 70 37 99l38 39c-55 23 -80 67 -80 131v12c0 111 55 161 167 161h63c71 0 119 -19 159 -55l-42 -69c-26 23 -67 35 -118 35h-53c-52 0 -76 -13 -76 -67v-13
c0 -40 14 -56 49 -60l110 -12c88 -10 131 -56 131 -145z" />
    <glyph glyph-name="paragraph" unicode="&#xb6;" horiz-adv-x="563" 
d="M217 343h-115c-38 0 -52 14 -52 50v227h473v-85h-75v-741h-89v741h-54v-741h-88v549z" />
    <glyph glyph-name="registered" unicode="&#xae;" horiz-adv-x="727" 
d="M382 249h-72v-96h-67v294c0 12 7 17 19 17h134c66 0 91 -29 91 -79v-51c0 -26 -5 -34 -20 -50l-21 -21l45 -110h-71zM223 83h281c27 0 45 4 56 15c10 10 15 27 15 54v316c0 27 -5 44 -15 54c-11 11 -29 15 -56 15h-281c-27 0 -45 -4 -56 -15c-10 -10 -15 -27 -15 -54
v-316c0 -27 5 -44 15 -54c11 -11 29 -15 56 -15zM506 -6h-285c-60 0 -100 13 -127 40c-24 24 -36 65 -36 118v316c0 53 12 94 36 118c27 27 67 40 127 40h285c60 0 100 -13 127 -40c24 -24 36 -65 36 -118v-316c0 -53 -12 -94 -36 -118c-27 -27 -67 -40 -127 -40zM310 309
h83c4 0 5 0 9 3l12 12c3 3 4 3 4 8v43c0 10 -2 17 -7 22s-13 7 -24 7h-77v-95z" />
    <glyph glyph-name="copyright" unicode="&#xa9;" horiz-adv-x="727" 
d="M345 214h32c35 0 61 8 81 25l27 -50c-25 -25 -58 -38 -107 -38h-45c-61 0 -89 28 -89 79v159c0 50 28 79 89 79h43c49 0 82 -13 107 -38l-27 -50c-20 17 -46 25 -81 25h-30c-23 0 -34 -7 -34 -30v-131c0 -23 11 -30 34 -30zM223 83h281c27 0 45 4 56 15
c10 10 15 27 15 54v316c0 27 -5 44 -15 54c-11 11 -29 15 -56 15h-281c-27 0 -45 -4 -56 -15c-10 -10 -15 -27 -15 -54v-316c0 -27 5 -44 15 -54c11 -11 29 -15 56 -15zM506 -6h-285c-60 0 -100 13 -127 40c-24 24 -36 65 -36 118v316c0 53 12 94 36 118c27 27 67 40 127 40
h285c60 0 100 -13 127 -40c24 -24 36 -65 36 -118v-316c0 -53 -12 -94 -36 -118c-27 -27 -67 -40 -127 -40z" />
    <glyph glyph-name="trademark" unicode="&#x2122;" horiz-adv-x="756" 
d="M211 543v-272h-84v272h-96v77h276v-77h-96zM698 604v-333h-78v204l-56 -91c-7 -11 -11 -13 -22 -13h-29c-11 0 -15 2 -22 13l-56 91v-204h-77v333c0 12 4 16 16 16h43c12 0 17 -4 24 -15l87 -141l88 141c7 11 13 15 25 15h41c13 0 16 -4 16 -16z" />
    <glyph glyph-name="quotedblleft" unicode="&#x201c;" horiz-adv-x="401" 
d="M329 596l-15 -52c-7 -23 -9 -35 -9 -44c0 -29 30 -34 30 -70c0 -32 -23 -56 -59 -56c-38 0 -63 23 -63 61c0 27 10 57 30 105l30 69c5 12 10 15 23 11l21 -6c12 -3 15 -8 12 -18zM171 596l-15 -52c-7 -23 -9 -35 -9 -44c0 -29 30 -34 30 -70c0 -32 -23 -56 -59 -56
c-38 0 -63 23 -63 61c0 27 10 57 30 105l30 69c5 12 10 15 23 11l21 -6c12 -3 15 -8 12 -18z" />
    <glyph glyph-name="quotedblright" unicode="&#x201d;" horiz-adv-x="401" 
d="M61 404l15 52c7 23 9 35 9 44c0 29 -30 34 -30 70c0 32 23 56 59 56c38 0 63 -23 63 -61c0 -27 -10 -57 -30 -105l-30 -69c-5 -12 -10 -15 -23 -11l-21 6c-12 3 -15 8 -12 18zM219 404l15 52c7 23 9 35 9 44c0 29 -30 34 -30 70c0 32 23 56 59 56c38 0 63 -23 63 -61
c0 -27 -10 -57 -30 -105l-30 -69c-5 -12 -10 -15 -23 -11l-21 6c-12 3 -15 8 -12 18z" />
    <glyph glyph-name="quoteleft" unicode="&#x2018;" horiz-adv-x="234" 
d="M171 596l-15 -52c-7 -23 -9 -35 -9 -44c0 -29 30 -34 30 -70c0 -32 -23 -56 -59 -56c-38 0 -63 23 -63 61c0 27 10 57 30 105l30 69c5 12 10 15 23 11l21 -6c12 -3 15 -8 12 -18z" />
    <glyph glyph-name="quoteright" unicode="&#x2019;" horiz-adv-x="225" 
d="M61 404l15 52c7 23 9 35 9 44c0 29 -30 34 -30 70c0 32 23 56 59 56c38 0 63 -23 63 -61c0 -27 -10 -57 -30 -105l-30 -69c-5 -12 -10 -15 -23 -11l-21 6c-12 3 -15 8 -12 18z" />
    <glyph glyph-name="guillemotleft" unicode="&#xab;" horiz-adv-x="655" 
d="M597 384l-163 -130l163 -130l-56 -74l-200 162c-13 11 -16 17 -16 32v19c0 16 3 21 16 32l200 163zM321 384l-163 -130l163 -130l-56 -74l-200 162c-13 11 -16 17 -16 32v19c0 16 3 21 16 32l200 163z" />
    <glyph glyph-name="guillemotright" unicode="&#xbb;" horiz-adv-x="655" 
d="M221 254l-163 130l56 74l200 -163c13 -11 16 -16 16 -32v-19c0 -15 -3 -21 -16 -32l-200 -162l-56 74zM497 254l-163 130l56 74l200 -163c13 -11 16 -16 16 -32v-19c0 -15 -3 -21 -16 -32l-200 -162l-56 74z" />
    <glyph glyph-name="guilsinglleft" unicode="&#x2039;" horiz-adv-x="379" 
d="M321 384l-163 -130l163 -130l-56 -74l-200 162c-13 11 -16 17 -16 32v19c0 16 3 21 16 32l200 163z" />
    <glyph glyph-name="guilsinglright" unicode="&#x203a;" horiz-adv-x="379" 
d="M221 254l-163 130l56 74l200 -163c13 -11 16 -16 16 -32v-19c0 -15 -3 -21 -16 -32l-200 -162l-56 74z" />
    <glyph glyph-name="quotesinglbase" unicode="&#x201a;" horiz-adv-x="226" 
d="M61 -146l15 52c7 23 9 35 9 44c0 29 -30 34 -30 70c0 32 23 56 59 56c38 0 63 -23 63 -61c0 -27 -10 -57 -30 -105l-30 -69c-5 -12 -10 -15 -23 -11l-21 6c-12 3 -15 8 -12 18z" />
    <glyph glyph-name="quotedblbase" unicode="&#x201e;" horiz-adv-x="402" 
d="M61 -146l15 52c7 23 9 35 9 44c0 29 -30 34 -30 70c0 32 23 56 59 56c38 0 63 -23 63 -61c0 -27 -10 -57 -30 -105l-30 -69c-5 -12 -10 -15 -23 -11l-21 6c-12 3 -15 8 -12 18zM219 -146l15 52c7 23 9 35 9 44c0 29 -30 34 -30 70c0 32 23 56 59 56c38 0 63 -23 63 -61
c0 -27 -10 -57 -30 -105l-30 -69c-5 -12 -10 -15 -23 -11l-21 6c-12 3 -15 8 -12 18z" />
    <glyph glyph-name="ordfeminine" unicode="&#xaa;" horiz-adv-x="402" 
d="M211 431h-39c-31 0 -49 2 -49 -39v-9c0 -34 13 -39 45 -39h66c5 0 9 1 11 2l24 8c2 1 3 2 3 4v54c0 4 -1 6 -7 8l-30 8c-8 2 -15 3 -24 3zM251 281h-98c-66 0 -103 32 -103 98v16c0 66 37 99 103 99h54c16 0 32 -3 47 -8l17 -5v28c0 30 -13 49 -54 49h-30
c-43 0 -70 -9 -94 -28l-33 53c33 32 64 43 123 43h40c84 0 122 -39 122 -111v-181c0 -16 -5 -26 -20 -32l-33 -13c-13 -5 -23 -8 -41 -8z" />
    <glyph glyph-name="ordmasculine" unicode="&#xba;" horiz-adv-x="405" 
d="M126 504v-102c0 -21 2 -33 10 -41c9 -9 25 -11 50 -11h33c25 0 41 2 50 11c8 8 10 20 10 41v102c0 21 -2 33 -10 41c-9 9 -25 11 -50 11h-33c-25 0 -41 -2 -50 -11c-8 -8 -10 -20 -10 -41zM52 388v131c0 34 6 59 22 76c19 21 51 31 101 31h55c50 0 82 -10 101 -31
c16 -17 22 -42 22 -76v-131c0 -34 -6 -59 -22 -76c-19 -21 -51 -31 -101 -31h-55c-50 0 -82 10 -101 31c-16 17 -22 42 -22 76z" />
    <glyph glyph-name="zero" unicode="0" horiz-adv-x="553" 
d="M238 91h77c30 0 49 6 61 18c10 10 17 30 17 56v289c0 26 -7 46 -17 56c-12 12 -31 18 -61 18h-77c-30 0 -49 -6 -61 -18c-10 -10 -17 -30 -17 -56v-289c0 -26 7 -46 17 -56c12 -12 31 -18 61 -18zM321 -6h-89c-61 0 -105 15 -137 47c-25 25 -40 66 -40 121v296
c0 55 15 96 40 121c32 32 76 47 137 47h89c61 0 105 -15 137 -47c25 -25 40 -66 40 -121v-296c0 -55 -15 -96 -40 -121c-32 -32 -76 -47 -137 -47z" />
    <glyph glyph-name="one" unicode="1" horiz-adv-x="424" 
d="M380 0h-326v91h121v438h-114v91h187c25 0 32 -8 32 -30v-499h100v-91z" />
    <glyph glyph-name="two" unicode="2" horiz-adv-x="514" 
d="M276 530h-45c-66 0 -94 -17 -129 -47l-48 78c42 46 99 65 174 65h54c61 0 105 -15 137 -47c25 -25 40 -66 40 -122v-29c0 -82 -23 -120 -111 -155l-132 -53c-43 -17 -52 -34 -52 -74v-55h294v-91h-360c-32 0 -38 20 -38 53v97c0 77 22 119 111 155l128 52
c43 17 55 36 55 83v16c0 26 -7 46 -17 56c-12 12 -31 18 -61 18z" />
    <glyph glyph-name="three" unicode="3" horiz-adv-x="542" 
d="M398 443l-64 -85c88 0 148 -36 148 -149v-75c0 -40 -2 -53 -24 -71l-63 -53c-17 -14 -31 -16 -63 -16h-113c-77 0 -136 21 -177 66l49 78c34 -37 82 -49 149 -49h73c13 0 18 2 26 9l30 25c7 6 9 11 9 21v64c0 60 -21 75 -81 75h-64c-15 0 -19 4 -19 18v22
c0 16 2 23 14 39l93 124c17 22 22 35 24 43h-269v91h356c17 0 20 -5 20 -19v-17c0 -55 -7 -79 -54 -141z" />
    <glyph glyph-name="four" unicode="4" horiz-adv-x="564" 
d="M324 620l-170 -408h194v178h104v-178h75v-87h-75v-125h-104v125h-270c-15 0 -21 4 -26 19l-5 16c-4 13 -5 17 -5 24c0 11 2 20 14 48l163 388h105z" />
    <glyph glyph-name="five" unicode="5" horiz-adv-x="524" 
d="M289 292h-170c-29 0 -41 13 -41 39v259c0 22 7 30 31 30h323v-91h-252v-143h115c61 0 105 -15 137 -47c25 -25 40 -66 40 -121v-56c0 -55 -15 -96 -40 -121c-32 -32 -76 -47 -137 -47h-71c-85 0 -138 16 -182 65l48 77c30 -30 69 -47 131 -47h68c30 0 49 6 61 18
c10 10 17 30 17 56v55c0 26 -7 46 -17 56c-12 12 -31 18 -61 18z" />
    <glyph glyph-name="six" unicode="6" horiz-adv-x="554" 
d="M167 249v-88c0 -26 7 -46 17 -56c12 -12 31 -18 61 -18h73c30 0 49 6 61 18c10 10 17 32 17 58v69c0 26 -7 46 -17 56c-12 12 -31 18 -61 18h-61c-18 0 -21 -1 -34 -6l-33 -14c-22 -9 -23 -12 -23 -37zM322 -6h-81c-61 0 -105 15 -137 47c-25 25 -40 66 -40 121v296
c0 55 15 96 40 121c32 32 76 47 137 47h71c73 0 117 -17 161 -58l-40 -76c-34 24 -78 39 -126 39h-62c-30 0 -49 -6 -61 -18c-10 -10 -17 -30 -17 -56v-87l36 16c23 10 35 12 59 12h60c61 0 105 -15 137 -47c25 -25 40 -66 40 -121v-68c0 -55 -15 -96 -40 -121
c-32 -32 -76 -47 -137 -47z" />
    <glyph glyph-name="seven" unicode="7" horiz-adv-x="488" 
d="M243 0h-99v41c0 42 2 59 18 93l158 338c13 29 16 41 18 57h-305v91h392c17 0 21 -5 21 -19v-30c0 -56 -3 -72 -39 -148l-149 -318c-10 -21 -12 -32 -13 -62z" />
    <glyph glyph-name="eight" unicode="8" horiz-adv-x="564" 
d="M237 88h90c30 0 49 6 61 18c10 10 17 30 17 56v55c0 11 -2 15 -11 24l-17 17c-7 7 -11 9 -24 9h-142c-13 0 -17 -2 -24 -9l-17 -17c-9 -9 -11 -13 -11 -24v-55c0 -26 7 -46 17 -56c12 -12 31 -18 61 -18zM225 356h114c13 0 17 2 24 9l15 15c9 9 11 13 11 24v54
c0 26 -7 46 -17 56c-12 12 -31 18 -61 18h-58c-30 0 -49 -6 -61 -18c-10 -10 -17 -30 -17 -56v-54c0 -11 2 -15 11 -24l15 -15c7 -7 11 -9 24 -9zM333 -6h-102c-61 0 -105 15 -137 47c-25 25 -40 66 -40 121v42c0 42 5 55 30 80l37 37l-20 20c-23 24 -31 37 -31 84v33
c0 55 15 96 40 121c32 32 76 47 137 47h70c61 0 105 -15 137 -47c25 -25 40 -66 40 -121v-33c0 -47 -8 -60 -31 -84l-20 -20l37 -37c25 -25 30 -38 30 -80v-42c0 -55 -15 -96 -40 -121c-32 -32 -76 -47 -137 -47z" />
    <glyph glyph-name="nine" unicode="9" horiz-adv-x="554" 
d="M387 371v88c0 26 -7 46 -17 56c-12 12 -31 18 -61 18h-73c-30 0 -49 -6 -61 -18c-10 -10 -17 -32 -17 -58v-69c0 -26 7 -46 17 -56c12 -12 31 -18 61 -18h61c18 0 21 1 34 6l33 14c22 9 23 12 23 37zM232 626h81c61 0 105 -15 137 -47c25 -25 40 -66 40 -121v-296
c0 -55 -15 -96 -40 -121c-32 -32 -76 -47 -137 -47h-71c-73 0 -117 17 -161 58l40 76c34 -24 78 -39 126 -39h62c30 0 49 6 61 18c10 10 17 30 17 56v87l-36 -16c-23 -10 -35 -12 -59 -12h-60c-61 0 -105 15 -137 47c-25 25 -40 66 -40 121v68c0 55 15 96 40 121
c32 32 76 47 137 47z" />
    <glyph glyph-name="dollar" unicode="$" horiz-adv-x="564" 
d="M323 356l12 -2c66 -11 100 -15 130 -45c21 -21 37 -48 37 -121v-26c0 -55 -15 -96 -40 -121c-32 -32 -76 -47 -137 -47h-2v-91h-71v91h-15c-84 0 -139 14 -188 63l45 77c30 -26 69 -43 119 -43h39v169l-25 4c-50 8 -98 13 -128 43c-21 21 -40 55 -40 123v28
c0 55 15 96 40 121c32 32 76 47 137 47h16v91h71v-91c65 -2 116 -15 161 -60l-45 -77c-33 27 -70 37 -116 40v-173zM323 251v-160c27 1 44 6 56 18c10 10 17 30 17 56v17c0 35 -14 61 -59 67zM252 365v164h-9c-30 0 -49 -6 -61 -18c-10 -10 -17 -30 -17 -56v-18
c0 -38 15 -62 59 -68z" />
    <glyph glyph-name="cent" unicode="&#xa2;" horiz-adv-x="564" 
d="M346 -6v-99h-71v99h-22c-58 0 -101 15 -128 43c-25 26 -38 64 -38 116v189c0 52 13 90 38 116c27 28 70 43 128 43h22v89h71v-90c58 -3 103 -22 139 -56l-43 -72c-29 22 -62 34 -96 36v-321c38 2 74 12 105 36l43 -71c-38 -37 -84 -55 -148 -58zM204 102
c11 -11 29 -15 56 -15h15v321h-15c-27 0 -45 -4 -56 -15c-10 -10 -15 -27 -15 -54v-183c0 -27 5 -44 15 -54z" />
    <glyph glyph-name="Euro" unicode="&#x20ac;" horiz-adv-x="564" 
d="M218 452v-48h151v-66h-151v-53h151v-67h-151v-50c0 -26 7 -46 17 -56c12 -12 31 -18 61 -18h48c60 0 100 15 133 42l46 -77c-42 -46 -96 -65 -171 -65h-65c-61 0 -105 15 -137 47c-25 25 -40 66 -40 121v56h-67v67h67v53h-67v66h67v54c0 55 15 96 40 121
c32 32 76 47 137 47h59c75 0 129 -19 171 -65l-46 -78c-33 27 -73 43 -133 43h-42c-30 0 -49 -6 -61 -18c-10 -10 -17 -30 -17 -56z" />
    <glyph glyph-name="florin" unicode="&#x192;" horiz-adv-x="564" 
d="M201 485v53c0 52 13 90 38 116c27 28 70 43 128 43h108v-94h-101c-27 0 -45 -4 -56 -15c-10 -10 -15 -27 -15 -54v-49h158v-88h-158v-413c0 -74 -7 -95 -49 -138l-55 -57l-67 60l59 81c8 12 10 18 10 33v434h-79v88h79z" />
    <glyph glyph-name="sterling" unicode="&#xa3;" horiz-adv-x="564" 
d="M330 530h-27c-51 0 -74 -20 -74 -61c0 -11 1 -20 5 -47l11 -75h201v-85h-195v-171h247v-91h-425v91h72v171h-69v85h65l-12 78c-3 21 -4 43 -4 56c0 104 87 145 175 145h24c82 0 140 -20 185 -65c-15 -25 -30 -49 -44 -74c-37 29 -76 43 -135 43z" />
    <glyph glyph-name="yen" unicode="&#xa5;" horiz-adv-x="564" 
d="M115 143h113v41h-113v66h90l-183 370h112l150 -323l150 323h107l-183 -370h89v-66h-111v-41h111v-67h-111v-76h-108v76h-113v67z" />
    <glyph glyph-name="numbersign" unicode="#" horiz-adv-x="564" 
d="M430 241h101v-88h-101v-153h-88v153h-120v-153h-88v153h-102v88h102v136h-102v88h102v155h88v-155h120v155h88v-155h101v-88h-101v-136zM222 377v-136h120v136h-120z" />
    <glyph glyph-name="percent" unicode="%" horiz-adv-x="874" 
d="M268 404v104c0 18 -3 27 -10 34c-8 8 -24 9 -44 9h-23c-20 0 -36 -1 -44 -9c-7 -7 -10 -16 -10 -34v-104c0 -18 3 -27 10 -34c8 -8 24 -9 44 -9h23c20 0 36 1 44 9c7 7 10 16 10 34zM53 397v118c0 36 9 62 30 83c17 17 48 28 87 28h65c39 0 70 -11 87 -28
c21 -21 30 -47 30 -83v-118c0 -36 -9 -62 -30 -83c-17 -17 -48 -28 -87 -28h-65c-39 0 -70 11 -87 28c-21 21 -30 47 -30 83zM737 112v104c0 18 -3 27 -10 34c-8 8 -24 9 -44 9h-23c-20 0 -36 -1 -44 -9c-7 -7 -10 -16 -10 -34v-104c0 -18 3 -27 10 -34c8 -8 24 -9 44 -9h23
c20 0 36 1 44 9c7 7 10 16 10 34zM522 105v118c0 36 9 62 30 83c17 17 48 28 87 28h65c39 0 70 -11 87 -28c21 -21 30 -47 30 -83v-118c0 -36 -9 -62 -30 -83c-17 -17 -48 -28 -87 -28h-65c-39 0 -70 11 -87 28c-21 21 -30 47 -30 83zM233 0l306 620h102l-306 -620h-102z
" />
    <glyph glyph-name="perthousand" unicode="&#x2030;" horiz-adv-x="1230" 
d="M268 404v104c0 18 -3 27 -10 34c-8 8 -24 9 -44 9h-23c-20 0 -36 -1 -44 -9c-7 -7 -10 -16 -10 -34v-104c0 -18 3 -27 10 -34c8 -8 24 -9 44 -9h23c20 0 36 1 44 9c7 7 10 16 10 34zM53 397v118c0 36 9 62 30 83c17 17 48 28 87 28h65c39 0 70 -11 87 -28
c21 -21 30 -47 30 -83v-118c0 -36 -9 -62 -30 -83c-17 -17 -48 -28 -87 -28h-65c-39 0 -70 11 -87 28c-21 21 -30 47 -30 83zM737 112v104c0 18 -3 27 -10 34c-8 8 -24 9 -44 9h-23c-20 0 -36 -1 -44 -9c-7 -7 -10 -16 -10 -34v-104c0 -18 3 -27 10 -34c8 -8 24 -9 44 -9h23
c20 0 36 1 44 9c7 7 10 16 10 34zM522 105v118c0 36 9 62 30 83c17 17 48 28 87 28h65c39 0 70 -11 87 -28c21 -21 30 -47 30 -83v-118c0 -36 -9 -62 -30 -83c-17 -17 -48 -28 -87 -28h-65c-39 0 -70 11 -87 28c-21 21 -30 47 -30 83zM1093 112v104c0 18 -3 27 -10 34
c-8 8 -24 9 -44 9h-23c-20 0 -36 -1 -44 -9c-7 -7 -10 -16 -10 -34v-104c0 -18 3 -27 10 -34c8 -8 24 -9 44 -9h23c20 0 36 1 44 9c7 7 10 16 10 34zM878 105v118c0 36 9 62 30 83c17 17 48 28 87 28h65c39 0 70 -11 87 -28c21 -21 30 -47 30 -83v-118c0 -36 -9 -62 -30 -83
c-17 -17 -48 -28 -87 -28h-65c-39 0 -70 11 -87 28c-21 21 -30 47 -30 83zM233 0l306 620h102l-306 -620h-102z" />
    <glyph glyph-name="plus" unicode="+" horiz-adv-x="435" 
d="M263 268v-130h-90v130h-130v90h130v129h90v-129h128v-90h-128z" />
    <glyph glyph-name="minus" unicode="&#x2212;" horiz-adv-x="435" 
d="M43 358h348v-90h-348v90z" />
    <glyph glyph-name="multiply" unicode="&#xd7;" horiz-adv-x="435" 
d="M281 313l92 -92l-64 -64l-92 92l-91 -91l-64 64l92 91l-92 91l64 64l91 -91l91 91l64 -64z" />
    <glyph glyph-name="less" unicode="&#x3c;" horiz-adv-x="435" 
d="M42 292v41c0 14 4 20 19 27l331 146v-99l-230 -94l230 -95v-99l-331 146c-15 7 -19 13 -19 27z" />
    <glyph glyph-name="divide" unicode="&#xf7;" horiz-adv-x="435" 
d="M220 110c-30 0 -55 22 -55 55s25 55 55 55s55 -22 55 -55s-25 -55 -55 -55zM43 358h348v-90h-348v90zM220 406c-30 0 -55 22 -55 55s25 55 55 55s55 -22 55 -55s-25 -55 -55 -55z" />
    <glyph glyph-name="equal" unicode="=" horiz-adv-x="435" 
d="M392 357h-349v90h349v-90zM392 178h-349v90h349v-90z" />
    <glyph glyph-name="logicalnot" unicode="&#xac;" horiz-adv-x="435" 
d="M391 178h-90v179h-258v90h348v-269z" />
    <glyph glyph-name="greater" unicode="&#x3e;" horiz-adv-x="435" 
d="M393 333v-41c0 -14 -4 -20 -19 -27l-331 -146v99l230 95l-230 94v99l331 -146c15 -7 19 -13 19 -27z" />
    <glyph glyph-name="notequal" unicode="&#x2260;" horiz-adv-x="435" 
d="M392 357h-116l-21 -89h137v-90h-158l-23 -101h-93l23 101h-98v90h119l21 89h-140v90h161l24 101h93l-24 -101h95v-90z" />
    <glyph glyph-name="approxequal" unicode="&#x2248;" horiz-adv-x="435" 
d="M272 439c20 0 58 25 89 44l42 -57l-54 -44c-29 -24 -52 -33 -78 -33c-51 0 -76 44 -108 44c-18 0 -57 -25 -89 -45l-42 58l37 30c38 31 63 47 95 47c50 0 81 -44 108 -44zM272 234c20 0 58 25 89 44l42 -57l-54 -44c-29 -24 -52 -33 -78 -33c-51 0 -76 44 -108 44
c-18 0 -57 -25 -89 -45l-42 58l37 30c38 31 63 47 95 47c50 0 81 -44 108 -44z" />
    <glyph glyph-name="plusminus" unicode="&#xb1;" horiz-adv-x="435" 
d="M263 302v-130h-90v130h-130v90h130v129h90v-129h128v-90h-128zM43 90h348v-90h-348v90z" />
    <glyph glyph-name="lessequal" unicode="&#x2264;" horiz-adv-x="435" 
d="M45 90h348v-90h-348v90zM43 326v41c0 14 4 20 19 27l331 146v-99l-230 -94l230 -95v-99l-331 146c-15 7 -19 13 -19 27z" />
    <glyph glyph-name="greaterequal" unicode="&#x2265;" horiz-adv-x="435" 
d="M43 90h348v-90h-348v90zM393 367v-41c0 -14 -4 -20 -19 -27l-331 -146v99l230 95l-230 94v99l331 -146c15 -7 19 -13 19 -27z" />
    <glyph glyph-name="asciicircum" unicode="^" horiz-adv-x="533" 
d="M246 620h41c18 0 24 -3 32 -17l173 -298h-110l-116 212l-115 -212h-111l174 298c7 13 14 17 32 17z" />
    <glyph glyph-name="asciitilde" unicode="~" horiz-adv-x="533" 
d="M348 195c-73 0 -123 71 -166 71c-29 0 -64 -28 -106 -65l-56 60c62 65 105 106 164 106c79 0 125 -72 166 -72c27 0 62 27 106 66l56 -61c-61 -64 -105 -105 -164 -105z" />
    <glyph glyph-name="lozenge" unicode="&#x25ca;" horiz-adv-x="610" 
d="M153 310l152 -189l151 189l-151 190zM571 310c0 -9 -4 -17 -9 -23l-234 -287c-8 -9 -15 -11 -23 -11c-11 0 -15 2 -23 11l-234 287c-7 8 -9 14 -9 23c0 10 2 14 9 22l234 290c8 9 15 11 23 11c10 0 16 -2 23 -11l234 -290c4 -5 9 -12 9 -22z" />
    <glyph glyph-name="degree" unicode="&#xb0;" horiz-adv-x="428" 
d="M282 438v55c0 21 -4 31 -11 39c-9 9 -22 13 -43 13h-28c-21 0 -34 -4 -43 -13c-7 -8 -12 -18 -12 -39v-55c0 -20 5 -31 12 -39c9 -9 22 -13 43 -13h28c21 0 34 4 43 13c7 8 11 19 11 39zM60 422v88c0 35 11 64 32 84c20 20 52 32 95 32h53c44 0 75 -12 95 -32
c22 -20 33 -49 33 -84v-88c0 -36 -11 -65 -33 -85c-20 -20 -51 -31 -95 -31h-53c-43 0 -75 11 -95 31c-21 20 -32 49 -32 85z" />
    <glyph glyph-name="quotesingle" unicode="'" horiz-adv-x="222" 
d="M56 620h87c14 0 23 -2 22 -19l-8 -198c-1 -14 -5 -19 -19 -19h-55c-14 0 -18 5 -19 19z" />
    <glyph glyph-name="quotedbl" unicode="&#x22;" horiz-adv-x="389" 
d="M56 620h87c14 0 23 -2 22 -19l-8 -198c-1 -14 -5 -19 -19 -19h-55c-14 0 -18 5 -19 19zM223 620h87c14 0 23 -2 22 -19l-8 -198c-1 -14 -5 -19 -19 -19h-55c-14 0 -18 5 -19 19z" />
    <glyph glyph-name="radical" unicode="&#x221a;" horiz-adv-x="663" 
d="M116 401h-82v90h122c32 0 39 -5 51 -35l121 -325l208 560h112l-253 -665c-11 -28 -20 -32 -46 -32h-46c-25 0 -35 7 -45 33z" />
    <glyph glyph-name="currency" unicode="&#xa4;" horiz-adv-x="564" 
d="M437 372v-124c0 -31 -7 -53 -18 -70l74 -87h-105l-36 50c-11 -3 -24 -4 -39 -4h-64c-14 0 -28 1 -39 4c-12 -17 -24 -33 -35 -50h-105l74 87c-12 17 -17 40 -17 70v124c0 30 5 52 17 69l-74 88h105c11 -17 23 -33 35 -50c11 3 25 4 39 4h64c15 0 28 -1 39 -4l36 50h105
l-74 -88c11 -17 18 -39 18 -69zM208 355v-90c0 -21 2 -33 10 -41c9 -9 25 -11 50 -11h27c25 0 41 2 50 11c8 8 10 20 10 41v90c0 21 -2 33 -10 41c-9 9 -25 11 -50 11h-27c-25 0 -41 -2 -50 -11c-8 -8 -10 -20 -10 -41z" />
    <glyph glyph-name="infinity" unicode="&#x221e;" horiz-adv-x="672" 
d="M207 214h26c12 0 21 1 31 9l14 12c9 9 14 11 14 27v94c0 16 -5 18 -14 27l-14 12c-10 8 -19 9 -31 9h-12c-50 0 -75 -15 -75 -65v-55c0 -42 12 -70 61 -70zM439 214h26c49 0 61 28 61 70v55c0 50 -25 65 -75 65h-12c-12 0 -21 -1 -31 -9l-14 -12c-9 -9 -14 -11 -14 -27
v-94c0 -16 5 -18 14 -27l14 -12c10 -8 19 -9 31 -9zM336 178l-15 -15c-29 -29 -50 -41 -98 -41h-9c-112 0 -160 55 -160 167v53c0 104 55 154 160 154h9c36 0 58 -4 98 -42l15 -14l15 14c40 38 62 42 98 42h9c105 0 160 -50 160 -154v-53c0 -112 -48 -167 -160 -167h-9
c-48 0 -69 12 -98 41z" />
    <glyph glyph-name="mu" unicode="&#xb5;" horiz-adv-x="544" 
d="M222 88h118c10 0 11 0 18 5l20 15c6 5 6 5 6 12v375h102v-403c0 -26 -6 -33 -33 -53l-34 -26c-23 -17 -37 -19 -71 -19h-99c-34 0 -37 0 -65 15l-20 11v-210h-102v685h102v-373c0 -7 1 -8 6 -11l35 -19c6 -3 9 -4 17 -4z" />
    <glyph glyph-name="mu" unicode="&#x3bc;" horiz-adv-x="544" 
d="M222 88h118c10 0 11 0 18 5l20 15c6 5 6 5 6 12v375h102v-403c0 -26 -6 -33 -33 -53l-34 -26c-23 -17 -37 -19 -71 -19h-99c-34 0 -37 0 -65 15l-20 11v-210h-102v685h102v-373c0 -7 1 -8 6 -11l35 -19c6 -3 9 -4 17 -4z" />
    <glyph glyph-name="partialdiff" unicode="&#x2202;" horiz-adv-x="555" 
d="M392 161v88c0 25 -1 28 -23 37l-33 14c-13 5 -16 6 -34 6h-72c-30 0 -49 -6 -61 -18c-10 -10 -17 -30 -17 -56v-69c0 -26 7 -48 17 -58c12 -12 31 -18 61 -18h84c30 0 49 6 61 18c10 10 17 30 17 56zM314 531h-69c-55 0 -96 -14 -129 -41l-42 72c42 44 92 64 168 64h76
c61 0 105 -15 137 -47c25 -25 40 -66 40 -121v-296c0 -55 -15 -96 -40 -121c-32 -32 -76 -47 -137 -47h-92c-61 0 -105 15 -137 47c-25 25 -40 66 -40 121v68c0 55 15 96 40 121c32 32 76 47 137 47h71c24 0 36 -2 59 -12l36 -16v87c0 26 -7 46 -17 56c-12 12 -31 18 -61 18
z" />
    <glyph glyph-name="summation" unicode="&#x2211;" horiz-adv-x="541" 
d="M474 527h-291l243 -242c24 -23 36 -43 36 -66c0 -24 -13 -42 -36 -66l-243 -250h308v-93h-425c-18 0 -26 7 -26 26v41c0 21 5 33 22 51l267 275c6 6 8 10 8 16c0 5 -1 9 -7 15l-268 268c-18 17 -22 28 -22 51v41c0 19 8 26 26 26h408v-93z" />
    <glyph glyph-name="product" unicode="&#x220f;" horiz-adv-x="662" 
d="M542 0h-108v526h-207v-526h-108v526h-86v94h596v-94h-87v-526z" />
    <glyph glyph-name="pi" unicode="&#x3c0;" horiz-adv-x="615" 
d="M486 408v-242c0 -21 3 -48 18 -63c11 -11 31 -18 58 -18h25v-91h-37c-58 0 -101 14 -125 38c-30 30 -40 72 -40 124v252h-183v-408h-102v408h-76v87h539v-87h-77z" />
    <glyph glyph-name="integral" unicode="&#x222b;" horiz-adv-x="311" 
d="M104 -22v453c0 74 7 95 49 138l55 57l67 -60l-59 -81c-8 -12 -10 -18 -10 -33v-453c0 -74 -7 -95 -49 -138l-55 -57l-67 60l59 81c8 12 10 18 10 33z" />
    <glyph glyph-name="Omega" unicode="&#x3a9;" horiz-adv-x="703" 
d="M451 526h-199c-30 0 -49 -6 -61 -18c-10 -10 -17 -30 -17 -56v-60c0 -55 -3 -93 30 -138l85 -117c30 -42 36 -58 36 -90v-47h-248v91h125l-89 122c-39 54 -47 90 -47 180v65c0 55 15 96 40 121c32 32 76 47 137 47h217c61 0 105 -15 137 -47c25 -25 40 -66 40 -121v-65
c0 -90 -8 -126 -47 -180l-89 -122h125v-91h-248v47c0 32 6 48 36 90l85 117c33 45 30 83 30 138v60c0 26 -7 46 -17 56c-12 12 -31 18 -61 18z" />
    <glyph glyph-name="Omega" unicode="&#x2126;" horiz-adv-x="703" 
d="M451 526h-199c-30 0 -49 -6 -61 -18c-10 -10 -17 -30 -17 -56v-60c0 -55 -3 -93 30 -138l85 -117c30 -42 36 -58 36 -90v-47h-248v91h125l-89 122c-39 54 -47 90 -47 180v65c0 55 15 96 40 121c32 32 76 47 137 47h217c61 0 105 -15 137 -47c25 -25 40 -66 40 -121v-65
c0 -90 -8 -126 -47 -180l-89 -122h125v-91h-248v47c0 32 6 48 36 90l85 117c33 45 30 83 30 138v60c0 26 -7 46 -17 56c-12 12 -31 18 -61 18z" />
    <glyph glyph-name="Delta" unicode="&#x394;" horiz-adv-x="577" 
d="M288 475l-140 -379h279zM520 0h-463c-18 0 -24 9 -24 27v15c0 28 9 60 24 98l177 460c5 14 12 20 29 20h51c16 0 23 -6 29 -20l177 -460c16 -42 24 -73 24 -98v-15c0 -18 -6 -27 -24 -27z" />
    <glyph glyph-name="Delta" unicode="&#x2206;" horiz-adv-x="577" 
d="M288 475l-140 -379h279zM520 0h-463c-18 0 -24 9 -24 27v15c0 28 9 60 24 98l177 460c5 14 12 20 29 20h51c16 0 23 -6 29 -20l177 -460c16 -42 24 -73 24 -98v-15c0 -18 -6 -27 -24 -27z" />
    <glyph glyph-name="litre" unicode="&#x2113;" horiz-adv-x="300" 
d="M247 79h29v-85h-38c-58 0 -104 18 -131 46c-25 26 -38 64 -38 116v529h102v-525c0 -21 3 -48 18 -63c11 -11 31 -18 58 -18z" />
    <glyph glyph-name="estimated" unicode="&#x212e;" horiz-adv-x="811" 
d="M766 309h-584c-3 0 -5 -1 -5 -5v-177c0 -8 4 -15 9 -21c55 -57 134 -95 221 -95c93 0 177 42 232 107h52c-66 -76 -169 -126 -285 -126c-199 0 -361 145 -361 324c0 180 162 325 361 325s360 -145 360 -325v-7zM634 331v178c0 8 -4 16 -10 22c-54 55 -132 90 -217 90
c-87 0 -165 -36 -220 -93c-6 -5 -10 -14 -10 -23v-174c0 -3 2 -5 5 -5h447c3 0 5 2 5 5z" />
    <glyph glyph-name="numero" unicode="&#x2116;" horiz-adv-x="987" 
d="M736 445v-87c0 -21 2 -33 10 -41c9 -9 25 -11 50 -11h11c25 0 41 2 50 11c8 8 10 20 10 41v87c0 21 -2 33 -10 41c-9 9 -25 11 -50 11h-11c-25 0 -41 -2 -50 -11c-8 -8 -10 -20 -10 -41zM652 339v125c0 34 6 59 22 76c19 21 51 31 101 31h53c50 0 82 -10 101 -31
c16 -17 22 -42 22 -76v-125c0 -34 -6 -59 -22 -76c-19 -21 -51 -31 -101 -31h-53c-50 0 -82 10 -101 31c-16 17 -22 42 -22 76zM448 28l-230 344c-25 37 -42 66 -52 88v-460h-98v591c0 24 11 29 38 29h25c28 0 41 -6 57 -30l229 -344c24 -37 43 -68 53 -90v464h98v-592
c0 -24 -11 -29 -38 -29h-26c-28 0 -40 5 -56 29z" />
    <glyph glyph-name="fraction" unicode="&#x2044;" horiz-adv-x="366" 
d="M-21 0l306 620h102l-306 -620h-102z" />
    <glyph glyph-name="onesuperior" unicode="&#xb9;" horiz-adv-x="402" 
d="M309 230h-218v76h74v239h-71v75h124c24 0 31 -8 31 -29v-285h60v-76z" />
    <glyph glyph-name="twosuperior" unicode="&#xb2;" horiz-adv-x="402" 
d="M194 626h20c89 0 119 -44 119 -113v-22c0 -52 -13 -72 -64 -91l-87 -33c-26 -10 -27 -14 -27 -26v-35h177v-76h-226c-23 0 -33 10 -33 31v81c0 50 12 69 63 89l97 37c14 5 17 10 17 22v25c0 25 -14 34 -39 34h-17c-41 0 -67 -7 -95 -31l-32 62c31 31 60 46 127 46z" />
    <glyph glyph-name="threesuperior" unicode="&#xb3;" horiz-adv-x="402" 
d="M217 392h-47c-11 0 -16 3 -16 14v16c0 16 1 20 11 31l61 68c8 9 12 17 13 26h-158v73h224c12 0 16 -6 16 -17v-21c0 -38 -3 -56 -23 -78l-47 -52c56 -6 88 -35 88 -99v-13c0 -37 -3 -46 -26 -69l-16 -15c-24 -22 -32 -26 -72 -26h-54c-57 0 -90 19 -117 46l33 58
c25 -20 49 -30 84 -30h52c8 0 11 1 15 5l11 10c5 4 6 8 6 14v19c0 24 -10 40 -38 40z" />
    <glyph glyph-name="onehalf" unicode="&#xbd;" horiz-adv-x="915" 
d="M239 0l306 620h102l-306 -620h-102zM290 230h-218v76h74v239h-71v75h124c24 0 31 -8 31 -29v-285h60v-76zM705 394h20c89 0 119 -44 119 -113v-22c0 -52 -13 -72 -64 -91l-87 -33c-26 -10 -27 -14 -27 -26v-35h177v-76h-226c-23 0 -33 10 -33 31v81c0 50 12 69 63 89
l97 37c14 5 17 10 17 22v25c0 25 -14 34 -39 34h-17c-41 0 -67 -7 -95 -31l-32 62c31 31 60 46 127 46z" />
    <glyph glyph-name="onequarter" unicode="&#xbc;" horiz-adv-x="915" 
d="M732 254h82v-107h47v-73h-47v-74h-82v74h-173c-13 0 -18 3 -22 16l-3 11c-2 8 -4 14 -4 20s2 12 7 23l113 252h89l-112 -249h105v107zM237 0l306 620h102l-306 -620h-102zM287 230h-218v76h74v239h-71v75h124c24 0 31 -8 31 -29v-285h60v-76z" />
    <glyph glyph-name="threequarters" unicode="&#xbe;" horiz-adv-x="915" 
d="M744 254h82v-107h47v-73h-47v-74h-82v74h-173c-13 0 -18 3 -22 16l-3 11c-2 8 -4 14 -4 20s2 12 7 23l113 252h89l-112 -249h105v107zM249 0l306 620h102l-306 -620h-102zM202 392h-47c-11 0 -16 3 -16 14v16c0 16 1 20 11 31l61 68c8 9 12 17 13 26h-158v73h224
c12 0 16 -6 16 -17v-21c0 -38 -3 -56 -23 -78l-47 -52c56 -6 88 -35 88 -99v-13c0 -37 -3 -46 -26 -69l-16 -15c-24 -22 -32 -26 -72 -26h-54c-57 0 -90 19 -117 46l33 58c25 -20 49 -30 84 -30h52c8 0 11 1 15 5l11 10c5 4 6 8 6 14v19c0 24 -10 40 -38 40z" />
    <glyph glyph-name="grave" unicode="`" horiz-adv-x="420" 
d="M175 731l145 -120c9 -8 12 -13 4 -26l-14 -22c-7 -11 -13 -13 -26 -6l-193 105l40 65c7 11 13 15 21 15c7 0 13 -3 23 -11z" />
    <glyph glyph-name="acute" unicode="&#xb4;" horiz-adv-x="420" 
d="M100 611l145 120c10 8 16 11 23 11c8 0 14 -4 21 -15l40 -65l-193 -105c-13 -7 -19 -5 -26 6l-14 22c-8 13 -5 18 4 26z" />
    <glyph glyph-name="dieresis" unicode="&#xa8;" horiz-adv-x="420" 
d="M116 576c-36 0 -62 26 -62 62c0 35 26 62 62 62c35 0 62 -27 62 -62c0 -36 -27 -62 -62 -62zM303 576c-36 0 -62 26 -62 62c0 35 26 62 62 62c35 0 62 -27 62 -62c0 -36 -27 -62 -62 -62z" />
    <glyph glyph-name="circumflex" unicode="&#x2c6;" horiz-adv-x="420" 
d="M197 744h25c18 0 26 -3 38 -19l121 -159h-98l-73 102l-73 -102h-99l121 159c12 16 21 19 38 19z" />
    <glyph glyph-name="tilde" unicode="&#x2dc;" horiz-adv-x="420" 
d="M294 676l59 34l43 -59l-59 -47c-26 -21 -46 -29 -71 -29c-50 0 -77 44 -112 44c-10 0 -17 -3 -29 -10l-59 -34l-43 59l38 31c38 31 60 45 92 45c50 0 77 -44 112 -44c10 0 17 3 29 10z" />
    <glyph glyph-name="macron" unicode="&#xaf;" horiz-adv-x="420" 
d="M65 597v86h290v-86h-290z" />
    <glyph glyph-name="breve" unicode="&#x2d8;" horiz-adv-x="420" 
d="M240 567h-61c-39 0 -67 5 -85 23c-16 16 -24 39 -24 72v52h88v-26c0 -30 2 -41 26 -41h51c24 0 26 11 26 41v26h88v-52c0 -33 -8 -56 -24 -72c-18 -18 -46 -23 -85 -23z" />
    <glyph glyph-name="dotaccent" unicode="&#x2d9;" horiz-adv-x="420" 
d="M142 652c0 38 30 68 68 68s68 -30 68 -68s-30 -68 -68 -68s-68 30 -68 68z" />
    <glyph glyph-name="ring" unicode="&#x2da;" horiz-adv-x="420" 
d="M323 684v-53c0 -62 -35 -82 -101 -82h-24c-67 0 -101 20 -101 82v53c0 61 34 83 101 83h24c65 0 101 -22 101 -83zM203 615h13c28 0 35 2 35 30v26c0 23 -7 30 -35 30h-13c-28 0 -35 -7 -35 -30v-26c0 -28 7 -30 35 -30z" />
    <glyph glyph-name="cedilla" unicode="&#xb8;" horiz-adv-x="420" 
d="M167 -219l-38 56l76 51l-61 26c-19 8 -23 15 -23 25c0 6 2 14 5 21l27 65h54l-6 -48c-1 -8 2 -10 13 -15l54 -24c24 -11 31 -24 31 -41c0 -20 -9 -33 -31 -48z" />
    <glyph glyph-name="hungarumlaut" unicode="&#x2dd;" horiz-adv-x="420" 
d="M205 609l117 114c12 12 22 18 31 18c6 0 12 0 20 -11l38 -53l-168 -121c-11 -8 -19 -3 -25 5l-16 21c-4 5 -5 8 -5 12s1 8 8 15zM17 609l117 114c12 12 22 18 31 18c6 0 12 0 20 -11l38 -53l-168 -121c-11 -8 -19 -3 -25 5l-16 21c-4 5 -5 8 -5 12s1 8 8 15z" />
    <glyph glyph-name="ogonek" unicode="&#x2db;" horiz-adv-x="420" 
d="M318 9l-115 -130l83 -57l-45 -63l-115 73c-17 11 -26 22 -26 40c0 16 8 26 20 38l144 144z" />
    <glyph glyph-name="caron" unicode="&#x2c7;" horiz-adv-x="420" 
d="M222 562h-25c-17 0 -26 3 -38 19l-121 159h99l73 -102l73 102h98l-121 -159c-12 -16 -20 -19 -38 -19z" />
    <glyph glyph-name="commaaccent" unicode="&#x326;" horiz-adv-x="420" 
d="M151 -214l24 171h80c19 0 20 -10 16 -23l-42 -156c-4 -13 -9 -17 -25 -17h-35c-17 0 -21 7 -18 25z" />
    <glyph glyph-name="grave.cap" horiz-adv-x="420" 
d="M175 851l145 -120c9 -8 12 -13 4 -26l-14 -22c-7 -11 -13 -13 -26 -6l-193 105l40 65c7 11 13 15 21 15c7 0 13 -3 23 -11z" />
    <glyph glyph-name="acute.cap" horiz-adv-x="420" 
d="M100 731l145 120c10 8 16 11 23 11c8 0 14 -4 21 -15l40 -65l-193 -105c-13 -7 -19 -5 -26 6l-14 22c-8 13 -5 18 4 26z" />
    <glyph glyph-name="dieresis.cap" horiz-adv-x="420" 
d="M105 696c-36 0 -62 26 -62 62c0 35 26 62 62 62c35 0 62 -27 62 -62c0 -36 -27 -62 -62 -62zM315 696c-36 0 -62 26 -62 62c0 35 26 62 62 62c35 0 62 -27 62 -62c0 -36 -27 -62 -62 -62z" />
    <glyph glyph-name="circumflex.cap" horiz-adv-x="420" 
d="M197 864h25c18 0 26 -3 38 -19l121 -159h-98l-73 102l-73 -102h-99l121 159c12 16 21 19 38 19z" />
    <glyph glyph-name="tilde.cap" horiz-adv-x="420" 
d="M294 806l59 34l43 -59l-59 -47c-26 -21 -46 -29 -71 -29c-50 0 -77 44 -112 44c-10 0 -17 -3 -29 -10l-59 -34l-43 59l38 31c38 31 60 45 92 45c50 0 77 -44 112 -44c10 0 17 3 29 10z" />
    <glyph glyph-name="macron.cap" horiz-adv-x="420" 
d="M65 717v86h290v-86h-290z" />
    <glyph glyph-name="breve.cap" horiz-adv-x="420" 
d="M240 687h-61c-39 0 -67 5 -85 23c-16 16 -24 39 -24 72v52h88v-26c0 -30 2 -41 26 -41h51c24 0 26 11 26 41v26h88v-52c0 -33 -8 -56 -24 -72c-18 -18 -46 -23 -85 -23z" />
    <glyph glyph-name="dotaccent.cap" horiz-adv-x="420" 
d="M142 772c0 38 30 68 68 68s68 -30 68 -68s-30 -68 -68 -68s-68 30 -68 68z" />
    <glyph glyph-name="ring.cap" horiz-adv-x="420" 
d="M323 804v-53c0 -62 -35 -82 -101 -82h-24c-67 0 -101 20 -101 82v53c0 61 34 83 101 83h24c65 0 101 -22 101 -83zM203 735h13c28 0 35 2 35 30v26c0 23 -7 30 -35 30h-13c-28 0 -35 -7 -35 -30v-26c0 -28 7 -30 35 -30z" />
    <glyph glyph-name="hungarumlaut.cap" horiz-adv-x="420" 
d="M205 729l117 114c12 12 22 18 31 18c6 0 12 0 20 -11l38 -53l-168 -121c-11 -8 -19 -3 -25 5l-16 21c-4 5 -5 8 -5 12s1 8 8 15zM17 729l117 114c12 12 22 18 31 18c6 0 12 0 20 -11l38 -53l-168 -121c-11 -8 -19 -3 -25 5l-16 21c-4 5 -5 8 -5 12s1 8 8 15z" />
    <glyph glyph-name="caron.cap" horiz-adv-x="420" 
d="M222 682h-25c-17 0 -26 3 -38 19l-121 159h99l73 -102l73 102h98l-121 -159c-12 -16 -20 -19 -38 -19z" />
    <glyph glyph-name="Agrave" unicode="&#xc0;" horiz-adv-x="615" 
d="M409 233l-85 284c-3 10 -5 13 -14 13h-8c-9 0 -11 -3 -14 -13l-86 -284h207zM410 580l182 -580h-113l-43 141h-260l-43 -141h-110l181 580c11 35 28 46 75 46h56c47 0 64 -11 75 -46zM270 851l145 -120c9 -8 12 -13 4 -26l-14 -22c-7 -11 -13 -13 -26 -6l-193 105l40 65
c7 11 13 15 21 15c7 0 13 -3 23 -11z" />
    <glyph glyph-name="Aacute" unicode="&#xc1;" horiz-adv-x="615" 
d="M409 233l-85 284c-3 10 -5 13 -14 13h-8c-9 0 -11 -3 -14 -13l-86 -284h207zM410 580l182 -580h-113l-43 141h-260l-43 -141h-110l181 580c11 35 28 46 75 46h56c47 0 64 -11 75 -46zM197 731l145 120c10 8 16 11 23 11c8 0 14 -4 21 -15l40 -65l-193 -105
c-13 -7 -19 -5 -26 6l-14 22c-8 13 -5 18 4 26z" />
    <glyph glyph-name="Acircumflex" unicode="&#xc2;" horiz-adv-x="615" 
d="M409 233l-85 284c-3 10 -5 13 -14 13h-8c-9 0 -11 -3 -14 -13l-86 -284h207zM410 580l182 -580h-113l-43 141h-260l-43 -141h-110l181 580c11 35 28 46 75 46h56c47 0 64 -11 75 -46zM293 864h25c18 0 26 -3 38 -19l121 -159h-98l-73 102l-73 -102h-99l121 159
c12 16 21 19 38 19z" />
    <glyph glyph-name="Atilde" unicode="&#xc3;" horiz-adv-x="615" 
d="M409 233l-85 284c-3 10 -5 13 -14 13h-8c-9 0 -11 -3 -14 -13l-86 -284h207zM410 580l182 -580h-113l-43 141h-260l-43 -141h-110l181 580c11 35 28 46 75 46h56c47 0 64 -11 75 -46zM390 806l59 34l43 -59l-59 -47c-26 -21 -46 -29 -71 -29c-50 0 -77 44 -112 44
c-10 0 -17 -3 -29 -10l-59 -34l-43 59l38 31c38 31 60 45 92 45c50 0 77 -44 112 -44c10 0 17 3 29 10z" />
    <glyph glyph-name="Adieresis" unicode="&#xc4;" horiz-adv-x="615" 
d="M409 233l-85 284c-3 10 -5 13 -14 13h-8c-9 0 -11 -3 -14 -13l-86 -284h207zM410 580l182 -580h-113l-43 141h-260l-43 -141h-110l181 580c11 35 28 46 75 46h56c47 0 64 -11 75 -46zM201 696c-36 0 -62 26 -62 62c0 35 26 62 62 62c35 0 62 -27 62 -62
c0 -36 -27 -62 -62 -62zM411 696c-36 0 -62 26 -62 62c0 35 26 62 62 62c35 0 62 -27 62 -62c0 -36 -27 -62 -62 -62z" />
    <glyph glyph-name="Amacron" unicode="&#x100;" horiz-adv-x="615" 
d="M409 233l-85 284c-3 10 -5 13 -14 13h-8c-9 0 -11 -3 -14 -13l-86 -284h207zM410 580l182 -580h-113l-43 141h-260l-43 -141h-110l181 580c11 35 28 46 75 46h56c47 0 64 -11 75 -46zM161 717v86h290v-86h-290z" />
    <glyph glyph-name="Abreve" unicode="&#x102;" horiz-adv-x="615" 
d="M409 233l-85 284c-3 10 -5 13 -14 13h-8c-9 0 -11 -3 -14 -13l-86 -284h207zM410 580l182 -580h-113l-43 141h-260l-43 -141h-110l181 580c11 35 28 46 75 46h56c47 0 64 -11 75 -46zM336 687h-61c-39 0 -67 5 -85 23c-16 16 -24 39 -24 72v52h88v-26c0 -30 2 -41 26 -41
h51c24 0 26 11 26 41v26h88v-52c0 -33 -8 -56 -24 -72c-18 -18 -46 -23 -85 -23z" />
    <glyph glyph-name="Acaron" unicode="&#x1cd;" horiz-adv-x="615" 
d="M409 233l-85 284c-3 10 -5 13 -14 13h-8c-9 0 -11 -3 -14 -13l-86 -284h207zM410 580l182 -580h-113l-43 141h-260l-43 -141h-110l181 580c11 35 28 46 75 46h56c47 0 64 -11 75 -46zM320 682h-25c-17 0 -26 3 -38 19l-121 159h99l73 -102l73 102h98l-121 -159
c-12 -16 -20 -19 -38 -19z" />
    <glyph glyph-name="Aring" unicode="&#xc5;" horiz-adv-x="615" 
d="M409 233l-85 284c-3 10 -5 13 -14 13h-8c-9 0 -11 -3 -14 -13l-86 -284h207zM410 580l182 -580h-113l-43 141h-260l-43 -141h-110l181 580c11 35 28 46 75 46h56c47 0 64 -11 75 -46zM419 804v-53c0 -62 -35 -82 -101 -82h-24c-67 0 -101 20 -101 82v53
c0 61 34 83 101 83h24c65 0 101 -22 101 -83zM299 735h13c28 0 35 2 35 30v26c0 23 -7 30 -35 30h-13c-28 0 -35 -7 -35 -30v-26c0 -28 7 -30 35 -30z" />
    <glyph glyph-name="Aringacute" unicode="&#x1fa;" horiz-adv-x="615" 
d="M409 233l-85 284c-3 10 -5 13 -14 13h-8c-9 0 -11 -3 -14 -13l-86 -284h207zM410 580l182 -580h-113l-43 141h-260l-43 -141h-110l181 580c11 35 28 46 75 46h56c47 0 64 -11 75 -46zM419 792v-53c0 -62 -35 -82 -101 -82h-24c-67 0 -101 20 -101 82v53
c0 61 34 83 101 83h24c65 0 101 -22 101 -83zM299 723h13c28 0 35 2 35 30v26c0 23 -7 30 -35 30h-13c-28 0 -35 -7 -35 -30v-26c0 -28 7 -30 35 -30zM197 945l145 120c10 8 16 11 23 11c8 0 14 -4 21 -15l40 -65l-193 -105c-13 -7 -19 -5 -26 6l-14 22c-8 13 -5 18 4 26z
" />
    <glyph glyph-name="Aogonek" unicode="&#x104;" horiz-adv-x="615" 
d="M409 233l-85 284c-3 10 -5 13 -14 13h-8c-9 0 -11 -3 -14 -13l-86 -284h207zM480 -3l-44 144h-260l-43 -141h-110l181 580c11 35 28 46 75 46h56c47 0 64 -11 75 -46l176 -559c2 -7 3 -11 3 -14c0 -4 -2 -6 -9 -15l-93 -113l83 -57l-45 -63l-115 73c-17 11 -26 22 -26 40
c0 16 8 25 20 38z" />
    <glyph glyph-name="AE" unicode="&#xc6;" horiz-adv-x="907" 
d="M445 29v124h-236l-78 -153h-118l295 566c24 45 42 54 91 54h451v-94h-297v-168h247v-94h-247v-170h304v-94h-382c-20 0 -30 10 -30 29zM395 514l-139 -269h189v281h-30c-12 0 -15 -2 -20 -12z" />
    <glyph glyph-name="AEacute" unicode="&#x1fc;" horiz-adv-x="907" 
d="M445 29v124h-236l-78 -153h-118l295 566c24 45 42 54 91 54h451v-94h-297v-168h247v-94h-247v-170h304v-94h-382c-20 0 -30 10 -30 29zM395 514l-139 -269h189v281h-30c-12 0 -15 -2 -20 -12zM506 731l145 120c10 8 16 11 23 11c8 0 14 -4 21 -15l40 -65l-193 -105
c-13 -7 -19 -5 -26 6l-14 22c-8 13 -5 18 4 26z" />
    <glyph glyph-name="Cacute" unicode="&#x106;" horiz-adv-x="538" 
d="M333 -6h-108c-61 0 -105 15 -137 47c-25 25 -40 66 -40 121v296c0 55 15 96 40 121c32 32 76 47 137 47h97c75 0 130 -19 174 -64l-47 -79c-33 27 -73 43 -133 43h-82c-30 0 -49 -6 -61 -18c-10 -10 -17 -30 -17 -56v-284c0 -26 7 -46 17 -56c12 -12 31 -18 61 -18h88
c60 0 100 15 133 42l46 -77c-42 -46 -94 -65 -168 -65zM183 731l145 120c10 8 16 11 23 11c8 0 14 -4 21 -15l40 -65l-193 -105c-13 -7 -19 -5 -26 6l-14 22c-8 13 -5 18 4 26z" />
    <glyph glyph-name="Ccedilla" unicode="&#xc7;" horiz-adv-x="538" 
d="M270 -219l-38 56l76 51l-61 26c-19 8 -23 15 -23 25c0 6 2 14 5 21l14 34h-18c-61 0 -105 15 -137 47c-25 25 -40 66 -40 121v296c0 55 15 96 40 121c32 32 76 47 137 47h97c75 0 130 -19 174 -64l-47 -79c-33 27 -73 43 -133 43h-82c-30 0 -49 -6 -61 -18
c-10 -10 -17 -30 -17 -56v-284c0 -26 7 -46 17 -56c12 -12 31 -18 61 -18h88c60 0 100 15 133 42l46 -77c-42 -46 -94 -65 -168 -65h-27l-2 -17c-1 -8 2 -10 13 -15l54 -24c24 -11 31 -24 31 -41c0 -20 -9 -33 -31 -48z" />
    <glyph glyph-name="Ccircumflex" unicode="&#x108;" horiz-adv-x="538" 
d="M333 -6h-108c-61 0 -105 15 -137 47c-25 25 -40 66 -40 121v296c0 55 15 96 40 121c32 32 76 47 137 47h97c75 0 130 -19 174 -64l-47 -79c-33 27 -73 43 -133 43h-82c-30 0 -49 -6 -61 -18c-10 -10 -17 -30 -17 -56v-284c0 -26 7 -46 17 -56c12 -12 31 -18 61 -18h88
c60 0 100 15 133 42l46 -77c-42 -46 -94 -65 -168 -65zM263 864h25c18 0 26 -3 38 -19l121 -159h-98l-73 102l-73 -102h-99l121 159c12 16 21 19 38 19z" />
    <glyph glyph-name="Ccaron" unicode="&#x10c;" horiz-adv-x="538" 
d="M333 -6h-108c-61 0 -105 15 -137 47c-25 25 -40 66 -40 121v296c0 55 15 96 40 121c32 32 76 47 137 47h97c75 0 130 -19 174 -64l-47 -79c-33 27 -73 43 -133 43h-82c-30 0 -49 -6 -61 -18c-10 -10 -17 -30 -17 -56v-284c0 -26 7 -46 17 -56c12 -12 31 -18 61 -18h88
c60 0 100 15 133 42l46 -77c-42 -46 -94 -65 -168 -65zM289 682h-25c-17 0 -26 3 -38 19l-121 159h99l73 -102l73 102h98l-121 -159c-12 -16 -20 -19 -38 -19z" />
    <glyph glyph-name="Cdotaccent" unicode="&#x10a;" horiz-adv-x="538" 
d="M333 -6h-108c-61 0 -105 15 -137 47c-25 25 -40 66 -40 121v296c0 55 15 96 40 121c32 32 76 47 137 47h97c75 0 130 -19 174 -64l-47 -79c-33 27 -73 43 -133 43h-82c-30 0 -49 -6 -61 -18c-10 -10 -17 -30 -17 -56v-284c0 -26 7 -46 17 -56c12 -12 31 -18 61 -18h88
c60 0 100 15 133 42l46 -77c-42 -46 -94 -65 -168 -65zM209 772c0 38 30 68 68 68s68 -30 68 -68s-30 -68 -68 -68s-68 30 -68 68z" />
    <glyph glyph-name="Dcaron" unicode="&#x10e;" horiz-adv-x="596" 
d="M172 94h190c30 0 49 6 61 18c10 10 17 30 17 56v283c0 26 -7 46 -17 56c-12 12 -31 18 -61 18h-190v-431zM371 0h-277c-20 0 -30 10 -30 29v562c0 19 10 29 30 29h277c61 0 105 -15 137 -47c25 -25 40 -66 40 -121v-284c0 -55 -15 -96 -40 -121c-32 -32 -76 -47 -137 -47
zM314 682h-25c-17 0 -26 3 -38 19l-121 159h99l73 -102l73 102h98l-121 -159c-12 -16 -20 -19 -38 -19z" />
    <glyph glyph-name="Dcroat" unicode="&#x110;" horiz-adv-x="612" 
d="M387 0h-277c-20 0 -30 10 -30 29v236h-59v91h59v235c0 19 10 29 30 29h277c61 0 105 -15 137 -47c25 -25 40 -66 40 -121v-284c0 -55 -15 -96 -40 -121c-32 -32 -76 -47 -137 -47zM188 94h190c30 0 49 6 61 18c10 10 17 30 17 56v283c0 26 -7 46 -17 56
c-12 12 -31 18 -61 18h-190v-169h125v-91h-125v-171z" />
    <glyph glyph-name="Eth" unicode="&#xd0;" horiz-adv-x="612" 
d="M387 0h-277c-20 0 -30 10 -30 29v236h-59v91h59v235c0 19 10 29 30 29h277c61 0 105 -15 137 -47c25 -25 40 -66 40 -121v-284c0 -55 -15 -96 -40 -121c-32 -32 -76 -47 -137 -47zM188 94h190c30 0 49 6 61 18c10 10 17 30 17 56v283c0 26 -7 46 -17 56
c-12 12 -31 18 -61 18h-190v-169h125v-91h-125v-171z" />
    <glyph glyph-name="Egrave" unicode="&#xc8;" horiz-adv-x="518" 
d="M64 29v562c0 19 10 29 30 29h368v-94h-290v-168h239v-94h-239v-170h297v-94h-375c-20 0 -30 10 -30 29zM233 851l145 -120c9 -8 12 -13 4 -26l-14 -22c-7 -11 -13 -13 -26 -6l-193 105l40 65c7 11 13 15 21 15c7 0 13 -3 23 -11z" />
    <glyph glyph-name="Eacute" unicode="&#xc9;" horiz-adv-x="518" 
d="M64 29v562c0 19 10 29 30 29h368v-94h-290v-168h239v-94h-239v-170h297v-94h-375c-20 0 -30 10 -30 29zM164 731l145 120c10 8 16 11 23 11c8 0 14 -4 21 -15l40 -65l-193 -105c-13 -7 -19 -5 -26 6l-14 22c-8 13 -5 18 4 26z" />
    <glyph glyph-name="Ecircumflex" unicode="&#xca;" horiz-adv-x="518" 
d="M64 29v562c0 19 10 29 30 29h368v-94h-290v-168h239v-94h-239v-170h297v-94h-375c-20 0 -30 10 -30 29zM256 864h25c18 0 26 -3 38 -19l121 -159h-98l-73 102l-73 -102h-99l121 159c12 16 21 19 38 19z" />
    <glyph glyph-name="Ecaron" unicode="&#x11a;" horiz-adv-x="518" 
d="M64 29v562c0 19 10 29 30 29h368v-94h-290v-168h239v-94h-239v-170h297v-94h-375c-20 0 -30 10 -30 29zM281 682h-25c-17 0 -26 3 -38 19l-121 159h99l73 -102l73 102h98l-121 -159c-12 -16 -20 -19 -38 -19z" />
    <glyph glyph-name="Edieresis" unicode="&#xcb;" horiz-adv-x="518" 
d="M64 29v562c0 19 10 29 30 29h368v-94h-290v-168h239v-94h-239v-170h297v-94h-375c-20 0 -30 10 -30 29zM159 696c-36 0 -62 26 -62 62c0 35 26 62 62 62c35 0 62 -27 62 -62c0 -36 -27 -62 -62 -62zM369 696c-36 0 -62 26 -62 62c0 35 26 62 62 62c35 0 62 -27 62 -62
c0 -36 -27 -62 -62 -62z" />
    <glyph glyph-name="Emacron" unicode="&#x112;" horiz-adv-x="518" 
d="M64 29v562c0 19 10 29 30 29h368v-94h-290v-168h239v-94h-239v-170h297v-94h-375c-20 0 -30 10 -30 29zM119 717v86h290v-86h-290z" />
    <glyph glyph-name="Ebreve" unicode="&#x114;" horiz-adv-x="518" 
d="M64 29v562c0 19 10 29 30 29h368v-94h-290v-168h239v-94h-239v-170h297v-94h-375c-20 0 -30 10 -30 29zM294 687h-61c-39 0 -67 5 -85 23c-16 16 -24 39 -24 72v52h88v-26c0 -30 2 -41 26 -41h51c24 0 26 11 26 41v26h88v-52c0 -33 -8 -56 -24 -72
c-18 -18 -46 -23 -85 -23z" />
    <glyph glyph-name="Edotaccent" unicode="&#x116;" horiz-adv-x="518" 
d="M64 29v562c0 19 10 29 30 29h368v-94h-290v-168h239v-94h-239v-170h297v-94h-375c-20 0 -30 10 -30 29zM199 772c0 38 30 68 68 68s68 -30 68 -68s-30 -68 -68 -68s-68 30 -68 68z" />
    <glyph glyph-name="Eogonek" unicode="&#x118;" horiz-adv-x="518" 
d="M366 0h-272c-20 0 -30 10 -30 29v562c0 19 10 29 30 29h368v-94h-290v-168h239v-94h-239v-170h297v-77c0 -8 -2 -13 -7 -19l-94 -119l83 -57l-45 -63l-115 73c-17 11 -26 22 -26 40c0 16 8 25 20 38z" />
    <glyph glyph-name="Gcircumflex" unicode="&#x11c;" horiz-adv-x="586" 
d="M375 -6h-150c-61 0 -105 15 -137 47c-25 25 -40 66 -40 121v296c0 55 15 96 40 121c32 32 76 47 137 47h122c75 0 130 -19 174 -64l-47 -79c-33 27 -73 43 -133 43h-107c-30 0 -49 -6 -61 -18c-10 -10 -17 -30 -17 -56v-285c0 -26 7 -46 17 -56c12 -12 31 -18 61 -18h142
c11 0 14 0 23 5l25 15c7 4 7 6 7 14v136h-92v87h171c18 0 28 -8 28 -27v-228c0 -32 -6 -38 -37 -56l-53 -31c-21 -12 -39 -14 -73 -14zM280 864h25c18 0 26 -3 38 -19l121 -159h-98l-73 102l-73 -102h-99l121 159c12 16 21 19 38 19z" />
    <glyph glyph-name="Gbreve" unicode="&#x11e;" horiz-adv-x="586" 
d="M375 -6h-150c-61 0 -105 15 -137 47c-25 25 -40 66 -40 121v296c0 55 15 96 40 121c32 32 76 47 137 47h122c75 0 130 -19 174 -64l-47 -79c-33 27 -73 43 -133 43h-107c-30 0 -49 -6 -61 -18c-10 -10 -17 -30 -17 -56v-285c0 -26 7 -46 17 -56c12 -12 31 -18 61 -18h142
c11 0 14 0 23 5l25 15c7 4 7 6 7 14v136h-92v87h171c18 0 28 -8 28 -27v-228c0 -32 -6 -38 -37 -56l-53 -31c-21 -12 -39 -14 -73 -14zM323 687h-61c-39 0 -67 5 -85 23c-16 16 -24 39 -24 72v52h88v-26c0 -30 2 -41 26 -41h51c24 0 26 11 26 41v26h88v-52
c0 -33 -8 -56 -24 -72c-18 -18 -46 -23 -85 -23z" />
    <glyph glyph-name="Gdotaccent" unicode="&#x120;" horiz-adv-x="586" 
d="M375 -6h-150c-61 0 -105 15 -137 47c-25 25 -40 66 -40 121v296c0 55 15 96 40 121c32 32 76 47 137 47h122c75 0 130 -19 174 -64l-47 -79c-33 27 -73 43 -133 43h-107c-30 0 -49 -6 -61 -18c-10 -10 -17 -30 -17 -56v-285c0 -26 7 -46 17 -56c12 -12 31 -18 61 -18h142
c11 0 14 0 23 5l25 15c7 4 7 6 7 14v136h-92v87h171c18 0 28 -8 28 -27v-228c0 -32 -6 -38 -37 -56l-53 -31c-21 -12 -39 -14 -73 -14zM225 772c0 38 30 68 68 68s68 -30 68 -68s-30 -68 -68 -68s-68 30 -68 68z" />
    <glyph glyph-name="Gcommaaccent" unicode="&#x122;" horiz-adv-x="586" 
d="M375 -6h-150c-61 0 -105 15 -137 47c-25 25 -40 66 -40 121v296c0 55 15 96 40 121c32 32 76 47 137 47h122c75 0 130 -19 174 -64l-47 -79c-33 27 -73 43 -133 43h-107c-30 0 -49 -6 -61 -18c-10 -10 -17 -30 -17 -56v-285c0 -26 7 -46 17 -56c12 -12 31 -18 61 -18h142
c11 0 14 0 23 5l25 15c7 4 7 6 7 14v136h-92v87h171c18 0 28 -8 28 -27v-228c0 -32 -6 -38 -37 -56l-53 -31c-21 -12 -39 -14 -73 -14zM233 -214l24 171h80c19 0 20 -10 16 -23l-42 -156c-4 -13 -9 -17 -25 -17h-35c-17 0 -21 7 -18 25z" />
    <glyph glyph-name="Hcircumflex" unicode="&#x124;" horiz-adv-x="612" 
d="M547 620v-620h-108v263h-267v-263h-108v620h108v-260h267v260h108zM292 864h25c18 0 26 -3 38 -19l121 -159h-98l-73 102l-73 -102h-99l121 159c12 16 21 19 38 19z" />
    <glyph glyph-name="Hbar" unicode="&#x126;" horiz-adv-x="644" 
d="M13 452v82h67v86h108v-86h267v86h108v-86h68v-82h-68v-452h-108v263h-267v-263h-108v452h-67zM188 360h267v92h-267v-92z" />
    <glyph glyph-name="Igrave" unicode="&#xcc;" horiz-adv-x="245" 
d="M68 0v620h108v-620h-108zM87 851l145 -120c9 -8 12 -13 4 -26l-14 -22c-7 -11 -13 -13 -26 -6l-193 105l40 65c7 11 13 15 21 15c7 0 13 -3 23 -11z" />
    <glyph glyph-name="Iacute" unicode="&#xcd;" horiz-adv-x="245" 
d="M68 0v620h108v-620h-108zM19 731l145 120c10 8 16 11 23 11c8 0 14 -4 21 -15l40 -65l-193 -105c-13 -7 -19 -5 -26 6l-14 22c-8 13 -5 18 4 26z" />
    <glyph glyph-name="Icircumflex" unicode="&#xce;" horiz-adv-x="245" 
d="M68 0v620h108v-620h-108zM110 864h25c18 0 26 -3 38 -19l121 -159h-98l-73 102l-73 -102h-99l121 159c12 16 21 19 38 19z" />
    <glyph glyph-name="Itilde" unicode="&#x128;" horiz-adv-x="245" 
d="M68 0v620h108v-620h-108zM207 806l59 34l43 -59l-59 -47c-26 -21 -46 -29 -71 -29c-50 0 -77 44 -112 44c-10 0 -17 -3 -29 -10l-59 -34l-43 59l38 31c38 31 60 45 92 45c50 0 77 -44 112 -44c10 0 17 3 29 10z" />
    <glyph glyph-name="Idieresis" unicode="&#xcf;" horiz-adv-x="245" 
d="M68 0v620h108v-620h-108zM18 696c-36 0 -62 26 -62 62c0 35 26 62 62 62c35 0 62 -27 62 -62c0 -36 -27 -62 -62 -62zM228 696c-36 0 -62 26 -62 62c0 35 26 62 62 62c35 0 62 -27 62 -62c0 -36 -27 -62 -62 -62z" />
    <glyph glyph-name="Imacron" unicode="&#x12a;" horiz-adv-x="245" 
d="M68 0v620h108v-620h-108zM-22 717v86h290v-86h-290z" />
    <glyph glyph-name="Ibreve" unicode="&#x12c;" horiz-adv-x="245" 
d="M68 0v620h108v-620h-108zM153 687h-61c-39 0 -67 5 -85 23c-16 16 -24 39 -24 72v52h88v-26c0 -30 2 -41 26 -41h51c24 0 26 11 26 41v26h88v-52c0 -33 -8 -56 -24 -72c-18 -18 -46 -23 -85 -23z" />
    <glyph glyph-name="Idotaccent" unicode="&#x130;" horiz-adv-x="245" 
d="M68 0v620h108v-620h-108zM55 772c0 38 30 68 68 68s68 -30 68 -68s-30 -68 -68 -68s-68 30 -68 68z" />
    <glyph glyph-name="Iogonek" unicode="&#x12e;" horiz-adv-x="245" 
d="M176 620v-603c0 -8 -2 -13 -7 -19l-94 -119l83 -57l-45 -63l-115 73c-17 11 -26 22 -26 40c0 16 8 25 20 38l76 90v620h108z" />
    <glyph glyph-name="IJ" unicode="&#x132;" horiz-adv-x="733" 
d="M68 0v620h108v-620h-108zM496 -6h-49c-70 0 -119 15 -168 60l43 78c38 -26 74 -39 132 -39h33c30 0 49 6 61 18c10 10 17 30 17 56v453h108v-458c0 -55 -15 -96 -40 -121c-32 -32 -76 -47 -137 -47z" />
    <glyph glyph-name="Jcircumflex" unicode="&#x134;" horiz-adv-x="488" 
d="M251 -6h-49c-70 0 -119 15 -168 60l43 78c38 -26 74 -39 132 -39h33c30 0 49 6 61 18c10 10 17 30 17 56v453h108v-458c0 -55 -15 -96 -40 -121c-32 -32 -76 -47 -137 -47zM358 864h25c18 0 26 -3 38 -19l121 -159h-98l-73 102l-73 -102h-99l121 159c12 16 21 19 38 19z
" />
    <glyph glyph-name="Kcommaaccent" unicode="&#x136;" horiz-adv-x="592" 
d="M364 297l210 -297h-127l-164 238c-13 19 -15 19 -32 19h-79v-257h-108v620h108v-269h81c18 0 20 3 30 19l152 250h118l-189 -307c-5 -8 -5 -9 0 -16zM224 -214l24 171h80c19 0 20 -10 16 -23l-42 -156c-4 -13 -9 -17 -25 -17h-35c-17 0 -21 7 -18 25z" />
    <glyph glyph-name="Lacute" unicode="&#x139;" horiz-adv-x="478" 
d="M64 29v591h108v-526h281v-94h-359c-20 0 -30 10 -30 29zM81 731l145 120c10 8 16 11 23 11c8 0 14 -4 21 -15l40 -65l-193 -105c-13 -7 -19 -5 -26 6l-14 22c-8 13 -5 18 4 26z" />
    <glyph glyph-name="Lcaron" unicode="&#x13d;" horiz-adv-x="478" 
d="M64 29v591h108v-526h281v-94h-359c-20 0 -30 10 -30 29zM268 449l24 171h80c19 0 20 -10 16 -23l-42 -156c-4 -13 -9 -17 -25 -17h-35c-17 0 -21 7 -18 25z" />
    <glyph glyph-name="Lcommaaccent" unicode="&#x13b;" horiz-adv-x="478" 
d="M64 29v591h108v-526h281v-94h-359c-20 0 -30 10 -30 29zM191 -214l24 171h80c19 0 20 -10 16 -23l-42 -156c-4 -13 -9 -17 -25 -17h-35c-17 0 -21 7 -18 25z" />
    <glyph glyph-name="Lslash" unicode="&#x141;" horiz-adv-x="507" 
d="M11 284l79 43v293h108v-234l146 80v-104l-146 -80v-188h281v-94h-359c-20 0 -30 10 -30 29v194l-79 -43v104z" />
    <glyph glyph-name="Ldot" unicode="&#x13f;" horiz-adv-x="490" 
d="M64 29v591h108v-526h281v-94h-359c-20 0 -30 10 -30 29zM296 343c0 38 30 68 68 68s68 -30 68 -68s-30 -68 -68 -68s-68 30 -68 68z" />
    <glyph glyph-name="Nacute" unicode="&#x143;" horiz-adv-x="628" 
d="M444 28l-230 344c-25 37 -42 66 -52 88v-460h-98v591c0 24 11 29 38 29h25c28 0 41 -6 57 -30l229 -344c24 -37 43 -68 53 -90v464h98v-592c0 -24 -11 -29 -38 -29h-26c-28 0 -40 5 -56 29zM204 731l145 120c10 8 16 11 23 11c8 0 14 -4 21 -15l40 -65l-193 -105
c-13 -7 -19 -5 -26 6l-14 22c-8 13 -5 18 4 26z" />
    <glyph glyph-name="Ncaron" unicode="&#x147;" horiz-adv-x="628" 
d="M444 28l-230 344c-25 37 -42 66 -52 88v-460h-98v591c0 24 11 29 38 29h25c28 0 41 -6 57 -30l229 -344c24 -37 43 -68 53 -90v464h98v-592c0 -24 -11 -29 -38 -29h-26c-28 0 -40 5 -56 29zM329 682h-25c-17 0 -26 3 -38 19l-121 159h99l73 -102l73 102h98l-121 -159
c-12 -16 -20 -19 -38 -19z" />
    <glyph glyph-name="Ntilde" unicode="&#xd1;" horiz-adv-x="628" 
d="M444 28l-230 344c-25 37 -42 66 -52 88v-460h-98v591c0 24 11 29 38 29h25c28 0 41 -6 57 -30l229 -344c24 -37 43 -68 53 -90v464h98v-592c0 -24 -11 -29 -38 -29h-26c-28 0 -40 5 -56 29zM401 806l59 34l43 -59l-59 -47c-26 -21 -46 -29 -71 -29c-50 0 -77 44 -112 44
c-10 0 -17 -3 -29 -10l-59 -34l-43 59l38 31c38 31 60 45 92 45c50 0 77 -44 112 -44c10 0 17 3 29 10z" />
    <glyph glyph-name="Ncommaaccent" unicode="&#x145;" horiz-adv-x="628" 
d="M444 28l-230 344c-25 37 -42 66 -52 88v-460h-98v591c0 24 11 29 38 29h25c28 0 41 -6 57 -30l229 -344c24 -37 43 -68 53 -90v464h98v-592c0 -24 -11 -29 -38 -29h-26c-28 0 -40 5 -56 29zM248 -214l24 171h80c19 0 20 -10 16 -23l-42 -156c-4 -13 -9 -17 -25 -17h-35
c-17 0 -21 7 -18 25z" />
    <glyph glyph-name="Eng" unicode="&#x14a;" horiz-adv-x="628" 
d="M342 -206v87h31c70 0 93 28 93 83v20l-252 388c-26 39 -42 66 -52 88v-460h-98v591c0 24 11 29 38 29h25c28 0 41 -6 57 -30l229 -356c24 -38 43 -70 53 -92v478h98v-655c0 -118 -64 -171 -188 -171h-34z" />
    <glyph glyph-name="Ograve" unicode="&#xd2;" horiz-adv-x="596" 
d="M234 94h128c30 0 49 6 61 18c10 10 17 30 17 56v284c0 26 -7 46 -17 56c-12 12 -31 18 -61 18h-128c-30 0 -49 -6 -61 -18c-10 -10 -17 -30 -17 -56v-284c0 -26 7 -46 17 -56c12 -12 31 -18 61 -18zM371 -6h-146c-61 0 -105 15 -137 47c-25 25 -40 66 -40 121v296
c0 55 15 96 40 121c32 32 76 47 137 47h146c61 0 105 -15 137 -47c25 -25 40 -66 40 -121v-296c0 -55 -15 -96 -40 -121c-32 -32 -76 -47 -137 -47zM262 851l145 -120c9 -8 12 -13 4 -26l-14 -22c-7 -11 -13 -13 -26 -6l-193 105l40 65c7 11 13 15 21 15c7 0 13 -3 23 -11z
" />
    <glyph glyph-name="Oacute" unicode="&#xd3;" horiz-adv-x="596" 
d="M234 94h128c30 0 49 6 61 18c10 10 17 30 17 56v284c0 26 -7 46 -17 56c-12 12 -31 18 -61 18h-128c-30 0 -49 -6 -61 -18c-10 -10 -17 -30 -17 -56v-284c0 -26 7 -46 17 -56c12 -12 31 -18 61 -18zM371 -6h-146c-61 0 -105 15 -137 47c-25 25 -40 66 -40 121v296
c0 55 15 96 40 121c32 32 76 47 137 47h146c61 0 105 -15 137 -47c25 -25 40 -66 40 -121v-296c0 -55 -15 -96 -40 -121c-32 -32 -76 -47 -137 -47zM193 731l145 120c10 8 16 11 23 11c8 0 14 -4 21 -15l40 -65l-193 -105c-13 -7 -19 -5 -26 6l-14 22c-8 13 -5 18 4 26z" />
    <glyph glyph-name="Ocircumflex" unicode="&#xd4;" horiz-adv-x="596" 
d="M234 94h128c30 0 49 6 61 18c10 10 17 30 17 56v284c0 26 -7 46 -17 56c-12 12 -31 18 -61 18h-128c-30 0 -49 -6 -61 -18c-10 -10 -17 -30 -17 -56v-284c0 -26 7 -46 17 -56c12 -12 31 -18 61 -18zM371 -6h-146c-61 0 -105 15 -137 47c-25 25 -40 66 -40 121v296
c0 55 15 96 40 121c32 32 76 47 137 47h146c61 0 105 -15 137 -47c25 -25 40 -66 40 -121v-296c0 -55 -15 -96 -40 -121c-32 -32 -76 -47 -137 -47zM285 864h25c18 0 26 -3 38 -19l121 -159h-98l-73 102l-73 -102h-99l121 159c12 16 21 19 38 19z" />
    <glyph glyph-name="Otilde" unicode="&#xd5;" horiz-adv-x="596" 
d="M234 94h128c30 0 49 6 61 18c10 10 17 30 17 56v284c0 26 -7 46 -17 56c-12 12 -31 18 -61 18h-128c-30 0 -49 -6 -61 -18c-10 -10 -17 -30 -17 -56v-284c0 -26 7 -46 17 -56c12 -12 31 -18 61 -18zM371 -6h-146c-61 0 -105 15 -137 47c-25 25 -40 66 -40 121v296
c0 55 15 96 40 121c32 32 76 47 137 47h146c61 0 105 -15 137 -47c25 -25 40 -66 40 -121v-296c0 -55 -15 -96 -40 -121c-32 -32 -76 -47 -137 -47zM382 806l59 34l43 -59l-59 -47c-26 -21 -46 -29 -71 -29c-50 0 -77 44 -112 44c-10 0 -17 -3 -29 -10l-59 -34l-43 59l38 31
c38 31 60 45 92 45c50 0 77 -44 112 -44c10 0 17 3 29 10z" />
    <glyph glyph-name="Odieresis" unicode="&#xd6;" horiz-adv-x="596" 
d="M234 94h128c30 0 49 6 61 18c10 10 17 30 17 56v284c0 26 -7 46 -17 56c-12 12 -31 18 -61 18h-128c-30 0 -49 -6 -61 -18c-10 -10 -17 -30 -17 -56v-284c0 -26 7 -46 17 -56c12 -12 31 -18 61 -18zM371 -6h-146c-61 0 -105 15 -137 47c-25 25 -40 66 -40 121v296
c0 55 15 96 40 121c32 32 76 47 137 47h146c61 0 105 -15 137 -47c25 -25 40 -66 40 -121v-296c0 -55 -15 -96 -40 -121c-32 -32 -76 -47 -137 -47zM193 696c-36 0 -62 26 -62 62c0 35 26 62 62 62c35 0 62 -27 62 -62c0 -36 -27 -62 -62 -62zM403 696c-36 0 -62 26 -62 62
c0 35 26 62 62 62c35 0 62 -27 62 -62c0 -36 -27 -62 -62 -62z" />
    <glyph glyph-name="Omacron" unicode="&#x14c;" horiz-adv-x="596" 
d="M234 94h128c30 0 49 6 61 18c10 10 17 30 17 56v284c0 26 -7 46 -17 56c-12 12 -31 18 -61 18h-128c-30 0 -49 -6 -61 -18c-10 -10 -17 -30 -17 -56v-284c0 -26 7 -46 17 -56c12 -12 31 -18 61 -18zM371 -6h-146c-61 0 -105 15 -137 47c-25 25 -40 66 -40 121v296
c0 55 15 96 40 121c32 32 76 47 137 47h146c61 0 105 -15 137 -47c25 -25 40 -66 40 -121v-296c0 -55 -15 -96 -40 -121c-32 -32 -76 -47 -137 -47zM153 717v86h290v-86h-290z" />
    <glyph glyph-name="Obreve" unicode="&#x14e;" horiz-adv-x="596" 
d="M234 94h128c30 0 49 6 61 18c10 10 17 30 17 56v284c0 26 -7 46 -17 56c-12 12 -31 18 -61 18h-128c-30 0 -49 -6 -61 -18c-10 -10 -17 -30 -17 -56v-284c0 -26 7 -46 17 -56c12 -12 31 -18 61 -18zM371 -6h-146c-61 0 -105 15 -137 47c-25 25 -40 66 -40 121v296
c0 55 15 96 40 121c32 32 76 47 137 47h146c61 0 105 -15 137 -47c25 -25 40 -66 40 -121v-296c0 -55 -15 -96 -40 -121c-32 -32 -76 -47 -137 -47zM328 687h-61c-39 0 -67 5 -85 23c-16 16 -24 39 -24 72v52h88v-26c0 -30 2 -41 26 -41h51c24 0 26 11 26 41v26h88v-52
c0 -33 -8 -56 -24 -72c-18 -18 -46 -23 -85 -23z" />
    <glyph glyph-name="Ohungarumlaut" unicode="&#x150;" horiz-adv-x="596" 
d="M234 94h128c30 0 49 6 61 18c10 10 17 30 17 56v284c0 26 -7 46 -17 56c-12 12 -31 18 -61 18h-128c-30 0 -49 -6 -61 -18c-10 -10 -17 -30 -17 -56v-284c0 -26 7 -46 17 -56c12 -12 31 -18 61 -18zM371 -6h-146c-61 0 -105 15 -137 47c-25 25 -40 66 -40 121v296
c0 55 15 96 40 121c32 32 76 47 137 47h146c61 0 105 -15 137 -47c25 -25 40 -66 40 -121v-296c0 -55 -15 -96 -40 -121c-32 -32 -76 -47 -137 -47zM325 729l117 114c12 12 22 18 31 18c6 0 12 0 20 -11l38 -53l-168 -121c-11 -8 -19 -3 -25 5l-16 21c-4 5 -5 8 -5 12
s1 8 8 15zM137 729l117 114c12 12 22 18 31 18c6 0 12 0 20 -11l38 -53l-168 -121c-11 -8 -19 -3 -25 5l-16 21c-4 5 -5 8 -5 12s1 8 8 15z" />
    <glyph glyph-name="Oslash" unicode="&#xd8;" horiz-adv-x="606" 
d="M133 -95l29 96c-11 2 -46 12 -74 40c-25 25 -40 66 -40 121v296c0 55 15 96 40 121c32 32 76 47 137 47h128l27 89h92l-29 -96c19 -4 49 -14 75 -40c25 -25 40 -66 40 -121v-296c0 -55 -15 -96 -40 -121c-32 -32 -76 -47 -137 -47h-130l-26 -89h-92zM283 94h89
c30 0 49 6 61 18c10 10 17 30 17 56v284c0 26 -7 46 -17 56c-5 5 -13 11 -21 13zM193 100l129 426h-88c-30 0 -49 -6 -61 -18c-10 -10 -17 -30 -17 -56v-284c0 -26 7 -46 17 -56c7 -7 12 -10 20 -12z" />
    <glyph glyph-name="Oslashacute" unicode="&#x1fe;" horiz-adv-x="606" 
d="M133 -95l29 96c-11 2 -46 12 -74 40c-25 25 -40 66 -40 121v296c0 55 15 96 40 121c32 32 76 47 137 47h128l27 89h92l-29 -96c19 -4 49 -14 75 -40c25 -25 40 -66 40 -121v-296c0 -55 -15 -96 -40 -121c-32 -32 -76 -47 -137 -47h-130l-26 -89h-92zM283 94h89
c30 0 49 6 61 18c10 10 17 30 17 56v284c0 26 -7 46 -17 56c-5 5 -13 11 -21 13zM193 100l129 426h-88c-30 0 -49 -6 -61 -18c-10 -10 -17 -30 -17 -56v-284c0 -26 7 -46 17 -56c7 -7 12 -10 20 -12zM197 731l145 120c10 8 16 11 23 11c8 0 14 -4 21 -15l40 -65l-193 -105
c-13 -7 -19 -5 -26 6l-14 22c-8 13 -5 18 4 26z" />
    <glyph glyph-name="OE" unicode="&#x152;" horiz-adv-x="901" 
d="M234 94h128c30 0 49 6 61 18c10 10 17 30 17 56v284c0 26 -7 46 -17 56c-12 12 -31 18 -61 18h-128c-30 0 -49 -6 -61 -18c-10 -10 -17 -30 -17 -56v-284c0 -26 7 -46 17 -56c12 -12 31 -18 61 -18zM496 576c29 31 64 44 122 44h227v-94h-220c-61 0 -77 -27 -77 -74v-94
h246v-94h-246v-98c0 -48 20 -72 77 -72h227v-94h-234c-58 0 -93 13 -122 44c-33 -35 -79 -50 -140 -50h-131c-61 0 -105 15 -137 47c-25 25 -40 66 -40 121v296c0 55 15 96 40 121c32 32 76 47 137 47h131c61 0 107 -15 140 -50z" />
    <glyph glyph-name="Thorn" unicode="&#xde;" horiz-adv-x="567" 
d="M172 528h181c61 0 105 -15 137 -47c25 -25 40 -66 40 -121v-106c0 -48 -5 -60 -34 -89l-34 -34c-25 -26 -45 -33 -89 -33h-201v-98h-108v620h108v-92zM345 434h-173v-242h190c13 0 18 1 27 10l22 22c9 9 12 15 12 27v109c0 26 -7 46 -17 56c-12 12 -31 18 -61 18z" />
    <glyph glyph-name="Racute" unicode="&#x154;" horiz-adv-x="580" 
d="M524 452v-94c0 -48 -5 -60 -34 -89l-29 -29c-9 -9 -16 -14 -23 -17l90 -223h-115l-77 203h-164v-203h-108v591c0 19 10 29 30 29h253c61 0 105 -15 137 -47c25 -25 40 -66 40 -121zM339 526h-167v-231h184c13 0 18 1 27 10l22 22c9 9 12 15 12 27v98c0 26 -7 46 -17 56
c-12 12 -31 18 -61 18zM188 731l145 120c10 8 16 11 23 11c8 0 14 -4 21 -15l40 -65l-193 -105c-13 -7 -19 -5 -26 6l-14 22c-8 13 -5 18 4 26z" />
    <glyph glyph-name="Rcaron" unicode="&#x158;" horiz-adv-x="580" 
d="M524 452v-94c0 -48 -5 -60 -34 -89l-29 -29c-9 -9 -16 -14 -23 -17l90 -223h-115l-77 203h-164v-203h-108v591c0 19 10 29 30 29h253c61 0 105 -15 137 -47c25 -25 40 -66 40 -121zM339 526h-167v-231h184c13 0 18 1 27 10l22 22c9 9 12 15 12 27v98c0 26 -7 46 -17 56
c-12 12 -31 18 -61 18zM306 682h-25c-17 0 -26 3 -38 19l-121 159h99l73 -102l73 102h98l-121 -159c-12 -16 -20 -19 -38 -19z" />
    <glyph glyph-name="Rcommaaccent" unicode="&#x156;" horiz-adv-x="580" 
d="M524 452v-94c0 -48 -5 -60 -34 -89l-29 -29c-9 -9 -16 -14 -23 -17l90 -223h-115l-77 203h-164v-203h-108v591c0 19 10 29 30 29h253c61 0 105 -15 137 -47c25 -25 40 -66 40 -121zM339 526h-167v-231h184c13 0 18 1 27 10l22 22c9 9 12 15 12 27v98c0 26 -7 46 -17 56
c-12 12 -31 18 -61 18zM223 -214l24 171h80c19 0 20 -10 16 -23l-42 -156c-4 -13 -9 -17 -25 -17h-35c-17 0 -21 7 -18 25z" />
    <glyph glyph-name="Sacute" unicode="&#x15a;" horiz-adv-x="538" 
d="M205 91h105c30 0 49 6 61 18c10 10 17 30 17 56v17c0 35 -14 61 -59 67l-110 15c-47 7 -98 13 -128 43c-21 21 -40 55 -40 123v28c0 55 15 96 40 121c32 32 76 47 137 47h69c82 0 134 -15 179 -60l-45 -77c-33 27 -76 40 -130 40h-66c-30 0 -49 -6 -61 -18
c-10 -10 -17 -30 -17 -56v-18c0 -36 13 -62 59 -68l110 -15c67 -9 101 -15 131 -45c21 -21 37 -48 37 -121v-26c0 -55 -15 -96 -40 -121c-32 -32 -76 -47 -137 -47h-88c-84 0 -139 14 -188 63l45 77c30 -26 69 -43 119 -43zM171 731l145 120c10 8 16 11 23 11
c8 0 14 -4 21 -15l40 -65l-193 -105c-13 -7 -19 -5 -26 6l-14 22c-8 13 -5 18 4 26z" />
    <glyph glyph-name="Scircumflex" unicode="&#x15c;" horiz-adv-x="538" 
d="M205 91h105c30 0 49 6 61 18c10 10 17 30 17 56v17c0 35 -14 61 -59 67l-110 15c-47 7 -98 13 -128 43c-21 21 -40 55 -40 123v28c0 55 15 96 40 121c32 32 76 47 137 47h69c82 0 134 -15 179 -60l-45 -77c-33 27 -76 40 -130 40h-66c-30 0 -49 -6 -61 -18
c-10 -10 -17 -30 -17 -56v-18c0 -36 13 -62 59 -68l110 -15c67 -9 101 -15 131 -45c21 -21 37 -48 37 -121v-26c0 -55 -15 -96 -40 -121c-32 -32 -76 -47 -137 -47h-88c-84 0 -139 14 -188 63l45 77c30 -26 69 -43 119 -43zM256 864h25c18 0 26 -3 38 -19l121 -159h-98
l-73 102l-73 -102h-99l121 159c12 16 21 19 38 19z" />
    <glyph glyph-name="Scaron" unicode="&#x160;" horiz-adv-x="538" 
d="M205 91h105c30 0 49 6 61 18c10 10 17 30 17 56v17c0 35 -14 61 -59 67l-110 15c-47 7 -98 13 -128 43c-21 21 -40 55 -40 123v28c0 55 15 96 40 121c32 32 76 47 137 47h69c82 0 134 -15 179 -60l-45 -77c-33 27 -76 40 -130 40h-66c-30 0 -49 -6 -61 -18
c-10 -10 -17 -30 -17 -56v-18c0 -36 13 -62 59 -68l110 -15c67 -9 101 -15 131 -45c21 -21 37 -48 37 -121v-26c0 -55 -15 -96 -40 -121c-32 -32 -76 -47 -137 -47h-88c-84 0 -139 14 -188 63l45 77c30 -26 69 -43 119 -43zM281 682h-25c-17 0 -26 3 -38 19l-121 159h99
l73 -102l73 102h98l-121 -159c-12 -16 -20 -19 -38 -19z" />
    <glyph glyph-name="Scedilla" unicode="&#x15e;" horiz-adv-x="538" 
d="M257 -219l-38 56l76 51l-61 26c-19 8 -23 15 -23 25c0 6 2 14 5 21l14 34h-1c-84 0 -139 14 -188 63l45 77c30 -26 69 -43 119 -43h105c30 0 49 6 61 18c10 10 17 30 17 56v17c0 35 -14 61 -59 67l-110 15c-47 7 -98 13 -128 43c-21 21 -40 55 -40 123v28
c0 55 15 96 40 121c32 32 76 47 137 47h69c82 0 134 -15 179 -60l-45 -77c-33 27 -76 40 -130 40h-66c-30 0 -49 -6 -61 -18c-10 -10 -17 -30 -17 -56v-18c0 -36 13 -62 59 -68l110 -15c67 -9 101 -15 131 -45c21 -21 37 -48 37 -121v-26c0 -55 -15 -96 -40 -121
c-32 -32 -76 -47 -137 -47h-24l-2 -17c-1 -8 2 -10 13 -15l54 -24c24 -11 31 -24 31 -41c0 -20 -9 -33 -31 -48z" />
    <glyph glyph-name="Scommaaccent" unicode="&#x218;" horiz-adv-x="538" 
d="M205 91h105c30 0 49 6 61 18c10 10 17 30 17 56v17c0 35 -14 61 -59 67l-110 15c-47 7 -98 13 -128 43c-21 21 -40 55 -40 123v28c0 55 15 96 40 121c32 32 76 47 137 47h69c82 0 134 -15 179 -60l-45 -77c-33 27 -76 40 -130 40h-66c-30 0 -49 -6 -61 -18
c-10 -10 -17 -30 -17 -56v-18c0 -36 13 -62 59 -68l110 -15c67 -9 101 -15 131 -45c21 -21 37 -48 37 -121v-26c0 -55 -15 -96 -40 -121c-32 -32 -76 -47 -137 -47h-88c-84 0 -139 14 -188 63l45 77c30 -26 69 -43 119 -43zM207 -214l24 171h80c19 0 20 -10 16 -23l-42 -156
c-4 -13 -9 -17 -25 -17h-35c-17 0 -21 7 -18 25z" />
    <glyph glyph-name="Tcaron" unicode="&#x164;" horiz-adv-x="513" 
d="M310 526v-526h-108v526h-178v94h465v-94h-179zM268 682h-25c-17 0 -26 3 -38 19l-121 159h99l73 -102l73 102h98l-121 -159c-12 -16 -20 -19 -38 -19z" />
    <glyph glyph-name="Tcommaaccent" unicode="&#x162;" horiz-adv-x="513" 
d="M310 526v-526h-108v526h-178v94h465v-94h-179zM190 -214l24 171h80c19 0 20 -10 16 -23l-42 -156c-4 -13 -9 -17 -25 -17h-35c-17 0 -21 7 -18 25z" />
    <glyph glyph-name="uni021A" unicode="&#x21a;" horiz-adv-x="513" 
d="M310 526v-526h-108v526h-178v94h465v-94h-179zM190 -214l24 171h80c19 0 20 -10 16 -23l-42 -156c-4 -13 -9 -17 -25 -17h-35c-17 0 -21 7 -18 25z" />
    <glyph glyph-name="Tbar" unicode="&#x166;" horiz-adv-x="513" 
d="M89 257v85h113v184h-178v94h465v-94h-179v-184h113v-85h-113v-257h-108v257h-113z" />
    <glyph glyph-name="Ugrave" unicode="&#xd9;" horiz-adv-x="604" 
d="M169 620v-452c0 -26 7 -46 17 -56c12 -12 31 -18 61 -18h132c11 0 14 0 23 5l24 14c7 4 7 6 7 14v493h107v-525c0 -32 -6 -38 -37 -56l-53 -31c-21 -12 -39 -14 -73 -14h-139c-61 0 -105 15 -137 47c-25 25 -40 66 -40 121v458h108zM266 851l145 -120c9 -8 12 -13 4 -26
l-14 -22c-7 -11 -13 -13 -26 -6l-193 105l40 65c7 11 13 15 21 15c7 0 13 -3 23 -11z" />
    <glyph glyph-name="Uacute" unicode="&#xda;" horiz-adv-x="604" 
d="M169 620v-452c0 -26 7 -46 17 -56c12 -12 31 -18 61 -18h132c11 0 14 0 23 5l24 14c7 4 7 6 7 14v493h107v-525c0 -32 -6 -38 -37 -56l-53 -31c-21 -12 -39 -14 -73 -14h-139c-61 0 -105 15 -137 47c-25 25 -40 66 -40 121v458h108zM202 731l145 120c10 8 16 11 23 11
c8 0 14 -4 21 -15l40 -65l-193 -105c-13 -7 -19 -5 -26 6l-14 22c-8 13 -5 18 4 26z" />
    <glyph glyph-name="Ucircumflex" unicode="&#xdb;" horiz-adv-x="604" 
d="M169 620v-452c0 -26 7 -46 17 -56c12 -12 31 -18 61 -18h132c11 0 14 0 23 5l24 14c7 4 7 6 7 14v493h107v-525c0 -32 -6 -38 -37 -56l-53 -31c-21 -12 -39 -14 -73 -14h-139c-61 0 -105 15 -137 47c-25 25 -40 66 -40 121v458h108zM289 864h25c18 0 26 -3 38 -19
l121 -159h-98l-73 102l-73 -102h-99l121 159c12 16 21 19 38 19z" />
    <glyph glyph-name="Utilde" unicode="&#x168;" horiz-adv-x="604" 
d="M169 620v-452c0 -26 7 -46 17 -56c12 -12 31 -18 61 -18h132c11 0 14 0 23 5l24 14c7 4 7 6 7 14v493h107v-525c0 -32 -6 -38 -37 -56l-53 -31c-21 -12 -39 -14 -73 -14h-139c-61 0 -105 15 -137 47c-25 25 -40 66 -40 121v458h108zM386 806l59 34l43 -59l-59 -47
c-26 -21 -46 -29 -71 -29c-50 0 -77 44 -112 44c-10 0 -17 -3 -29 -10l-59 -34l-43 59l38 31c38 31 60 45 92 45c50 0 77 -44 112 -44c10 0 17 3 29 10z" />
    <glyph glyph-name="Udieresis" unicode="&#xdc;" horiz-adv-x="604" 
d="M169 620v-452c0 -26 7 -46 17 -56c12 -12 31 -18 61 -18h132c11 0 14 0 23 5l24 14c7 4 7 6 7 14v493h107v-525c0 -32 -6 -38 -37 -56l-53 -31c-21 -12 -39 -14 -73 -14h-139c-61 0 -105 15 -137 47c-25 25 -40 66 -40 121v458h108zM197 696c-36 0 -62 26 -62 62
c0 35 26 62 62 62c35 0 62 -27 62 -62c0 -36 -27 -62 -62 -62zM407 696c-36 0 -62 26 -62 62c0 35 26 62 62 62c35 0 62 -27 62 -62c0 -36 -27 -62 -62 -62z" />
    <glyph glyph-name="Umacron" unicode="&#x16a;" horiz-adv-x="604" 
d="M169 620v-452c0 -26 7 -46 17 -56c12 -12 31 -18 61 -18h132c11 0 14 0 23 5l24 14c7 4 7 6 7 14v493h107v-525c0 -32 -6 -38 -37 -56l-53 -31c-21 -12 -39 -14 -73 -14h-139c-61 0 -105 15 -137 47c-25 25 -40 66 -40 121v458h108zM157 717v86h290v-86h-290z" />
    <glyph glyph-name="Ubreve" unicode="&#x16c;" horiz-adv-x="604" 
d="M169 620v-452c0 -26 7 -46 17 -56c12 -12 31 -18 61 -18h132c11 0 14 0 23 5l24 14c7 4 7 6 7 14v493h107v-525c0 -32 -6 -38 -37 -56l-53 -31c-21 -12 -39 -14 -73 -14h-139c-61 0 -105 15 -137 47c-25 25 -40 66 -40 121v458h108zM332 687h-61c-39 0 -67 5 -85 23
c-16 16 -24 39 -24 72v52h88v-26c0 -30 2 -41 26 -41h51c24 0 26 11 26 41v26h88v-52c0 -33 -8 -56 -24 -72c-18 -18 -46 -23 -85 -23z" />
    <glyph glyph-name="Uring" unicode="&#x16e;" horiz-adv-x="604" 
d="M169 620v-452c0 -26 7 -46 17 -56c12 -12 31 -18 61 -18h132c11 0 14 0 23 5l24 14c7 4 7 6 7 14v493h107v-525c0 -32 -6 -38 -37 -56l-53 -31c-21 -12 -39 -14 -73 -14h-139c-61 0 -105 15 -137 47c-25 25 -40 66 -40 121v458h108zM415 804v-53c0 -62 -35 -82 -101 -82
h-24c-67 0 -101 20 -101 82v53c0 61 34 83 101 83h24c65 0 101 -22 101 -83zM295 735h13c28 0 35 2 35 30v26c0 23 -7 30 -35 30h-13c-28 0 -35 -7 -35 -30v-26c0 -28 7 -30 35 -30z" />
    <glyph glyph-name="Uhungarumlaut" unicode="&#x170;" horiz-adv-x="604" 
d="M169 620v-452c0 -26 7 -46 17 -56c12 -12 31 -18 61 -18h132c11 0 14 0 23 5l24 14c7 4 7 6 7 14v493h107v-525c0 -32 -6 -38 -37 -56l-53 -31c-21 -12 -39 -14 -73 -14h-139c-61 0 -105 15 -137 47c-25 25 -40 66 -40 121v458h108zM344 729l117 114c12 12 22 18 31 18
c6 0 12 0 20 -11l38 -53l-168 -121c-11 -8 -19 -3 -25 5l-16 21c-4 5 -5 8 -5 12s1 8 8 15zM156 729l117 114c12 12 22 18 31 18c6 0 12 0 20 -11l38 -53l-168 -121c-11 -8 -19 -3 -25 5l-16 21c-4 5 -5 8 -5 12s1 8 8 15z" />
    <glyph glyph-name="Uogonek" unicode="&#x172;" horiz-adv-x="604" 
d="M429 -12l-96 -109l83 -57l-45 -63l-115 73c-17 11 -26 22 -26 40c0 16 8 26 20 38l84 84h-96c-61 0 -105 15 -137 47c-25 25 -40 66 -40 121v458h108v-452c0 -26 7 -46 17 -56c12 -12 31 -18 61 -18h132c11 0 14 0 23 5l24 14c7 4 7 6 7 14v493h107v-529
c0 -30 -7 -38 -37 -54l-40 -22c-14 -8 -21 -12 -34 -27z" />
    <glyph glyph-name="Wgrave" unicode="&#x1e80;" horiz-adv-x="886" 
d="M524 50l-34 156c-25 116 -41 208 -47 266c-7 -58 -23 -154 -47 -266l-33 -156c-10 -46 -32 -56 -84 -56h-45c-50 0 -75 13 -84 56l-123 570h110l105 -515c3 -12 6 -15 17 -15h4c12 0 14 3 17 16l98 485c5 26 15 29 41 29h48c26 0 36 -3 41 -29l99 -486
c3 -12 6 -15 17 -15h4c10 0 14 2 17 15l104 515h110l-123 -570c-10 -44 -32 -56 -84 -56h-45c-51 0 -73 11 -83 56zM407 851l145 -120c9 -8 12 -13 4 -26l-14 -22c-7 -11 -13 -13 -26 -6l-193 105l40 65c7 11 13 15 21 15c7 0 13 -3 23 -11z" />
    <glyph glyph-name="Wacute" unicode="&#x1e82;" horiz-adv-x="886" 
d="M524 50l-34 156c-25 116 -41 208 -47 266c-7 -58 -23 -154 -47 -266l-33 -156c-10 -46 -32 -56 -84 -56h-45c-50 0 -75 13 -84 56l-123 570h110l105 -515c3 -12 6 -15 17 -15h4c12 0 14 3 17 16l98 485c5 26 15 29 41 29h48c26 0 36 -3 41 -29l99 -486
c3 -12 6 -15 17 -15h4c10 0 14 2 17 15l104 515h110l-123 -570c-10 -44 -32 -56 -84 -56h-45c-51 0 -73 11 -83 56zM339 731l145 120c10 8 16 11 23 11c8 0 14 -4 21 -15l40 -65l-193 -105c-13 -7 -19 -5 -26 6l-14 22c-8 13 -5 18 4 26z" />
    <glyph glyph-name="Wcircumflex" unicode="&#x174;" horiz-adv-x="886" 
d="M524 50l-34 156c-25 116 -41 208 -47 266c-7 -58 -23 -154 -47 -266l-33 -156c-10 -46 -32 -56 -84 -56h-45c-50 0 -75 13 -84 56l-123 570h110l105 -515c3 -12 6 -15 17 -15h4c12 0 14 3 17 16l98 485c5 26 15 29 41 29h48c26 0 36 -3 41 -29l99 -486
c3 -12 6 -15 17 -15h4c10 0 14 2 17 15l104 515h110l-123 -570c-10 -44 -32 -56 -84 -56h-45c-51 0 -73 11 -83 56zM430 864h25c18 0 26 -3 38 -19l121 -159h-98l-73 102l-73 -102h-99l121 159c12 16 21 19 38 19z" />
    <glyph glyph-name="Wdieresis" unicode="&#x1e84;" horiz-adv-x="886" 
d="M524 50l-34 156c-25 116 -41 208 -47 266c-7 -58 -23 -154 -47 -266l-33 -156c-10 -46 -32 -56 -84 -56h-45c-50 0 -75 13 -84 56l-123 570h110l105 -515c3 -12 6 -15 17 -15h4c12 0 14 3 17 16l98 485c5 26 15 29 41 29h48c26 0 36 -3 41 -29l99 -486
c3 -12 6 -15 17 -15h4c10 0 14 2 17 15l104 515h110l-123 -570c-10 -44 -32 -56 -84 -56h-45c-51 0 -73 11 -83 56zM338 696c-36 0 -62 26 -62 62c0 35 26 62 62 62c35 0 62 -27 62 -62c0 -36 -27 -62 -62 -62zM548 696c-36 0 -62 26 -62 62c0 35 26 62 62 62
c35 0 62 -27 62 -62c0 -36 -27 -62 -62 -62z" />
    <glyph glyph-name="Ygrave" unicode="&#x1ef2;" horiz-adv-x="555" 
d="M279 308l151 312h116l-207 -400c-7 -13 -7 -17 -7 -30v-190h-108v190c0 13 -1 17 -8 30l-207 400h119zM238 851l145 -120c9 -8 12 -13 4 -26l-14 -22c-7 -11 -13 -13 -26 -6l-193 105l40 65c7 11 13 15 21 15c7 0 13 -3 23 -11z" />
    <glyph glyph-name="Yacute" unicode="&#xdd;" horiz-adv-x="555" 
d="M279 308l151 312h116l-207 -400c-7 -13 -7 -17 -7 -30v-190h-108v190c0 13 -1 17 -8 30l-207 400h119zM178 731l145 120c10 8 16 11 23 11c8 0 14 -4 21 -15l40 -65l-193 -105c-13 -7 -19 -5 -26 6l-14 22c-8 13 -5 18 4 26z" />
    <glyph glyph-name="Ycircumflex" unicode="&#x176;" horiz-adv-x="555" 
d="M279 308l151 312h116l-207 -400c-7 -13 -7 -17 -7 -30v-190h-108v190c0 13 -1 17 -8 30l-207 400h119zM265 864h25c18 0 26 -3 38 -19l121 -159h-98l-73 102l-73 -102h-99l121 159c12 16 21 19 38 19z" />
    <glyph glyph-name="Ydieresis" unicode="&#x178;" horiz-adv-x="555" 
d="M279 308l151 312h116l-207 -400c-7 -13 -7 -17 -7 -30v-190h-108v190c0 13 -1 17 -8 30l-207 400h119zM173 696c-36 0 -62 26 -62 62c0 35 26 62 62 62c35 0 62 -27 62 -62c0 -36 -27 -62 -62 -62zM383 696c-36 0 -62 26 -62 62c0 35 26 62 62 62c35 0 62 -27 62 -62
c0 -36 -27 -62 -62 -62z" />
    <glyph glyph-name="Zacute" unicode="&#x179;" horiz-adv-x="513" 
d="M334 526h-280v94h381c18 0 24 -10 24 -27v-23c0 -29 -6 -43 -30 -80l-150 -233c-50 -78 -83 -128 -110 -163h298v-94h-399c-18 0 -24 9 -24 27v23c0 28 5 40 30 79l150 234c49 79 84 129 110 163zM152 731l145 120c10 8 16 11 23 11c8 0 14 -4 21 -15l40 -65l-193 -105
c-13 -7 -19 -5 -26 6l-14 22c-8 13 -5 18 4 26z" />
    <glyph glyph-name="Zcaron" unicode="&#x17d;" horiz-adv-x="513" 
d="M334 526h-280v94h381c18 0 24 -10 24 -27v-23c0 -29 -6 -43 -30 -80l-150 -233c-50 -78 -83 -128 -110 -163h298v-94h-399c-18 0 -24 9 -24 27v23c0 28 5 40 30 79l150 234c49 79 84 129 110 163zM270 682h-25c-17 0 -26 3 -38 19l-121 159h99l73 -102l73 102h98
l-121 -159c-12 -16 -20 -19 -38 -19z" />
    <glyph glyph-name="Zdotaccent" unicode="&#x17b;" horiz-adv-x="513" 
d="M334 526h-280v94h381c18 0 24 -10 24 -27v-23c0 -29 -6 -43 -30 -80l-150 -233c-50 -78 -83 -128 -110 -163h298v-94h-399c-18 0 -24 9 -24 27v23c0 28 5 40 30 79l150 234c49 79 84 129 110 163zM191 772c0 38 30 68 68 68s68 -30 68 -68s-30 -68 -68 -68s-68 30 -68 68
z" />
    <glyph glyph-name="agrave" unicode="&#xe0;" 
d="M200 82h108c10 0 11 0 18 5l20 15c6 5 6 5 6 12v102c0 6 -2 8 -9 8h-143c-43 0 -59 -24 -59 -68v-6c0 -46 16 -68 59 -68zM352 302v41c0 27 -5 44 -15 54c-11 11 -29 15 -56 15h-50c-58 0 -96 -9 -130 -36l-43 70c44 40 91 55 169 55h61c58 0 101 -15 128 -43
c25 -26 38 -64 38 -116v-250c0 -26 -6 -33 -33 -53l-34 -26c-23 -17 -37 -19 -71 -19h-107c-109 0 -168 46 -168 153v8c0 107 59 153 168 153h24c44 0 81 -3 119 -6zM216 731l145 -120c9 -8 12 -13 4 -26l-14 -22c-7 -11 -13 -13 -26 -6l-193 105l40 65c7 11 13 15 21 15
c7 0 13 -3 23 -11z" />
    <glyph glyph-name="aacute" unicode="&#xe1;" 
d="M200 82h108c10 0 11 0 18 5l20 15c6 5 6 5 6 12v102c0 6 -2 8 -9 8h-143c-43 0 -59 -24 -59 -68v-6c0 -46 16 -68 59 -68zM352 302v41c0 27 -5 44 -15 54c-11 11 -29 15 -56 15h-50c-58 0 -96 -9 -130 -36l-43 70c44 40 91 55 169 55h61c58 0 101 -15 128 -43
c25 -26 38 -64 38 -116v-250c0 -26 -6 -33 -33 -53l-34 -26c-23 -17 -37 -19 -71 -19h-107c-109 0 -168 46 -168 153v8c0 107 59 153 168 153h24c44 0 81 -3 119 -6zM149 611l145 120c10 8 16 11 23 11c8 0 14 -4 21 -15l40 -65l-193 -105c-13 -7 -19 -5 -26 6l-14 22
c-8 13 -5 18 4 26z" />
    <glyph glyph-name="acircumflex" unicode="&#xe2;" 
d="M200 82h108c10 0 11 0 18 5l20 15c6 5 6 5 6 12v102c0 6 -2 8 -9 8h-143c-43 0 -59 -24 -59 -68v-6c0 -46 16 -68 59 -68zM352 302v41c0 27 -5 44 -15 54c-11 11 -29 15 -56 15h-50c-58 0 -96 -9 -130 -36l-43 70c44 40 91 55 169 55h61c58 0 101 -15 128 -43
c25 -26 38 -64 38 -116v-250c0 -26 -6 -33 -33 -53l-34 -26c-23 -17 -37 -19 -71 -19h-107c-109 0 -168 46 -168 153v8c0 107 59 153 168 153h24c44 0 81 -3 119 -6zM241 744h25c18 0 26 -3 38 -19l121 -159h-98l-73 102l-73 -102h-99l121 159c12 16 21 19 38 19z" />
    <glyph glyph-name="atilde" unicode="&#xe3;" 
d="M200 82h108c10 0 11 0 18 5l20 15c6 5 6 5 6 12v102c0 6 -2 8 -9 8h-143c-43 0 -59 -24 -59 -68v-6c0 -46 16 -68 59 -68zM352 302v41c0 27 -5 44 -15 54c-11 11 -29 15 -56 15h-50c-58 0 -96 -9 -130 -36l-43 70c44 40 91 55 169 55h61c58 0 101 -15 128 -43
c25 -26 38 -64 38 -116v-250c0 -26 -6 -33 -33 -53l-34 -26c-23 -17 -37 -19 -71 -19h-107c-109 0 -168 46 -168 153v8c0 107 59 153 168 153h24c44 0 81 -3 119 -6zM338 676l59 34l43 -59l-59 -47c-26 -21 -46 -29 -71 -29c-50 0 -77 44 -112 44c-10 0 -17 -3 -29 -10
l-59 -34l-43 59l38 31c38 31 60 45 92 45c50 0 77 -44 112 -44c10 0 17 3 29 10z" />
    <glyph glyph-name="adieresis" unicode="&#xe4;" 
d="M200 82h108c10 0 11 0 18 5l20 15c6 5 6 5 6 12v102c0 6 -2 8 -9 8h-143c-43 0 -59 -24 -59 -68v-6c0 -46 16 -68 59 -68zM352 302v41c0 27 -5 44 -15 54c-11 11 -29 15 -56 15h-50c-58 0 -96 -9 -130 -36l-43 70c44 40 91 55 169 55h61c58 0 101 -15 128 -43
c25 -26 38 -64 38 -116v-250c0 -26 -6 -33 -33 -53l-34 -26c-23 -17 -37 -19 -71 -19h-107c-109 0 -168 46 -168 153v8c0 107 59 153 168 153h24c44 0 81 -3 119 -6zM159 576c-36 0 -62 26 -62 62c0 35 26 62 62 62c35 0 62 -27 62 -62c0 -36 -27 -62 -62 -62zM346 576
c-36 0 -62 26 -62 62c0 35 26 62 62 62c35 0 62 -27 62 -62c0 -36 -27 -62 -62 -62z" />
    <glyph glyph-name="amacron" unicode="&#x101;" 
d="M200 82h108c10 0 11 0 18 5l20 15c6 5 6 5 6 12v102c0 6 -2 8 -9 8h-143c-43 0 -59 -24 -59 -68v-6c0 -46 16 -68 59 -68zM352 302v41c0 27 -5 44 -15 54c-11 11 -29 15 -56 15h-50c-58 0 -96 -9 -130 -36l-43 70c44 40 91 55 169 55h61c58 0 101 -15 128 -43
c25 -26 38 -64 38 -116v-250c0 -26 -6 -33 -33 -53l-34 -26c-23 -17 -37 -19 -71 -19h-107c-109 0 -168 46 -168 153v8c0 107 59 153 168 153h24c44 0 81 -3 119 -6zM108 597v86h290v-86h-290z" />
    <glyph glyph-name="abreve" unicode="&#x103;" 
d="M200 82h108c10 0 11 0 18 5l20 15c6 5 6 5 6 12v102c0 6 -2 8 -9 8h-143c-43 0 -59 -24 -59 -68v-6c0 -46 16 -68 59 -68zM352 302v41c0 27 -5 44 -15 54c-11 11 -29 15 -56 15h-50c-58 0 -96 -9 -130 -36l-43 70c44 40 91 55 169 55h61c58 0 101 -15 128 -43
c25 -26 38 -64 38 -116v-250c0 -26 -6 -33 -33 -53l-34 -26c-23 -17 -37 -19 -71 -19h-107c-109 0 -168 46 -168 153v8c0 107 59 153 168 153h24c44 0 81 -3 119 -6zM282 567h-61c-39 0 -67 5 -85 23c-16 16 -24 39 -24 72v52h88v-26c0 -30 2 -41 26 -41h51
c24 0 26 11 26 41v26h88v-52c0 -33 -8 -56 -24 -72c-18 -18 -46 -23 -85 -23z" />
    <glyph glyph-name="acaron" unicode="&#x1ce;" 
d="M200 82h108c10 0 11 0 18 5l20 15c6 5 6 5 6 12v102c0 6 -2 8 -9 8h-143c-43 0 -59 -24 -59 -68v-6c0 -46 16 -68 59 -68zM352 302v41c0 27 -5 44 -15 54c-11 11 -29 15 -56 15h-50c-58 0 -96 -9 -130 -36l-43 70c44 40 91 55 169 55h61c58 0 101 -15 128 -43
c25 -26 38 -64 38 -116v-250c0 -26 -6 -33 -33 -53l-34 -26c-23 -17 -37 -19 -71 -19h-107c-109 0 -168 46 -168 153v8c0 107 59 153 168 153h24c44 0 81 -3 119 -6zM264 562h-25c-17 0 -26 3 -38 19l-121 159h99l73 -102l73 102h98l-121 -159c-12 -16 -20 -19 -38 -19z" />
    <glyph glyph-name="aring" unicode="&#xe5;" 
d="M200 82h108c10 0 11 0 18 5l20 15c6 5 6 5 6 12v102c0 6 -2 8 -9 8h-143c-43 0 -59 -24 -59 -68v-6c0 -46 16 -68 59 -68zM352 302v41c0 27 -5 44 -15 54c-11 11 -29 15 -56 15h-50c-58 0 -96 -9 -130 -36l-43 70c44 40 91 55 169 55h61c58 0 101 -15 128 -43
c25 -26 38 -64 38 -116v-250c0 -26 -6 -33 -33 -53l-34 -26c-23 -17 -37 -19 -71 -19h-107c-109 0 -168 46 -168 153v8c0 107 59 153 168 153h24c44 0 81 -3 119 -6zM365 684v-53c0 -62 -35 -82 -101 -82h-24c-67 0 -101 20 -101 82v53c0 61 34 83 101 83h24
c65 0 101 -22 101 -83zM245 615h13c28 0 35 2 35 30v26c0 23 -7 30 -35 30h-13c-28 0 -35 -7 -35 -30v-26c0 -28 7 -30 35 -30z" />
    <glyph glyph-name="aringacute" unicode="&#x1fb;" 
d="M200 82h108c10 0 11 0 18 5l20 15c6 5 6 5 6 12v102c0 6 -2 8 -9 8h-143c-43 0 -59 -24 -59 -68v-6c0 -46 16 -68 59 -68zM352 302v41c0 27 -5 44 -15 54c-11 11 -29 15 -56 15h-50c-58 0 -96 -9 -130 -36l-43 70c44 40 91 55 169 55h61c58 0 101 -15 128 -43
c25 -26 38 -64 38 -116v-250c0 -26 -6 -33 -33 -53l-34 -26c-23 -17 -37 -19 -71 -19h-107c-109 0 -168 46 -168 153v8c0 107 59 153 168 153h24c44 0 81 -3 119 -6zM365 684v-53c0 -62 -35 -82 -101 -82h-24c-67 0 -101 20 -101 82v53c0 61 34 83 101 83h24
c65 0 101 -22 101 -83zM245 615h13c28 0 35 2 35 30v26c0 23 -7 30 -35 30h-13c-28 0 -35 -7 -35 -30v-26c0 -28 7 -30 35 -30zM143 834l145 120c10 8 16 11 23 11c8 0 14 -4 21 -15l40 -65l-193 -105c-13 -7 -19 -5 -26 6l-14 22c-8 13 -5 18 4 26z" />
    <glyph glyph-name="aogonek" unicode="&#x105;" 
d="M200 82h77c19 0 33 0 52 9l18 9c5 3 5 6 5 11v105c0 6 -2 8 -9 8h-143c-43 0 -59 -24 -59 -68v-6c0 -46 16 -68 59 -68zM254 -6h-45c-109 0 -168 46 -168 153v8c0 107 59 153 168 153h24c44 0 81 -3 119 -6v41c0 27 -5 44 -15 54c-11 11 -29 15 -56 15h-50
c-58 0 -96 -9 -130 -36l-43 70c44 40 91 55 169 55h61c58 0 101 -15 128 -43c25 -26 38 -64 38 -116v-250c0 -26 -1 -34 -26 -68l-102 -139l83 -57l-45 -63l-115 73c-17 11 -26 22 -26 40c0 15 9 25 20 38l74 89c-20 -7 -44 -11 -63 -11z" />
    <glyph glyph-name="ae" unicode="&#xe6;" horiz-adv-x="812" 
d="M403 25l-16 -12c-21 -16 -35 -19 -71 -19h-107c-104 0 -168 41 -168 148s65 149 168 149h24c44 0 81 -3 119 -6v58c0 27 -5 44 -15 54c-11 11 -29 15 -56 15h-50c-58 0 -96 -9 -130 -36l-43 70c44 40 91 55 169 55h48c58 0 101 -15 128 -43c27 28 44 43 102 43h90
c58 0 101 -15 128 -43c25 -26 38 -64 38 -116v-95c0 -28 -13 -40 -40 -40h-267v-55c0 -27 5 -44 15 -54c11 -11 29 -15 56 -15h61c58 0 96 9 130 36l43 -70c-44 -40 -91 -55 -169 -55h-72c-54 0 -90 13 -115 31zM454 342v-53h206v53c0 27 -5 44 -15 54c-11 11 -29 15 -56 15
h-64c-27 0 -45 -4 -56 -15c-10 -10 -15 -27 -15 -54zM141 145c0 -46 20 -63 59 -63h108c10 0 11 0 18 5l20 15c6 5 6 5 6 12v85c0 6 -2 8 -9 8h-143c-39 0 -59 -18 -59 -62z" />
    <glyph glyph-name="aeacute" unicode="&#x1fd;" horiz-adv-x="812" 
d="M315 611l145 120c10 8 16 11 23 11c8 0 14 -4 21 -15l40 -65l-193 -105c-13 -7 -19 -5 -26 6l-14 22c-8 13 -5 18 4 26zM403 25l-16 -12c-21 -16 -35 -19 -71 -19h-107c-104 0 -168 41 -168 148s65 149 168 149h24c44 0 81 -3 119 -6v58c0 27 -5 44 -15 54
c-11 11 -29 15 -56 15h-50c-58 0 -96 -9 -130 -36l-43 70c44 40 91 55 169 55h48c58 0 101 -15 128 -43c27 28 44 43 102 43h90c58 0 101 -15 128 -43c25 -26 38 -64 38 -116v-95c0 -28 -13 -40 -40 -40h-267v-55c0 -27 5 -44 15 -54c11 -11 29 -15 56 -15h61
c58 0 96 9 130 36l43 -70c-44 -40 -91 -55 -169 -55h-72c-54 0 -90 13 -115 31zM454 342v-53h206v53c0 27 -5 44 -15 54c-11 11 -29 15 -56 15h-64c-27 0 -45 -4 -56 -15c-10 -10 -15 -27 -15 -54zM141 145c0 -46 20 -63 59 -63h108c10 0 11 0 18 5l20 15c6 5 6 5 6 12v85
c0 6 -2 8 -9 8h-143c-39 0 -59 -18 -59 -62z" />
    <glyph glyph-name="cacute" unicode="&#x107;" horiz-adv-x="473" 
d="M287 -6h-72c-58 0 -101 15 -128 43c-25 26 -38 64 -38 116v189c0 52 13 90 38 116c27 28 70 43 128 43h63c71 0 121 -21 159 -57l-43 -72c-31 24 -68 36 -116 36h-56c-27 0 -45 -4 -56 -15c-10 -10 -15 -27 -15 -54v-183c0 -27 5 -44 15 -54c11 -11 29 -15 56 -15h64
c48 0 86 12 117 36l43 -71c-38 -37 -88 -58 -159 -58zM145 611l145 120c10 8 16 11 23 11c8 0 14 -4 21 -15l40 -65l-193 -105c-13 -7 -19 -5 -26 6l-14 22c-8 13 -5 18 4 26z" />
    <glyph glyph-name="ccedilla" unicode="&#xe7;" horiz-adv-x="473" 
d="M247 -219l-38 56l76 51l-61 26c-19 8 -23 15 -23 25c0 6 2 14 5 21l14 34h-5c-58 0 -101 15 -128 43c-25 26 -38 64 -38 116v189c0 52 13 90 38 116c27 28 70 43 128 43h63c71 0 121 -21 159 -57l-43 -72c-31 24 -68 36 -116 36h-56c-27 0 -45 -4 -56 -15
c-10 -10 -15 -27 -15 -54v-183c0 -27 5 -44 15 -54c11 -11 29 -15 56 -15h64c48 0 86 12 117 36l43 -71c-38 -37 -88 -58 -159 -58h-4l-2 -17c-1 -8 2 -10 13 -15l54 -24c24 -11 31 -24 31 -41c0 -20 -9 -33 -31 -48z" />
    <glyph glyph-name="ccircumflex" unicode="&#x109;" horiz-adv-x="473" 
d="M287 -6h-72c-58 0 -101 15 -128 43c-25 26 -38 64 -38 116v189c0 52 13 90 38 116c27 28 70 43 128 43h63c71 0 121 -21 159 -57l-43 -72c-31 24 -68 36 -116 36h-56c-27 0 -45 -4 -56 -15c-10 -10 -15 -27 -15 -54v-183c0 -27 5 -44 15 -54c11 -11 29 -15 56 -15h64
c48 0 86 12 117 36l43 -71c-38 -37 -88 -58 -159 -58zM229 744h25c18 0 26 -3 38 -19l121 -159h-98l-73 102l-73 -102h-99l121 159c12 16 21 19 38 19z" />
    <glyph glyph-name="ccaron" unicode="&#x10d;" horiz-adv-x="473" 
d="M287 -6h-72c-58 0 -101 15 -128 43c-25 26 -38 64 -38 116v189c0 52 13 90 38 116c27 28 70 43 128 43h63c71 0 121 -21 159 -57l-43 -72c-31 24 -68 36 -116 36h-56c-27 0 -45 -4 -56 -15c-10 -10 -15 -27 -15 -54v-183c0 -27 5 -44 15 -54c11 -11 29 -15 56 -15h64
c48 0 86 12 117 36l43 -71c-38 -37 -88 -58 -159 -58zM255 562h-25c-17 0 -26 3 -38 19l-121 159h99l73 -102l73 102h98l-121 -159c-12 -16 -20 -19 -38 -19z" />
    <glyph glyph-name="cdotaccent" unicode="&#x10b;" horiz-adv-x="473" 
d="M287 -6h-72c-58 0 -101 15 -128 43c-25 26 -38 64 -38 116v189c0 52 13 90 38 116c27 28 70 43 128 43h63c71 0 121 -21 159 -57l-43 -72c-31 24 -68 36 -116 36h-56c-27 0 -45 -4 -56 -15c-10 -10 -15 -27 -15 -54v-183c0 -27 5 -44 15 -54c11 -11 29 -15 56 -15h64
c48 0 86 12 117 36l43 -71c-38 -37 -88 -58 -159 -58zM177 652c0 38 30 68 68 68s68 -30 68 -68s-30 -68 -68 -68s-68 30 -68 68z" />
    <glyph glyph-name="dcaron" unicode="&#x10f;" horiz-adv-x="619" 
d="M364 119v255c0 7 -1 8 -6 11l-35 19c-6 3 -9 4 -17 4h-84c-27 0 -45 -4 -56 -15c-10 -10 -15 -27 -15 -54v-183c0 -27 5 -44 15 -54c11 -11 29 -15 56 -15h98c10 0 11 0 18 5l20 15c6 5 6 5 6 12zM364 475v210h102v-593c0 -26 -6 -33 -33 -53l-34 -26
c-23 -17 -37 -19 -71 -19h-113c-58 0 -101 15 -128 43c-25 26 -38 64 -38 116v189c0 52 13 90 38 116c27 28 70 43 128 43h64c34 0 37 0 65 -15zM524 514l24 171h80c19 0 20 -10 16 -23l-42 -156c-4 -13 -9 -17 -25 -17h-35c-17 0 -21 7 -18 25z" />
    <glyph glyph-name="dcroat" unicode="&#x111;" horiz-adv-x="532" 
d="M364 475v72h-119v78h119v60h102v-60h63v-78h-63v-455c0 -26 -6 -33 -33 -53l-34 -26c-23 -17 -37 -19 -71 -19h-113c-58 0 -101 15 -128 43c-25 26 -38 64 -38 116v189c0 52 13 90 38 116c27 28 70 43 128 43h64c34 0 37 0 65 -15zM364 120v254c0 7 -1 8 -6 11l-35 19
c-6 3 -9 4 -17 4h-84c-27 0 -45 -4 -56 -15c-10 -10 -15 -27 -15 -54v-182c0 -27 5 -44 15 -54c11 -11 29 -15 56 -15h98c10 0 11 0 18 5l20 15c6 5 6 5 6 12z" />
    <glyph glyph-name="eth" unicode="&#xf0;" horiz-adv-x="527" 
d="M281 358h-58c-27 0 -45 -4 -56 -15c-10 -10 -15 -27 -15 -54v-133c0 -27 5 -44 15 -54c11 -11 29 -15 56 -15h76c27 0 45 4 56 15c10 10 15 27 15 54v165c0 9 -2 13 -11 17l-31 11c-16 6 -28 9 -47 9zM216 451h50c32 0 48 -3 71 -13l33 -15v79c0 21 -1 33 -5 44l-55 -55
l-45 43l60 60c-11 5 -24 7 -39 7h-42c-56 0 -94 -19 -122 -43l-43 70c41 44 94 63 180 63h30c42 0 80 -9 107 -25l64 64l47 -43l-63 -63c15 -19 28 -49 28 -97v-374c0 -52 -13 -90 -38 -116c-27 -28 -70 -43 -128 -43h-90c-58 0 -101 15 -128 43c-25 26 -38 64 -38 116v139
c0 52 13 90 38 116c27 28 70 43 128 43z" />
    <glyph glyph-name="egrave" unicode="&#xe8;" 
d="M418 207h-267v-55c0 -27 5 -44 15 -54c11 -11 29 -15 56 -15h61c58 0 96 9 130 36l43 -70c-44 -40 -91 -55 -169 -55h-72c-58 0 -101 15 -128 43c-25 26 -38 64 -38 116v189c0 52 13 90 38 116c27 28 70 43 128 43h77c58 0 101 -15 128 -43c25 -26 38 -64 38 -116v-95
c0 -28 -13 -40 -40 -40zM151 342v-53h206v53c0 27 -5 44 -15 54c-11 11 -29 15 -56 15h-64c-27 0 -45 -4 -56 -15c-10 -10 -15 -27 -15 -54zM218 731l145 -120c9 -8 12 -13 4 -26l-14 -22c-7 -11 -13 -13 -26 -6l-193 105l40 65c7 11 13 15 21 15c7 0 13 -3 23 -11z" />
    <glyph glyph-name="eacute" unicode="&#xe9;" 
d="M418 207h-267v-55c0 -27 5 -44 15 -54c11 -11 29 -15 56 -15h61c58 0 96 9 130 36l43 -70c-44 -40 -91 -55 -169 -55h-72c-58 0 -101 15 -128 43c-25 26 -38 64 -38 116v189c0 52 13 90 38 116c27 28 70 43 128 43h77c58 0 101 -15 128 -43c25 -26 38 -64 38 -116v-95
c0 -28 -13 -40 -40 -40zM151 342v-53h206v53c0 27 -5 44 -15 54c-11 11 -29 15 -56 15h-64c-27 0 -45 -4 -56 -15c-10 -10 -15 -27 -15 -54zM151 611l145 120c10 8 16 11 23 11c8 0 14 -4 21 -15l40 -65l-193 -105c-13 -7 -19 -5 -26 6l-14 22c-8 13 -5 18 4 26z" />
    <glyph glyph-name="ecircumflex" unicode="&#xea;" 
d="M418 207h-267v-55c0 -27 5 -44 15 -54c11 -11 29 -15 56 -15h61c58 0 96 9 130 36l43 -70c-44 -40 -91 -55 -169 -55h-72c-58 0 -101 15 -128 43c-25 26 -38 64 -38 116v189c0 52 13 90 38 116c27 28 70 43 128 43h77c58 0 101 -15 128 -43c25 -26 38 -64 38 -116v-95
c0 -28 -13 -40 -40 -40zM151 342v-53h206v53c0 27 -5 44 -15 54c-11 11 -29 15 -56 15h-64c-27 0 -45 -4 -56 -15c-10 -10 -15 -27 -15 -54zM241 744h25c18 0 26 -3 38 -19l121 -159h-98l-73 102l-73 -102h-99l121 159c12 16 21 19 38 19z" />
    <glyph glyph-name="ecaron" unicode="&#x11b;" 
d="M418 207h-267v-55c0 -27 5 -44 15 -54c11 -11 29 -15 56 -15h61c58 0 96 9 130 36l43 -70c-44 -40 -91 -55 -169 -55h-72c-58 0 -101 15 -128 43c-25 26 -38 64 -38 116v189c0 52 13 90 38 116c27 28 70 43 128 43h77c58 0 101 -15 128 -43c25 -26 38 -64 38 -116v-95
c0 -28 -13 -40 -40 -40zM151 342v-53h206v53c0 27 -5 44 -15 54c-11 11 -29 15 -56 15h-64c-27 0 -45 -4 -56 -15c-10 -10 -15 -27 -15 -54zM266 562h-25c-17 0 -26 3 -38 19l-121 159h99l73 -102l73 102h98l-121 -159c-12 -16 -20 -19 -38 -19z" />
    <glyph glyph-name="edieresis" unicode="&#xeb;" 
d="M418 207h-267v-55c0 -27 5 -44 15 -54c11 -11 29 -15 56 -15h61c58 0 96 9 130 36l43 -70c-44 -40 -91 -55 -169 -55h-72c-58 0 -101 15 -128 43c-25 26 -38 64 -38 116v189c0 52 13 90 38 116c27 28 70 43 128 43h77c58 0 101 -15 128 -43c25 -26 38 -64 38 -116v-95
c0 -28 -13 -40 -40 -40zM151 342v-53h206v53c0 27 -5 44 -15 54c-11 11 -29 15 -56 15h-64c-27 0 -45 -4 -56 -15c-10 -10 -15 -27 -15 -54zM160 576c-36 0 -62 26 -62 62c0 35 26 62 62 62c35 0 62 -27 62 -62c0 -36 -27 -62 -62 -62zM347 576c-36 0 -62 26 -62 62
c0 35 26 62 62 62c35 0 62 -27 62 -62c0 -36 -27 -62 -62 -62z" />
    <glyph glyph-name="emacron" unicode="&#x113;" 
d="M418 207h-267v-55c0 -27 5 -44 15 -54c11 -11 29 -15 56 -15h61c58 0 96 9 130 36l43 -70c-44 -40 -91 -55 -169 -55h-72c-58 0 -101 15 -128 43c-25 26 -38 64 -38 116v189c0 52 13 90 38 116c27 28 70 43 128 43h77c58 0 101 -15 128 -43c25 -26 38 -64 38 -116v-95
c0 -28 -13 -40 -40 -40zM151 342v-53h206v53c0 27 -5 44 -15 54c-11 11 -29 15 -56 15h-64c-27 0 -45 -4 -56 -15c-10 -10 -15 -27 -15 -54zM109 597v86h290v-86h-290z" />
    <glyph glyph-name="ebreve" unicode="&#x115;" 
d="M418 207h-267v-55c0 -27 5 -44 15 -54c11 -11 29 -15 56 -15h61c58 0 96 9 130 36l43 -70c-44 -40 -91 -55 -169 -55h-72c-58 0 -101 15 -128 43c-25 26 -38 64 -38 116v189c0 52 13 90 38 116c27 28 70 43 128 43h77c58 0 101 -15 128 -43c25 -26 38 -64 38 -116v-95
c0 -28 -13 -40 -40 -40zM151 342v-53h206v53c0 27 -5 44 -15 54c-11 11 -29 15 -56 15h-64c-27 0 -45 -4 -56 -15c-10 -10 -15 -27 -15 -54zM284 567h-61c-39 0 -67 5 -85 23c-16 16 -24 39 -24 72v52h88v-26c0 -30 2 -41 26 -41h51c24 0 26 11 26 41v26h88v-52
c0 -33 -8 -56 -24 -72c-18 -18 -46 -23 -85 -23z" />
    <glyph glyph-name="edotaccent" unicode="&#x117;" 
d="M418 207h-267v-55c0 -27 5 -44 15 -54c11 -11 29 -15 56 -15h61c58 0 96 9 130 36l43 -70c-44 -40 -91 -55 -169 -55h-72c-58 0 -101 15 -128 43c-25 26 -38 64 -38 116v189c0 52 13 90 38 116c27 28 70 43 128 43h77c58 0 101 -15 128 -43c25 -26 38 -64 38 -116v-95
c0 -28 -13 -40 -40 -40zM151 342v-53h206v53c0 27 -5 44 -15 54c-11 11 -29 15 -56 15h-64c-27 0 -45 -4 -56 -15c-10 -10 -15 -27 -15 -54zM186 652c0 38 30 68 68 68s68 -30 68 -68s-30 -68 -68 -68s-68 30 -68 68z" />
    <glyph glyph-name="eogonek" unicode="&#x119;" 
d="M151 342v-53h206v53c0 27 -5 44 -15 54c-11 11 -29 15 -56 15h-64c-27 0 -45 -4 -56 -15c-10 -10 -15 -27 -15 -54zM217 -84l93 84c-13 -4 -27 -6 -44 -6h-51c-58 0 -101 15 -128 43c-25 26 -38 64 -38 116v189c0 52 13 90 38 116c27 28 70 43 128 43h77
c58 0 101 -15 128 -43c25 -26 38 -64 38 -116v-95c0 -28 -13 -40 -40 -40h-267v-55c0 -27 5 -44 15 -54c11 -11 29 -15 56 -15h61c58 0 96 9 130 36l41 -68l-154 -166l83 -57l-45 -63l-115 73c-17 11 -26 22 -26 40c0 16 7 27 20 38z" />
    <glyph glyph-name="gcircumflex" unicode="&#x11d;" horiz-adv-x="524" 
d="M365 20l-21 -11c-28 -15 -31 -15 -65 -15h-64c-58 0 -101 15 -128 43c-25 26 -38 64 -38 116v189c0 52 13 90 38 116c27 28 70 43 128 43h113c34 0 48 -2 71 -19l34 -26c27 -20 33 -27 33 -53v-438c0 -108 -55 -161 -165 -161h-63c-82 0 -125 18 -158 53l42 70
c29 -23 66 -34 115 -34h53c58 0 75 23 75 74v53zM364 121v255c0 7 0 7 -6 12l-20 15c-7 5 -8 5 -18 5h-98c-27 0 -45 -4 -56 -15c-10 -10 -15 -27 -15 -54v-183c0 -27 5 -44 15 -54c11 -11 29 -15 56 -15h84c8 0 11 1 17 4l35 19c5 3 6 4 6 11zM249 744h25
c18 0 26 -3 38 -19l121 -159h-98l-73 102l-73 -102h-99l121 159c12 16 21 19 38 19z" />
    <glyph glyph-name="gbreve" unicode="&#x11f;" horiz-adv-x="524" 
d="M365 20l-21 -11c-28 -15 -31 -15 -65 -15h-64c-58 0 -101 15 -128 43c-25 26 -38 64 -38 116v189c0 52 13 90 38 116c27 28 70 43 128 43h113c34 0 48 -2 71 -19l34 -26c27 -20 33 -27 33 -53v-438c0 -108 -55 -161 -165 -161h-63c-82 0 -125 18 -158 53l42 70
c29 -23 66 -34 115 -34h53c58 0 75 23 75 74v53zM364 121v255c0 7 0 7 -6 12l-20 15c-7 5 -8 5 -18 5h-98c-27 0 -45 -4 -56 -15c-10 -10 -15 -27 -15 -54v-183c0 -27 5 -44 15 -54c11 -11 29 -15 56 -15h84c8 0 11 1 17 4l35 19c5 3 6 4 6 11zM292 567h-61
c-39 0 -67 5 -85 23c-16 16 -24 39 -24 72v52h88v-26c0 -30 2 -41 26 -41h51c24 0 26 11 26 41v26h88v-52c0 -33 -8 -56 -24 -72c-18 -18 -46 -23 -85 -23z" />
    <glyph glyph-name="gdotaccent" unicode="&#x121;" horiz-adv-x="524" 
d="M365 20l-21 -11c-28 -15 -31 -15 -65 -15h-64c-58 0 -101 15 -128 43c-25 26 -38 64 -38 116v189c0 52 13 90 38 116c27 28 70 43 128 43h113c34 0 48 -2 71 -19l34 -26c27 -20 33 -27 33 -53v-438c0 -108 -55 -161 -165 -161h-63c-82 0 -125 18 -158 53l42 70
c29 -23 66 -34 115 -34h53c58 0 75 23 75 74v53zM364 121v255c0 7 0 7 -6 12l-20 15c-7 5 -8 5 -18 5h-98c-27 0 -45 -4 -56 -15c-10 -10 -15 -27 -15 -54v-183c0 -27 5 -44 15 -54c11 -11 29 -15 56 -15h84c8 0 11 1 17 4l35 19c5 3 6 4 6 11zM194 652c0 38 30 68 68 68
s68 -30 68 -68s-30 -68 -68 -68s-68 30 -68 68z" />
    <glyph glyph-name="gcommaaccent" unicode="&#x123;" horiz-adv-x="524" 
d="M365 20l-21 -11c-28 -15 -31 -15 -65 -15h-64c-58 0 -101 15 -128 43c-25 26 -38 64 -38 116v189c0 52 13 90 38 116c27 28 70 43 128 43h113c34 0 48 -2 71 -19l34 -26c27 -20 33 -27 33 -53v-438c0 -108 -55 -161 -165 -161h-63c-82 0 -125 18 -158 53l42 70
c29 -23 66 -34 115 -34h53c58 0 75 23 75 74v53zM364 121v255c0 7 0 7 -6 12l-20 15c-7 5 -8 5 -18 5h-98c-27 0 -45 -4 -56 -15c-10 -10 -15 -27 -15 -54v-183c0 -27 5 -44 15 -54c11 -11 29 -15 56 -15h84c8 0 11 1 17 4l35 19c5 3 6 4 6 11zM329 731l-24 -171h-80
c-19 0 -20 10 -16 23l42 156c4 13 9 17 25 17h35c17 0 21 -7 18 -25z" />
    <glyph glyph-name="hcircumflex" unicode="&#x125;" horiz-adv-x="529" 
d="M160 0h-102v685h102v-210l20 11c28 15 31 15 65 15h64c58 0 101 -15 128 -43c25 -26 38 -64 38 -116v-342h-102v339c0 27 -5 44 -15 54c-11 11 -29 15 -56 15h-84c-8 0 -11 -1 -17 -4l-35 -19c-5 -3 -6 -4 -6 -11v-374zM96 884h25c18 0 26 -3 38 -19l121 -159h-98
l-73 102l-73 -102h-99l121 159c12 16 21 19 38 19z" />
    <glyph glyph-name="hbar" unicode="&#x127;" horiz-adv-x="533" 
d="M161 0h-102v547h-59v78h59v60h102v-60h122v-78h-122v-72l20 11c28 15 31 15 65 15h64c58 0 101 -15 128 -43c25 -26 38 -64 38 -116v-342h-102v339c0 27 -5 44 -15 54c-11 11 -29 15 -56 15h-84c-8 0 -11 -1 -17 -4l-35 -19c-5 -3 -6 -4 -6 -11v-374z" />
    <glyph glyph-name="dotlessi" unicode="&#x131;" horiz-adv-x="230" 
d="M166 495v-495h-102v495h102z" />
    <glyph glyph-name="igrave" unicode="&#xec;" horiz-adv-x="230" 
d="M80 731l145 -120c9 -8 12 -13 4 -26l-14 -22c-7 -11 -13 -13 -26 -6l-193 105l40 65c7 11 13 15 21 15c7 0 13 -3 23 -11zM166 495v-495h-102v495h102z" />
    <glyph glyph-name="iacute" unicode="&#xed;" horiz-adv-x="230" 
d="M12 611l145 120c10 8 16 11 23 11c8 0 14 -4 21 -15l40 -65l-193 -105c-13 -7 -19 -5 -26 6l-14 22c-8 13 -5 18 4 26zM166 495v-495h-102v495h102z" />
    <glyph glyph-name="icircumflex" unicode="&#xee;" horiz-adv-x="230" 
d="M166 495v-495h-102v495h102zM103 744h25c18 0 26 -3 38 -19l121 -159h-98l-73 102l-73 -102h-99l121 159c12 16 21 19 38 19z" />
    <glyph glyph-name="itilde" unicode="&#x129;" horiz-adv-x="230" 
d="M200 676l59 34l43 -59l-59 -47c-26 -21 -46 -29 -71 -29c-50 0 -77 44 -112 44c-10 0 -17 -3 -29 -10l-59 -34l-43 59l38 31c38 31 60 45 92 45c50 0 77 -44 112 -44c10 0 17 3 29 10zM166 495v-495h-102v495h102z" />
    <glyph glyph-name="idieresis" unicode="&#xef;" horiz-adv-x="230" 
d="M22 576c-36 0 -62 26 -62 62c0 35 26 62 62 62c35 0 62 -27 62 -62c0 -36 -27 -62 -62 -62zM209 576c-36 0 -62 26 -62 62c0 35 26 62 62 62c35 0 62 -27 62 -62c0 -36 -27 -62 -62 -62zM166 495v-495h-102v495h102z" />
    <glyph glyph-name="imacron" unicode="&#x12b;" horiz-adv-x="230" 
d="M-30 597v86h290v-86h-290zM166 495v-495h-102v495h102z" />
    <glyph glyph-name="ibreve" unicode="&#x12d;" horiz-adv-x="230" 
d="M145 567h-61c-39 0 -67 5 -85 23c-16 16 -24 39 -24 72v52h88v-26c0 -30 2 -41 26 -41h51c24 0 26 11 26 41v26h88v-52c0 -33 -8 -56 -24 -72c-18 -18 -46 -23 -85 -23zM166 495v-495h-102v495h102z" />
    <glyph glyph-name="iogonek" unicode="&#x12f;" horiz-adv-x="229" 
d="M166 495v-462c0 -20 0 -22 -26 -57l-67 -91l83 -57l-45 -63l-115 73c-17 11 -26 22 -26 40c0 15 9 25 20 38l74 89v490h102zM52 625c0 35 28 63 63 63s63 -28 63 -63s-28 -63 -63 -63s-63 28 -63 63z" />
    <glyph glyph-name="ij" unicode="&#x133;" horiz-adv-x="472" 
d="M165 495v-495h-102v495h102zM51 625c0 35 28 63 63 63s63 -28 63 -63s-28 -63 -63 -63s-63 28 -63 63zM295 625c0 35 28 63 63 63s63 -28 63 -63s-28 -63 -63 -63s-63 28 -63 63zM169 -111h62c27 0 46 6 58 18c15 15 18 42 18 63v525h102v-529c0 -52 -12 -90 -38 -116
c-30 -30 -73 -46 -142 -46h-38z" />
    <glyph glyph-name="jcircumflex" unicode="&#x135;" horiz-adv-x="244" 
d="M-60 -111h62c27 0 46 6 58 18c15 15 18 42 18 63v525h102v-529c0 -52 -12 -90 -38 -116c-30 -30 -73 -46 -142 -46h-38zM117 744h25c18 0 26 -3 38 -19l121 -159h-98l-73 102l-73 -102h-99l121 159c12 16 21 19 38 19z" />
    <glyph glyph-name="kcommaaccent" unicode="&#x137;" horiz-adv-x="498" 
d="M332 256l147 -256h-113l-112 199c-6 11 -11 13 -24 13h-70v-212h-102v685h102v-382h69c13 0 17 2 24 13l113 179h108l-142 -218c-6 -9 -6 -11 0 -21zM193 -214l24 171h80c19 0 20 -10 16 -23l-42 -156c-4 -13 -9 -17 -25 -17h-35c-17 0 -21 7 -18 25z" />
    <glyph glyph-name="kgreenlandic" unicode="&#x138;" horiz-adv-x="498" 
d="M332 256l147 -256h-113l-112 199c-6 11 -11 13 -24 13h-70v-212h-102v495h102v-192h69c13 0 17 2 24 13l113 179h108l-142 -218c-6 -9 -6 -11 0 -21z" />
    <glyph glyph-name="lacute" unicode="&#x13a;" horiz-adv-x="293" 
d="M240 79h29v-85h-38c-58 0 -104 18 -131 46c-25 26 -38 64 -38 116v529h102v-525c0 -21 3 -48 18 -63c11 -11 31 -18 58 -18zM28 773l145 120c10 8 16 11 23 11c8 0 14 -4 21 -15l40 -65l-193 -105c-13 -7 -19 -5 -26 6l-14 22c-8 13 -5 18 4 26z" />
    <glyph glyph-name="lcaron" unicode="&#x13e;" horiz-adv-x="322" 
d="M240 79h29v-85h-38c-58 0 -104 18 -131 46c-25 26 -38 64 -38 116v529h102v-525c0 -21 3 -48 18 -63c11 -11 31 -18 58 -18zM221 514l24 171h80c19 0 20 -10 16 -23l-42 -156c-4 -13 -9 -17 -25 -17h-35c-17 0 -21 7 -18 25z" />
    <glyph glyph-name="lcommaaccent" unicode="&#x13c;" horiz-adv-x="293" 
d="M240 79h29v-85h-38c-58 0 -104 18 -131 46c-25 26 -38 64 -38 116v529h102v-525c0 -21 3 -48 18 -63c11 -11 31 -18 58 -18zM96 -214l24 171h80c19 0 20 -10 16 -23l-42 -156c-4 -13 -9 -17 -25 -17h-35c-17 0 -21 7 -18 25z" />
    <glyph glyph-name="lslash" unicode="&#x142;" horiz-adv-x="335" 
d="M197 325v-165c0 -21 3 -48 18 -63c11 -11 31 -18 58 -18h29v-85h-38c-58 0 -104 18 -131 46c-25 26 -38 64 -38 116v108l-71 -44v99l71 44v322h102v-261l88 55v-99z" />
    <glyph glyph-name="longs" unicode="&#x17f;" horiz-adv-x="292" 
d="M16 408v87h74v37c0 52 13 90 38 116c27 28 70 43 128 43h89v-90h-82c-27 0 -45 -4 -56 -15c-10 -10 -15 -27 -15 -54v-532h-102v408h-74z" />
    <glyph glyph-name="ldot" unicode="&#x140;" horiz-adv-x="374" 
d="M240 79h29v-85h-38c-58 0 -104 18 -131 46c-25 26 -38 64 -38 116v529h102v-525c0 -21 3 -48 18 -63c11 -11 31 -18 58 -18zM231 346c0 38 30 68 68 68s68 -30 68 -68s-30 -68 -68 -68s-68 30 -68 68z" />
    <glyph glyph-name="nacute" unicode="&#x144;" horiz-adv-x="528" 
d="M199 501h110c58 0 101 -15 128 -43c25 -26 38 -64 38 -116v-342h-102v339c0 27 -5 44 -15 54c-11 11 -29 15 -56 15h-95c-10 0 -11 0 -18 -5l-20 -15c-6 -5 -6 -5 -6 -12v-376h-102v403c0 26 6 33 33 53l34 26c23 17 37 19 71 19zM165 611l145 120c10 8 16 11 23 11
c8 0 14 -4 21 -15l40 -65l-193 -105c-13 -7 -19 -5 -26 6l-14 22c-8 13 -5 18 4 26z" />
    <glyph glyph-name="ncaron" unicode="&#x148;" horiz-adv-x="528" 
d="M199 501h110c58 0 101 -15 128 -43c25 -26 38 -64 38 -116v-342h-102v339c0 27 -5 44 -15 54c-11 11 -29 15 -56 15h-95c-10 0 -11 0 -18 -5l-20 -15c-6 -5 -6 -5 -6 -12v-376h-102v403c0 26 6 33 33 53l34 26c23 17 37 19 71 19zM276 562h-25c-17 0 -26 3 -38 19
l-121 159h99l73 -102l73 102h98l-121 -159c-12 -16 -20 -19 -38 -19z" />
    <glyph glyph-name="ntilde" unicode="&#xf1;" horiz-adv-x="528" 
d="M199 501h110c58 0 101 -15 128 -43c25 -26 38 -64 38 -116v-342h-102v339c0 27 -5 44 -15 54c-11 11 -29 15 -56 15h-95c-10 0 -11 0 -18 -5l-20 -15c-6 -5 -6 -5 -6 -12v-376h-102v403c0 26 6 33 33 53l34 26c23 17 37 19 71 19zM350 676l59 34l43 -59l-59 -47
c-26 -21 -46 -29 -71 -29c-50 0 -77 44 -112 44c-10 0 -17 -3 -29 -10l-59 -34l-43 59l38 31c38 31 60 45 92 45c50 0 77 -44 112 -44c10 0 17 3 29 10z" />
    <glyph glyph-name="ncommaaccent" unicode="&#x146;" horiz-adv-x="528" 
d="M199 501h110c58 0 101 -15 128 -43c25 -26 38 -64 38 -116v-342h-102v339c0 27 -5 44 -15 54c-11 11 -29 15 -56 15h-95c-10 0 -11 0 -18 -5l-20 -15c-6 -5 -6 -5 -6 -12v-376h-102v403c0 26 6 33 33 53l34 26c23 17 37 19 71 19zM200 -214l24 171h80c19 0 20 -10 16 -23
l-42 -156c-4 -13 -9 -17 -25 -17h-35c-17 0 -21 7 -18 25z" />
    <glyph glyph-name="napostrophe" unicode="&#x149;" horiz-adv-x="627" 
d="M30 404l15 52c7 23 9 35 9 44c0 29 -30 34 -30 70c0 32 23 56 59 56c38 0 63 -23 63 -61c0 -27 -10 -57 -30 -105l-30 -69c-5 -12 -10 -15 -23 -11l-21 6c-12 3 -15 8 -12 18zM297 501h110c58 0 101 -15 128 -43c25 -26 38 -64 38 -116v-342h-102v339c0 27 -5 44 -15 54
c-11 11 -29 15 -56 15h-95c-10 0 -11 0 -18 -5l-20 -15c-6 -5 -6 -5 -6 -12v-376h-102v403c0 26 6 33 33 53l34 26c23 17 37 19 71 19z" />
    <glyph glyph-name="eng" unicode="&#x14b;" horiz-adv-x="528" 
d="M196 501h110c58 0 101 -15 128 -43c25 -26 38 -64 38 -116v-347c0 -52 -12 -90 -38 -116c-30 -30 -73 -46 -142 -46h-38l-22 85h62c27 0 46 6 58 18c15 15 18 42 18 63v340c0 27 -5 44 -15 54c-11 11 -29 15 -56 15h-95c-10 0 -11 0 -18 -5l-20 -15c-6 -5 -6 -5 -6 -12
v-376h-102v403c0 26 6 33 33 53l34 26c23 17 37 19 71 19z" />
    <glyph glyph-name="ograve" unicode="&#xf2;" horiz-adv-x="520" 
d="M471 342v-189c0 -52 -13 -90 -38 -116c-27 -28 -70 -43 -128 -43h-90c-58 0 -101 15 -128 43c-25 26 -38 64 -38 116v189c0 52 13 90 38 116c27 28 70 43 128 43h90c58 0 101 -15 128 -43c25 -26 38 -64 38 -116zM369 156v183c0 27 -5 44 -15 54c-11 11 -29 15 -56 15
h-76c-27 0 -45 -4 -56 -15c-10 -10 -15 -27 -15 -54v-183c0 -27 5 -44 15 -54c11 -11 29 -15 56 -15h76c27 0 45 4 56 15c10 10 15 27 15 54zM224 731l145 -120c9 -8 12 -13 4 -26l-14 -22c-7 -11 -13 -13 -26 -6l-193 105l40 65c7 11 13 15 21 15c7 0 13 -3 23 -11z" />
    <glyph glyph-name="oacute" unicode="&#xf3;" horiz-adv-x="520" 
d="M471 342v-189c0 -52 -13 -90 -38 -116c-27 -28 -70 -43 -128 -43h-90c-58 0 -101 15 -128 43c-25 26 -38 64 -38 116v189c0 52 13 90 38 116c27 28 70 43 128 43h90c58 0 101 -15 128 -43c25 -26 38 -64 38 -116zM369 156v183c0 27 -5 44 -15 54c-11 11 -29 15 -56 15
h-76c-27 0 -45 -4 -56 -15c-10 -10 -15 -27 -15 -54v-183c0 -27 5 -44 15 -54c11 -11 29 -15 56 -15h76c27 0 45 4 56 15c10 10 15 27 15 54zM155 611l145 120c10 8 16 11 23 11c8 0 14 -4 21 -15l40 -65l-193 -105c-13 -7 -19 -5 -26 6l-14 22c-8 13 -5 18 4 26z" />
    <glyph glyph-name="ocircumflex" unicode="&#xf4;" horiz-adv-x="520" 
d="M471 342v-189c0 -52 -13 -90 -38 -116c-27 -28 -70 -43 -128 -43h-90c-58 0 -101 15 -128 43c-25 26 -38 64 -38 116v189c0 52 13 90 38 116c27 28 70 43 128 43h90c58 0 101 -15 128 -43c25 -26 38 -64 38 -116zM369 156v183c0 27 -5 44 -15 54c-11 11 -29 15 -56 15
h-76c-27 0 -45 -4 -56 -15c-10 -10 -15 -27 -15 -54v-183c0 -27 5 -44 15 -54c11 -11 29 -15 56 -15h76c27 0 45 4 56 15c10 10 15 27 15 54zM247 744h25c18 0 26 -3 38 -19l121 -159h-98l-73 102l-73 -102h-99l121 159c12 16 21 19 38 19z" />
    <glyph glyph-name="otilde" unicode="&#xf5;" horiz-adv-x="520" 
d="M471 342v-189c0 -52 -13 -90 -38 -116c-27 -28 -70 -43 -128 -43h-90c-58 0 -101 15 -128 43c-25 26 -38 64 -38 116v189c0 52 13 90 38 116c27 28 70 43 128 43h90c58 0 101 -15 128 -43c25 -26 38 -64 38 -116zM369 156v183c0 27 -5 44 -15 54c-11 11 -29 15 -56 15
h-76c-27 0 -45 -4 -56 -15c-10 -10 -15 -27 -15 -54v-183c0 -27 5 -44 15 -54c11 -11 29 -15 56 -15h76c27 0 45 4 56 15c10 10 15 27 15 54zM344 676l59 34l43 -59l-59 -47c-26 -21 -46 -29 -71 -29c-50 0 -77 44 -112 44c-10 0 -17 -3 -29 -10l-59 -34l-43 59l38 31
c38 31 60 45 92 45c50 0 77 -44 112 -44c10 0 17 3 29 10z" />
    <glyph glyph-name="odieresis" unicode="&#xf6;" horiz-adv-x="520" 
d="M471 342v-189c0 -52 -13 -90 -38 -116c-27 -28 -70 -43 -128 -43h-90c-58 0 -101 15 -128 43c-25 26 -38 64 -38 116v189c0 52 13 90 38 116c27 28 70 43 128 43h90c58 0 101 -15 128 -43c25 -26 38 -64 38 -116zM369 156v183c0 27 -5 44 -15 54c-11 11 -29 15 -56 15
h-76c-27 0 -45 -4 -56 -15c-10 -10 -15 -27 -15 -54v-183c0 -27 5 -44 15 -54c11 -11 29 -15 56 -15h76c27 0 45 4 56 15c10 10 15 27 15 54zM166 576c-36 0 -62 26 -62 62c0 35 26 62 62 62c35 0 62 -27 62 -62c0 -36 -27 -62 -62 -62zM353 576c-36 0 -62 26 -62 62
c0 35 26 62 62 62c35 0 62 -27 62 -62c0 -36 -27 -62 -62 -62z" />
    <glyph glyph-name="omacron" unicode="&#x14d;" horiz-adv-x="520" 
d="M471 342v-189c0 -52 -13 -90 -38 -116c-27 -28 -70 -43 -128 -43h-90c-58 0 -101 15 -128 43c-25 26 -38 64 -38 116v189c0 52 13 90 38 116c27 28 70 43 128 43h90c58 0 101 -15 128 -43c25 -26 38 -64 38 -116zM369 156v183c0 27 -5 44 -15 54c-11 11 -29 15 -56 15
h-76c-27 0 -45 -4 -56 -15c-10 -10 -15 -27 -15 -54v-183c0 -27 5 -44 15 -54c11 -11 29 -15 56 -15h76c27 0 45 4 56 15c10 10 15 27 15 54zM115 597v86h290v-86h-290z" />
    <glyph glyph-name="obreve" unicode="&#x14f;" horiz-adv-x="520" 
d="M471 342v-189c0 -52 -13 -90 -38 -116c-27 -28 -70 -43 -128 -43h-90c-58 0 -101 15 -128 43c-25 26 -38 64 -38 116v189c0 52 13 90 38 116c27 28 70 43 128 43h90c58 0 101 -15 128 -43c25 -26 38 -64 38 -116zM369 156v183c0 27 -5 44 -15 54c-11 11 -29 15 -56 15
h-76c-27 0 -45 -4 -56 -15c-10 -10 -15 -27 -15 -54v-183c0 -27 5 -44 15 -54c11 -11 29 -15 56 -15h76c27 0 45 4 56 15c10 10 15 27 15 54zM290 567h-61c-39 0 -67 5 -85 23c-16 16 -24 39 -24 72v52h88v-26c0 -30 2 -41 26 -41h51c24 0 26 11 26 41v26h88v-52
c0 -33 -8 -56 -24 -72c-18 -18 -46 -23 -85 -23z" />
    <glyph glyph-name="ohungarumlaut" unicode="&#x151;" horiz-adv-x="520" 
d="M471 342v-189c0 -52 -13 -90 -38 -116c-27 -28 -70 -43 -128 -43h-90c-58 0 -101 15 -128 43c-25 26 -38 64 -38 116v189c0 52 13 90 38 116c27 28 70 43 128 43h90c58 0 101 -15 128 -43c25 -26 38 -64 38 -116zM369 156v183c0 27 -5 44 -15 54c-11 11 -29 15 -56 15
h-76c-27 0 -45 -4 -56 -15c-10 -10 -15 -27 -15 -54v-183c0 -27 5 -44 15 -54c11 -11 29 -15 56 -15h76c27 0 45 4 56 15c10 10 15 27 15 54zM298 609l117 114c12 12 22 18 31 18c6 0 12 0 20 -11l38 -53l-168 -121c-11 -8 -19 -3 -25 5l-16 21c-4 5 -5 8 -5 12s1 8 8 15z
M110 609l117 114c12 12 22 18 31 18c6 0 12 0 20 -11l38 -53l-168 -121c-11 -8 -19 -3 -25 5l-16 21c-4 5 -5 8 -5 12s1 8 8 15z" />
    <glyph glyph-name="oslash" unicode="&#xf8;" horiz-adv-x="530" 
d="M399 487c11 -5 28 -12 44 -29c25 -26 38 -64 38 -116v-189c0 -52 -13 -90 -38 -116c-27 -28 -70 -43 -128 -43h-106l-25 -67h-83l31 81c-13 5 -30 13 -45 29c-25 26 -38 64 -38 116v189c0 52 13 90 38 116c27 28 70 43 128 43h107l25 67h83c-11 -27 -21 -54 -31 -81z
M286 408h-64c-27 0 -45 -4 -56 -15c-10 -10 -15 -27 -15 -54v-183c0 -27 5 -46 17 -56zM363 395l-117 -308h62c27 0 45 4 56 15c10 10 15 27 15 54v183c0 30 -6 46 -16 56z" />
    <glyph glyph-name="oslashacute" unicode="&#x1ff;" horiz-adv-x="530" 
d="M168 611l145 120c10 8 16 11 23 11c8 0 14 -4 21 -15l40 -65l-193 -105c-13 -7 -19 -5 -26 6l-14 22c-8 13 -5 18 4 26zM399 487c11 -5 28 -12 44 -29c25 -26 38 -64 38 -116v-189c0 -52 -13 -90 -38 -116c-27 -28 -70 -43 -128 -43h-106l-25 -67h-83l31 81
c-13 5 -30 13 -45 29c-25 26 -38 64 -38 116v189c0 52 13 90 38 116c27 28 70 43 128 43h107l25 67h83c-11 -27 -21 -54 -31 -81zM286 408h-64c-27 0 -45 -4 -56 -15c-10 -10 -15 -27 -15 -54v-183c0 -27 5 -46 17 -56zM363 395l-117 -308h62c27 0 45 4 56 15
c10 10 15 27 15 54v183c0 30 -6 46 -16 56z" />
    <glyph glyph-name="oe" unicode="&#x153;" horiz-adv-x="829" 
d="M215 501h87c51 0 92 -15 118 -47c26 32 66 47 118 47h74c58 0 101 -15 128 -43c25 -26 38 -64 38 -116v-95c0 -28 -13 -40 -40 -40h-267v-55c0 -27 5 -44 15 -54c11 -11 29 -15 56 -15h61c58 0 96 9 130 36l43 -70c-44 -40 -91 -55 -169 -55h-69c-52 0 -93 14 -118 47
c-26 -33 -67 -47 -118 -47h-87c-58 0 -101 15 -128 43c-25 26 -38 64 -38 116v189c0 52 13 90 38 116c27 28 70 43 128 43zM369 156v183c0 27 -5 44 -15 54c-11 11 -29 15 -56 15h-76c-27 0 -45 -4 -56 -15c-10 -10 -15 -27 -15 -54v-183c0 -27 5 -44 15 -54
c11 -11 29 -15 56 -15h76c27 0 45 4 56 15c10 10 15 27 15 54zM471 342v-53h206v53c0 27 -5 44 -15 54c-11 11 -29 15 -56 15h-64c-27 0 -45 -4 -56 -15c-10 -10 -15 -27 -15 -54z" />
    <glyph glyph-name="thorn" unicode="&#xfe;" horiz-adv-x="525" 
d="M58 -190v875h102v-210l20 11c28 15 31 15 65 15h64c58 0 101 -15 128 -43c25 -26 38 -64 38 -116v-189c0 -52 -13 -90 -38 -116c-27 -28 -70 -43 -128 -43h-64c-34 0 -37 0 -65 15l-20 11v-210h-102zM160 374v-253c0 -7 1 -8 6 -11l35 -19c6 -3 9 -4 17 -4h84
c27 0 45 4 56 15c10 10 15 27 15 54v183c0 27 -5 44 -15 54c-11 11 -29 15 -56 15h-84c-8 0 -11 -1 -17 -4l-35 -19c-5 -3 -6 -4 -6 -11z" />
    <glyph glyph-name="racute" unicode="&#x155;" horiz-adv-x="344" 
d="M316 408h-87c-27 0 -45 -4 -56 -15c-10 -10 -15 -27 -15 -54v-339h-102v342c0 52 13 90 38 116c27 28 70 43 128 43h94v-93zM94 611l145 120c10 8 16 11 23 11c8 0 14 -4 21 -15l40 -65l-193 -105c-13 -7 -19 -5 -26 6l-14 22c-8 13 -5 18 4 26z" />
    <glyph glyph-name="rcaron" unicode="&#x159;" horiz-adv-x="344" 
d="M316 408h-87c-27 0 -45 -4 -56 -15c-10 -10 -15 -27 -15 -54v-339h-102v342c0 52 13 90 38 116c27 28 70 43 128 43h94v-93zM206 562h-25c-17 0 -26 3 -38 19l-121 159h99l73 -102l73 102h98l-121 -159c-12 -16 -20 -19 -38 -19z" />
    <glyph glyph-name="rcommaaccent" unicode="&#x157;" horiz-adv-x="344" 
d="M316 408h-87c-27 0 -45 -4 -56 -15c-10 -10 -15 -27 -15 -54v-339h-102v342c0 52 13 90 38 116c27 28 70 43 128 43h94v-93zM36 -214l24 171h80c19 0 20 -10 16 -23l-42 -156c-4 -13 -9 -17 -25 -17h-35c-17 0 -21 7 -18 25z" />
    <glyph glyph-name="sacute" unicode="&#x15b;" horiz-adv-x="472" 
d="M213 501h54c62 0 111 -15 153 -51l-43 -70c-30 22 -67 32 -114 32h-43c-53 0 -72 -17 -72 -57v-4c0 -37 19 -47 63 -53l83 -11c51 -7 80 -17 101 -38c28 -28 34 -61 34 -101v-7c0 -49 -16 -83 -39 -106c-29 -29 -74 -41 -126 -41h-67c-75 0 -122 14 -165 53l43 70
c27 -22 63 -35 120 -35h63c49 0 71 15 71 58v5c0 33 -20 47 -60 52l-83 11c-41 5 -80 16 -103 39c-25 25 -35 61 -35 102v5c0 49 16 83 39 106c29 29 74 41 126 41zM136 611l145 120c10 8 16 11 23 11c8 0 14 -4 21 -15l40 -65l-193 -105c-13 -7 -19 -5 -26 6l-14 22
c-8 13 -5 18 4 26z" />
    <glyph glyph-name="scircumflex" unicode="&#x15d;" horiz-adv-x="472" 
d="M213 501h54c62 0 111 -15 153 -51l-43 -70c-30 22 -67 32 -114 32h-43c-53 0 -72 -17 -72 -57v-4c0 -37 19 -47 63 -53l83 -11c51 -7 80 -17 101 -38c28 -28 34 -61 34 -101v-7c0 -49 -16 -83 -39 -106c-29 -29 -74 -41 -126 -41h-67c-75 0 -122 14 -165 53l43 70
c27 -22 63 -35 120 -35h63c49 0 71 15 71 58v5c0 33 -20 47 -60 52l-83 11c-41 5 -80 16 -103 39c-25 25 -35 61 -35 102v5c0 49 16 83 39 106c29 29 74 41 126 41zM224 744h25c18 0 26 -3 38 -19l121 -159h-98l-73 102l-73 -102h-99l121 159c12 16 21 19 38 19z" />
    <glyph glyph-name="scaron" unicode="&#x161;" horiz-adv-x="472" 
d="M213 501h54c62 0 111 -15 153 -51l-43 -70c-30 22 -67 32 -114 32h-43c-53 0 -72 -17 -72 -57v-4c0 -37 19 -47 63 -53l83 -11c51 -7 80 -17 101 -38c28 -28 34 -61 34 -101v-7c0 -49 -16 -83 -39 -106c-29 -29 -74 -41 -126 -41h-67c-75 0 -122 14 -165 53l43 70
c27 -22 63 -35 120 -35h63c49 0 71 15 71 58v5c0 33 -20 47 -60 52l-83 11c-41 5 -80 16 -103 39c-25 25 -35 61 -35 102v5c0 49 16 83 39 106c29 29 74 41 126 41zM249 562h-25c-17 0 -26 3 -38 19l-121 159h99l73 -102l73 102h98l-121 -159c-12 -16 -20 -19 -38 -19z" />
    <glyph glyph-name="scedilla" unicode="&#x15f;" horiz-adv-x="472" 
d="M215 -219l-38 56l76 51l-61 26c-19 8 -23 15 -23 25c0 6 2 14 5 21l14 34c-70 1 -115 15 -156 53l43 70c27 -22 63 -35 120 -35h63c49 0 71 15 71 58v5c0 33 -20 47 -60 52l-83 11c-41 5 -80 16 -103 39c-25 25 -35 61 -35 102v5c0 49 16 83 39 106c29 29 74 41 126 41
h54c62 0 111 -15 153 -51l-43 -70c-30 22 -67 32 -114 32h-43c-53 0 -72 -17 -72 -57v-4c0 -37 19 -47 63 -53l83 -11c51 -7 80 -17 101 -38c28 -28 34 -61 34 -101v-7c0 -49 -16 -83 -39 -106c-29 -29 -74 -41 -126 -41h-13l-2 -17c-1 -8 2 -10 13 -15l54 -24
c24 -11 31 -24 31 -41c0 -20 -9 -33 -31 -48z" />
    <glyph glyph-name="scommaaccent" unicode="&#x219;" horiz-adv-x="472" 
d="M213 501h54c62 0 111 -15 153 -51l-43 -70c-30 22 -67 32 -114 32h-43c-53 0 -72 -17 -72 -57v-4c0 -37 19 -47 63 -53l83 -11c51 -7 80 -17 101 -38c28 -28 34 -61 34 -101v-7c0 -49 -16 -83 -39 -106c-29 -29 -74 -41 -126 -41h-67c-75 0 -122 14 -165 53l43 70
c27 -22 63 -35 120 -35h63c49 0 71 15 71 58v5c0 33 -20 47 -60 52l-83 11c-41 5 -80 16 -103 39c-25 25 -35 61 -35 102v5c0 49 16 83 39 106c29 29 74 41 126 41zM171 -214l24 171h80c19 0 20 -10 16 -23l-42 -156c-4 -13 -9 -17 -25 -17h-35c-17 0 -21 7 -18 25z" />
    <glyph glyph-name="germandbls" unicode="&#xdf;" horiz-adv-x="591" 
d="M511 532v-53c0 -47 -6 -60 -29 -84l-15 -15l40 -40c25 -25 30 -38 30 -80v-104c0 -52 -13 -90 -38 -116c-27 -28 -70 -43 -128 -43h-142v93h135c27 0 45 4 56 15c10 10 15 27 15 54v106c0 11 -2 15 -11 24l-17 17c-7 7 -11 9 -24 9h-123v93h100c13 0 17 2 24 9l15 15
c9 9 11 13 11 24v72c0 27 -5 44 -15 54c-11 11 -29 15 -56 15h-108c-27 0 -45 -4 -56 -15c-10 -10 -15 -27 -15 -54v-714h-102v718c0 52 13 90 38 116c27 28 70 43 128 43h121c58 0 101 -15 128 -43c25 -26 38 -64 38 -116z" />
    <glyph glyph-name="tcaron" unicode="&#x165;" horiz-adv-x="381" 
d="M16 408v87h74v131h102v-131h141v-87h-141v-252c0 -27 5 -44 15 -54c11 -11 29 -15 56 -15h76v-93h-83c-58 0 -101 15 -128 43c-25 26 -38 64 -38 116v255h-74zM260 582l24 171h80c19 0 20 -10 16 -23l-42 -156c-4 -13 -9 -17 -25 -17h-35c-17 0 -21 7 -18 25z" />
    <glyph glyph-name="tcommaaccent" unicode="&#x163;" horiz-adv-x="381" 
d="M16 408v87h74v131h102v-131h141v-87h-141v-252c0 -27 5 -44 15 -54c11 -11 29 -15 56 -15h76v-93h-83c-58 0 -101 15 -128 43c-25 26 -38 64 -38 116v255h-74zM147 -214l24 171h80c19 0 20 -10 16 -23l-42 -156c-4 -13 -9 -17 -25 -17h-35c-17 0 -21 7 -18 25z" />
    <glyph glyph-name="uni021B" unicode="&#x21b;" horiz-adv-x="381" 
d="M16 408v87h74v131h102v-131h141v-87h-141v-252c0 -27 5 -44 15 -54c11 -11 29 -15 56 -15h76v-93h-83c-58 0 -101 15 -128 43c-25 26 -38 64 -38 116v255h-74zM147 -214l24 171h80c19 0 20 -10 16 -23l-42 -156c-4 -13 -9 -17 -25 -17h-35c-17 0 -21 7 -18 25z" />
    <glyph glyph-name="tbar" unicode="&#x167;" horiz-adv-x="392" 
d="M23 408v87h74v131h102v-131h141v-87h-141v-116h119v-84h-119v-52c0 -27 5 -44 15 -54c11 -11 29 -15 56 -15h76v-93h-83c-58 0 -101 15 -128 43c-25 26 -38 64 -38 116v55h-60v84h60v116h-74z" />
    <glyph glyph-name="ugrave" unicode="&#xf9;" horiz-adv-x="523" 
d="M327 -6h-105c-58 0 -101 15 -128 43c-25 26 -38 64 -38 116v342h102v-338c0 -27 5 -44 15 -54c11 -11 29 -15 56 -15h90c10 0 11 0 18 5l20 15c6 5 6 5 6 12v375h102v-403c0 -26 -6 -33 -33 -53l-34 -26c-23 -17 -37 -19 -71 -19zM220 731l145 -120c9 -8 12 -13 4 -26
l-14 -22c-7 -11 -13 -13 -26 -6l-193 105l40 65c7 11 13 15 21 15c7 0 13 -3 23 -11z" />
    <glyph glyph-name="uacute" unicode="&#xfa;" horiz-adv-x="523" 
d="M327 -6h-105c-58 0 -101 15 -128 43c-25 26 -38 64 -38 116v342h102v-338c0 -27 5 -44 15 -54c11 -11 29 -15 56 -15h90c10 0 11 0 18 5l20 15c6 5 6 5 6 12v375h102v-403c0 -26 -6 -33 -33 -53l-34 -26c-23 -17 -37 -19 -71 -19zM159 611l145 120c10 8 16 11 23 11
c8 0 14 -4 21 -15l40 -65l-193 -105c-13 -7 -19 -5 -26 6l-14 22c-8 13 -5 18 4 26z" />
    <glyph glyph-name="ucircumflex" unicode="&#xfb;" horiz-adv-x="523" 
d="M327 -6h-105c-58 0 -101 15 -128 43c-25 26 -38 64 -38 116v342h102v-338c0 -27 5 -44 15 -54c11 -11 29 -15 56 -15h90c10 0 11 0 18 5l20 15c6 5 6 5 6 12v375h102v-403c0 -26 -6 -33 -33 -53l-34 -26c-23 -17 -37 -19 -71 -19zM248 744h25c18 0 26 -3 38 -19l121 -159
h-98l-73 102l-73 -102h-99l121 159c12 16 21 19 38 19z" />
    <glyph glyph-name="utilde" unicode="&#x169;" horiz-adv-x="523" 
d="M327 -6h-105c-58 0 -101 15 -128 43c-25 26 -38 64 -38 116v342h102v-338c0 -27 5 -44 15 -54c11 -11 29 -15 56 -15h90c10 0 11 0 18 5l20 15c6 5 6 5 6 12v375h102v-403c0 -26 -6 -33 -33 -53l-34 -26c-23 -17 -37 -19 -71 -19zM345 676l59 34l43 -59l-59 -47
c-26 -21 -46 -29 -71 -29c-50 0 -77 44 -112 44c-10 0 -17 -3 -29 -10l-59 -34l-43 59l38 31c38 31 60 45 92 45c50 0 77 -44 112 -44c10 0 17 3 29 10z" />
    <glyph glyph-name="udieresis" unicode="&#xfc;" horiz-adv-x="523" 
d="M327 -6h-105c-58 0 -101 15 -128 43c-25 26 -38 64 -38 116v342h102v-338c0 -27 5 -44 15 -54c11 -11 29 -15 56 -15h90c10 0 11 0 18 5l20 15c6 5 6 5 6 12v375h102v-403c0 -26 -6 -33 -33 -53l-34 -26c-23 -17 -37 -19 -71 -19zM167 576c-36 0 -62 26 -62 62
c0 35 26 62 62 62c35 0 62 -27 62 -62c0 -36 -27 -62 -62 -62zM354 576c-36 0 -62 26 -62 62c0 35 26 62 62 62c35 0 62 -27 62 -62c0 -36 -27 -62 -62 -62z" />
    <glyph glyph-name="umacron" unicode="&#x16b;" horiz-adv-x="523" 
d="M327 -6h-105c-58 0 -101 15 -128 43c-25 26 -38 64 -38 116v342h102v-338c0 -27 5 -44 15 -54c11 -11 29 -15 56 -15h90c10 0 11 0 18 5l20 15c6 5 6 5 6 12v375h102v-403c0 -26 -6 -33 -33 -53l-34 -26c-23 -17 -37 -19 -71 -19zM116 597v86h290v-86h-290z" />
    <glyph glyph-name="ubreve" unicode="&#x16d;" horiz-adv-x="523" 
d="M327 -6h-105c-58 0 -101 15 -128 43c-25 26 -38 64 -38 116v342h102v-338c0 -27 5 -44 15 -54c11 -11 29 -15 56 -15h90c10 0 11 0 18 5l20 15c6 5 6 5 6 12v375h102v-403c0 -26 -6 -33 -33 -53l-34 -26c-23 -17 -37 -19 -71 -19zM291 567h-61c-39 0 -67 5 -85 23
c-16 16 -24 39 -24 72v52h88v-26c0 -30 2 -41 26 -41h51c24 0 26 11 26 41v26h88v-52c0 -33 -8 -56 -24 -72c-18 -18 -46 -23 -85 -23z" />
    <glyph glyph-name="uring" unicode="&#x16f;" horiz-adv-x="523" 
d="M327 -6h-105c-58 0 -101 15 -128 43c-25 26 -38 64 -38 116v342h102v-338c0 -27 5 -44 15 -54c11 -11 29 -15 56 -15h90c10 0 11 0 18 5l20 15c6 5 6 5 6 12v375h102v-403c0 -26 -6 -33 -33 -53l-34 -26c-23 -17 -37 -19 -71 -19zM374 684v-53c0 -62 -35 -82 -101 -82
h-24c-67 0 -101 20 -101 82v53c0 61 34 83 101 83h24c65 0 101 -22 101 -83zM254 615h13c28 0 35 2 35 30v26c0 23 -7 30 -35 30h-13c-28 0 -35 -7 -35 -30v-26c0 -28 7 -30 35 -30z" />
    <glyph glyph-name="uhungarumlaut" unicode="&#x171;" horiz-adv-x="523" 
d="M327 -6h-105c-58 0 -101 15 -128 43c-25 26 -38 64 -38 116v342h102v-338c0 -27 5 -44 15 -54c11 -11 29 -15 56 -15h90c10 0 11 0 18 5l20 15c6 5 6 5 6 12v375h102v-403c0 -26 -6 -33 -33 -53l-34 -26c-23 -17 -37 -19 -71 -19zM304 609l117 114c12 12 22 18 31 18
c6 0 12 0 20 -11l38 -53l-168 -121c-11 -8 -19 -3 -25 5l-16 21c-4 5 -5 8 -5 12s1 8 8 15zM116 609l117 114c12 12 22 18 31 18c6 0 12 0 20 -11l38 -53l-168 -121c-11 -8 -19 -3 -25 5l-16 21c-4 5 -5 8 -5 12s1 8 8 15z" />
    <glyph glyph-name="uogonek" unicode="&#x173;" horiz-adv-x="523" 
d="M438 27l-103 -142l83 -57l-45 -63l-115 73c-17 11 -26 22 -26 40c0 16 8 24 20 38l80 93c-19 -11 -30 -15 -64 -15h-46c-58 0 -101 15 -128 43c-25 26 -38 64 -38 116v342h102v-338c0 -27 5 -44 15 -54c11 -11 29 -15 56 -15h90c10 0 11 0 18 5l20 15c6 5 6 5 6 12v375
h102v-397c0 -26 -5 -40 -27 -71z" />
    <glyph glyph-name="wgrave" unicode="&#x1e81;" horiz-adv-x="756" 
d="M578 283l54 212h103l-126 -475c-5 -21 -16 -26 -42 -26h-60c-27 0 -37 4 -42 26l-56 233c-13 53 -25 113 -31 152c-6 -40 -18 -97 -31 -152l-55 -233c-5 -21 -15 -26 -42 -26h-60c-28 0 -36 4 -42 26l-127 475h103l52 -212c18 -75 38 -165 45 -204c12 89 37 189 60 282
l27 109c5 20 16 25 40 25h62c23 0 34 -5 39 -25l27 -109c23 -93 46 -191 60 -282c9 64 25 137 42 204zM342 731l145 -120c9 -8 12 -13 4 -26l-14 -22c-7 -11 -13 -13 -26 -6l-193 105l40 65c7 11 13 15 21 15c7 0 13 -3 23 -11z" />
    <glyph glyph-name="wacute" unicode="&#x1e83;" horiz-adv-x="756" 
d="M578 283l54 212h103l-126 -475c-5 -21 -16 -26 -42 -26h-60c-27 0 -37 4 -42 26l-56 233c-13 53 -25 113 -31 152c-6 -40 -18 -97 -31 -152l-55 -233c-5 -21 -15 -26 -42 -26h-60c-28 0 -36 4 -42 26l-127 475h103l52 -212c18 -75 38 -165 45 -204c12 89 37 189 60 282
l27 109c5 20 16 25 40 25h62c23 0 34 -5 39 -25l27 -109c23 -93 46 -191 60 -282c9 64 25 137 42 204zM274 611l145 120c10 8 16 11 23 11c8 0 14 -4 21 -15l40 -65l-193 -105c-13 -7 -19 -5 -26 6l-14 22c-8 13 -5 18 4 26z" />
    <glyph glyph-name="wcircumflex" unicode="&#x175;" horiz-adv-x="756" 
d="M578 283l54 212h103l-126 -475c-5 -21 -16 -26 -42 -26h-60c-27 0 -37 4 -42 26l-56 233c-13 53 -25 113 -31 152c-6 -40 -18 -97 -31 -152l-55 -233c-5 -21 -15 -26 -42 -26h-60c-28 0 -36 4 -42 26l-127 475h103l52 -212c18 -75 38 -165 45 -204c12 89 37 189 60 282
l27 109c5 20 16 25 40 25h62c23 0 34 -5 39 -25l27 -109c23 -93 46 -191 60 -282c9 64 25 137 42 204zM365 744h25c18 0 26 -3 38 -19l121 -159h-98l-73 102l-73 -102h-99l121 159c12 16 21 19 38 19z" />
    <glyph glyph-name="wdieresis" unicode="&#x1e85;" horiz-adv-x="756" 
d="M578 283l54 212h103l-126 -475c-5 -21 -16 -26 -42 -26h-60c-27 0 -37 4 -42 26l-56 233c-13 53 -25 113 -31 152c-6 -40 -18 -97 -31 -152l-55 -233c-5 -21 -15 -26 -42 -26h-60c-28 0 -36 4 -42 26l-127 475h103l52 -212c18 -75 38 -165 45 -204c12 89 37 189 60 282
l27 109c5 20 16 25 40 25h62c23 0 34 -5 39 -25l27 -109c23 -93 46 -191 60 -282c9 64 25 137 42 204zM284 576c-36 0 -62 26 -62 62c0 35 26 62 62 62c35 0 62 -27 62 -62c0 -36 -27 -62 -62 -62zM471 576c-36 0 -62 26 -62 62c0 35 26 62 62 62c35 0 62 -27 62 -62
c0 -36 -27 -62 -62 -62z" />
    <glyph glyph-name="ygrave" unicode="&#x1ef3;" 
d="M321 315l63 180h112l-192 -524c-42 -113 -78 -167 -190 -167h-45l-22 85h45c65 0 85 19 104 74l6 17l-189 515h112l63 -180c31 -88 52 -163 67 -223c13 60 34 130 66 223zM198 731l145 -120c9 -8 12 -13 4 -26l-14 -22c-7 -11 -13 -13 -26 -6l-193 105l40 65
c7 11 13 15 21 15c7 0 13 -3 23 -11z" />
    <glyph glyph-name="yacute" unicode="&#xfd;" 
d="M321 315l63 180h112l-192 -524c-42 -113 -78 -167 -190 -167h-45l-22 85h45c65 0 85 19 104 74l6 17l-189 515h112l63 -180c31 -88 52 -163 67 -223c13 60 34 130 66 223zM166 611l145 120c10 8 16 11 23 11c8 0 14 -4 21 -15l40 -65l-193 -105c-13 -7 -19 -5 -26 6
l-14 22c-8 13 -5 18 4 26z" />
    <glyph glyph-name="ycircumflex" unicode="&#x177;" 
d="M321 315l63 180h112l-192 -524c-42 -113 -78 -167 -190 -167h-45l-22 85h45c65 0 85 19 104 74l6 17l-189 515h112l63 -180c31 -88 52 -163 67 -223c13 60 34 130 66 223zM241 744h25c18 0 26 -3 38 -19l121 -159h-98l-73 102l-73 -102h-99l121 159c12 16 21 19 38 19z
" />
    <glyph glyph-name="ydieresis" unicode="&#xff;" 
d="M321 315l63 180h112l-192 -524c-42 -113 -78 -167 -190 -167h-45l-22 85h45c65 0 85 19 104 74l6 17l-189 515h112l63 -180c31 -88 52 -163 67 -223c13 60 34 130 66 223zM160 576c-36 0 -62 26 -62 62c0 35 26 62 62 62c35 0 62 -27 62 -62c0 -36 -27 -62 -62 -62z
M347 576c-36 0 -62 26 -62 62c0 35 26 62 62 62c35 0 62 -27 62 -62c0 -36 -27 -62 -62 -62z" />
    <glyph glyph-name="zacute" unicode="&#x17a;" horiz-adv-x="444" 
d="M49 495h333c13 0 16 -4 16 -16v-20c0 -21 -1 -30 -10 -44l-215 -327h233v-88h-346c-13 0 -16 4 -16 15v37c0 11 3 17 10 28l215 328h-220v87zM129 611l145 120c10 8 16 11 23 11c8 0 14 -4 21 -15l40 -65l-193 -105c-13 -7 -19 -5 -26 6l-14 22c-8 13 -5 18 4 26z" />
    <glyph glyph-name="zcaron" unicode="&#x17e;" horiz-adv-x="444" 
d="M49 495h333c13 0 16 -4 16 -16v-20c0 -21 -1 -30 -10 -44l-215 -327h233v-88h-346c-13 0 -16 4 -16 15v37c0 11 3 17 10 28l215 328h-220v87zM239 562h-25c-17 0 -26 3 -38 19l-121 159h99l73 -102l73 102h98l-121 -159c-12 -16 -20 -19 -38 -19z" />
    <glyph glyph-name="zdotaccent" unicode="&#x17c;" horiz-adv-x="444" 
d="M49 495h333c13 0 16 -4 16 -16v-20c0 -21 -1 -30 -10 -44l-215 -327h233v-88h-346c-13 0 -16 4 -16 15v37c0 11 3 17 10 28l215 328h-220v87zM157 652c0 38 30 68 68 68s68 -30 68 -68s-30 -68 -68 -68s-68 30 -68 68z" />
    <glyph glyph-name="apple" unicode="&#xf8ff;" horiz-adv-x="492" 
d="M430 376v-185h-247v60h186v63h-186v184h247v-61h-184v-61h184zM430 620v-61h-306v-497h67v-62h-129v620h368z" />
    <glyph glyph-name="arrowleft" unicode="&#x2190;" horiz-adv-x="850" 
d="M23 312c0 30 9 48 43 80l306 287l64 -68l-268 -252h636v-95h-636l268 -252l-64 -68l-306 287c-34 32 -43 51 -43 81z" />
    <glyph glyph-name="arrowup" unicode="&#x2191;" horiz-adv-x="850" 
d="M424 675c30 0 49 -9 81 -43l287 -306l-68 -64l-249 265v-583h-101v583l-249 -265l-68 64l287 306c32 34 50 43 80 43z" />
    <glyph glyph-name="arrowright" unicode="&#x2192;" horiz-adv-x="850" 
d="M827 312c0 -30 -9 -49 -43 -81l-306 -287l-64 68l268 252h-636v95h636l-268 252l64 68l306 -287c34 -32 43 -50 43 -80z" />
    <glyph glyph-name="arrowdown" unicode="&#x2193;" horiz-adv-x="850" 
d="M423 -56c-30 0 -49 9 -81 43l-287 306l68 64l249 -265v583h101v-583l249 265l68 -64l-287 -306c-32 -34 -50 -43 -80 -43z" />
    </font>
</defs>
</svg>
